<svg xmlns="http://www.w3.org/2000/svg" width="1280" height="720" viewBox="0 0 1280 720" role="img">
<style>text{font-family:Inter,Arial,sans-serif}.title{font-size:30px;font-weight:760;fill:#17212b}.muted{font-size:16px;fill:#66717f}.badge{font-size:14px;font-weight:760;fill:#b54708}</style>
<rect width="1280" height="720" fill="#eef2f6"/>
<rect x="32" y="28" width="1216" height="86" rx="8" fill="#ffffff" stroke="#d8e0e8"/>
<text x="56" y="68" class="title">neodojo public fixture demo</text>
<text x="56" y="94" class="muted">SMPL-X teacher + Unitree G1 MuJoCo model replay - frame 305</text>
<text x="1080" y="66" class="badge">REAL ARTIFACT</text>
<rect x="48" y="144" width="560" height="500" rx="8" fill="#ffffff" stroke="#d8e0e8"/>
<rect x="672" y="144" width="560" height="500" rx="8" fill="#ffffff" stroke="#d8e0e8"/>
<text x="72" y="184" class="title">SMPL-X teacher</text>
<text x="696" y="184" class="title">Unitree G1 MuJoCo model replay</text>
<g transform="translate(80 210)"><line x1="237.7" y1="182.3" x2="238.0" y2="143.1" stroke="#147c72" stroke-opacity="0.16" stroke-width="18.9" stroke-linecap="round"/>
<line x1="238.0" y1="143.1" x2="233.5" y2="121.8" stroke="#147c72" stroke-opacity="0.16" stroke-width="17.1" stroke-linecap="round"/>
<line x1="233.5" y1="121.8" x2="237.7" y2="100.1" stroke="#147c72" stroke-opacity="0.16" stroke-width="12.6" stroke-linecap="round"/>
<line x1="238.0" y1="143.1" x2="243.6" y2="195.4" stroke="#147c72" stroke-opacity="0.16" stroke-width="15.3" stroke-linecap="round"/>
<line x1="243.6" y1="195.4" x2="256.4" y2="242.7" stroke="#147c72" stroke-opacity="0.16" stroke-width="10.8" stroke-linecap="round"/>
<line x1="256.4" y1="242.7" x2="246.7" y2="295.0" stroke="#147c72" stroke-opacity="0.16" stroke-width="8.1" stroke-linecap="round"/>
<line x1="238.0" y1="143.1" x2="227.9" y2="195.8" stroke="#147c72" stroke-opacity="0.16" stroke-width="15.3" stroke-linecap="round"/>
<line x1="227.9" y1="195.8" x2="206.1" y2="238.4" stroke="#147c72" stroke-opacity="0.16" stroke-width="10.8" stroke-linecap="round"/>
<line x1="206.1" y1="238.4" x2="185.2" y2="284.1" stroke="#147c72" stroke-opacity="0.16" stroke-width="8.1" stroke-linecap="round"/>
<line x1="233.5" y1="121.8" x2="252.2" y2="127.7" stroke="#147c72" stroke-opacity="0.16" stroke-width="9.9" stroke-linecap="round"/>
<line x1="252.2" y1="127.7" x2="273.2" y2="141.5" stroke="#147c72" stroke-opacity="0.16" stroke-width="8.1" stroke-linecap="round"/>
<line x1="273.2" y1="141.5" x2="294.8" y2="145.0" stroke="#147c72" stroke-opacity="0.16" stroke-width="8.0" stroke-linecap="round"/>
<line x1="233.5" y1="121.8" x2="220.2" y2="121.7" stroke="#147c72" stroke-opacity="0.16" stroke-width="9.9" stroke-linecap="round"/>
<line x1="220.2" y1="121.7" x2="210.8" y2="96.7" stroke="#147c72" stroke-opacity="0.16" stroke-width="8.1" stroke-linecap="round"/>
<line x1="210.8" y1="96.7" x2="217.4" y2="65.0" stroke="#147c72" stroke-opacity="0.16" stroke-width="8.0" stroke-linecap="round"/><line x1="237.7" y1="182.3" x2="238.0" y2="143.1" stroke="#147c72" stroke-width="4" stroke-linecap="round"/>
<line x1="238.0" y1="143.1" x2="233.5" y2="121.8" stroke="#147c72" stroke-width="4" stroke-linecap="round"/>
<line x1="233.5" y1="121.8" x2="237.7" y2="100.1" stroke="#147c72" stroke-width="4" stroke-linecap="round"/>
<line x1="238.0" y1="143.1" x2="243.6" y2="195.4" stroke="#147c72" stroke-width="4" stroke-linecap="round"/>
<line x1="243.6" y1="195.4" x2="256.4" y2="242.7" stroke="#147c72" stroke-width="4" stroke-linecap="round"/>
<line x1="256.4" y1="242.7" x2="246.7" y2="295.0" stroke="#147c72" stroke-width="4" stroke-linecap="round"/>
<line x1="238.0" y1="143.1" x2="227.9" y2="195.8" stroke="#147c72" stroke-width="4" stroke-linecap="round"/>
<line x1="227.9" y1="195.8" x2="206.1" y2="238.4" stroke="#147c72" stroke-width="4" stroke-linecap="round"/>
<line x1="206.1" y1="238.4" x2="185.2" y2="284.1" stroke="#147c72" stroke-width="4" stroke-linecap="round"/>
<line x1="233.5" y1="121.8" x2="252.2" y2="127.7" stroke="#147c72" stroke-width="4" stroke-linecap="round"/>
<line x1="252.2" y1="127.7" x2="273.2" y2="141.5" stroke="#147c72" stroke-width="4" stroke-linecap="round"/>
<line x1="273.2" y1="141.5" x2="294.8" y2="145.0" stroke="#147c72" stroke-width="4" stroke-linecap="round"/>
<line x1="233.5" y1="121.8" x2="220.2" y2="121.7" stroke="#147c72" stroke-width="4" stroke-linecap="round"/>
<line x1="220.2" y1="121.7" x2="210.8" y2="96.7" stroke="#147c72" stroke-width="4" stroke-linecap="round"/>
<line x1="210.8" y1="96.7" x2="217.4" y2="65.0" stroke="#147c72" stroke-width="4" stroke-linecap="round"/>
<circle cx="237.7" cy="100.1" r="3.5" fill="#147c72"/>
<circle cx="246.7" cy="295.0" r="3.5" fill="#147c72"/>
<circle cx="273.2" cy="141.5" r="3.5" fill="#147c72"/>
<circle cx="243.6" cy="195.4" r="3.5" fill="#147c72"/>
<circle cx="256.4" cy="242.7" r="3.5" fill="#147c72"/>
<circle cx="252.2" cy="127.7" r="3.5" fill="#147c72"/>
<circle cx="294.8" cy="145.0" r="3.5" fill="#147c72"/>
<circle cx="233.5" cy="121.8" r="3.5" fill="#147c72"/>
<circle cx="237.7" cy="182.3" r="3.5" fill="#147c72"/>
<circle cx="185.2" cy="284.1" r="3.5" fill="#147c72"/>
<circle cx="210.8" cy="96.7" r="3.5" fill="#147c72"/>
<circle cx="227.9" cy="195.8" r="3.5" fill="#147c72"/>
<circle cx="206.1" cy="238.4" r="3.5" fill="#147c72"/>
<circle cx="220.2" cy="121.7" r="3.5" fill="#147c72"/>
<circle cx="217.4" cy="65.0" r="3.5" fill="#147c72"/>
<circle cx="238.0" cy="143.1" r="3.5" fill="#147c72"/></g>
<g transform="translate(704 210)"><line x1="235.2" y1="173.9" x2="235.4" y2="131.7" stroke="#b84e32" stroke-width="4" stroke-linecap="round"/>
<line x1="235.4" y1="131.7" x2="230.9" y2="108.8" stroke="#b84e32" stroke-width="4" stroke-linecap="round"/>
<line x1="230.9" y1="108.8" x2="235.2" y2="89.8" stroke="#b84e32" stroke-width="4" stroke-linecap="round"/>
<line x1="235.4" y1="131.7" x2="241.2" y2="187.9" stroke="#b84e32" stroke-width="4" stroke-linecap="round"/>
<line x1="241.2" y1="187.9" x2="254.1" y2="238.8" stroke="#b84e32" stroke-width="4" stroke-linecap="round"/>
<line x1="254.1" y1="238.8" x2="244.2" y2="295.0" stroke="#b84e32" stroke-width="4" stroke-linecap="round"/>
<line x1="235.4" y1="131.7" x2="225.3" y2="188.4" stroke="#b84e32" stroke-width="4" stroke-linecap="round"/>
<line x1="225.3" y1="188.4" x2="203.2" y2="234.1" stroke="#b84e32" stroke-width="4" stroke-linecap="round"/>
<line x1="203.2" y1="234.1" x2="182.1" y2="283.3" stroke="#b84e32" stroke-width="4" stroke-linecap="round"/>
<line x1="230.9" y1="108.8" x2="249.9" y2="115.2" stroke="#b84e32" stroke-width="4" stroke-linecap="round"/>
<line x1="249.9" y1="115.2" x2="271.0" y2="138.6" stroke="#b84e32" stroke-width="4" stroke-linecap="round"/>
<line x1="271.0" y1="138.6" x2="297.9" y2="151.0" stroke="#b84e32" stroke-width="4" stroke-linecap="round"/>
<line x1="230.9" y1="108.8" x2="217.5" y2="108.7" stroke="#b84e32" stroke-width="4" stroke-linecap="round"/>
<line x1="217.5" y1="108.7" x2="208.0" y2="90.4" stroke="#b84e32" stroke-width="4" stroke-linecap="round"/>
<line x1="208.0" y1="90.4" x2="213.4" y2="65.0" stroke="#b84e32" stroke-width="4" stroke-linecap="round"/>
<circle cx="235.2" cy="89.8" r="3.5" fill="#b84e32"/>
<circle cx="244.2" cy="295.0" r="3.5" fill="#b84e32"/>
<circle cx="271.0" cy="138.6" r="3.5" fill="#b84e32"/>
<circle cx="241.2" cy="187.9" r="3.5" fill="#b84e32"/>
<circle cx="254.1" cy="238.8" r="3.5" fill="#b84e32"/>
<circle cx="249.9" cy="115.2" r="3.5" fill="#b84e32"/>
<circle cx="297.9" cy="151.0" r="3.5" fill="#b84e32"/>
<circle cx="230.9" cy="108.8" r="3.5" fill="#b84e32"/>
<circle cx="235.2" cy="173.9" r="3.5" fill="#b84e32"/>
<circle cx="182.1" cy="283.3" r="3.5" fill="#b84e32"/>
<circle cx="208.0" cy="90.4" r="3.5" fill="#b84e32"/>
<circle cx="225.3" cy="188.4" r="3.5" fill="#b84e32"/>
<circle cx="203.2" cy="234.1" r="3.5" fill="#b84e32"/>
<circle cx="217.5" cy="108.7" r="3.5" fill="#b84e32"/>
<circle cx="213.4" cy="65.0" r="3.5" fill="#b84e32"/>
<circle cx="235.4" cy="131.7" r="3.5" fill="#b84e32"/></g>
<text x="56" y="684" class="muted">Scoring source: SMPL-X. G1 scoring allowed: false. Feedback passed: False</text>
<text x="696" y="672" class="muted">Routine feedback anchors: opening stance, settled support, raise hands apex</text>
<text x="696" y="696" class="muted">SMPL-X surface layer: SMPL-X surface proxy</text>
</svg>