<svg xmlns="http://www.w3.org/2000/svg" width="1280" height="720" viewBox="0 0 1280 720" role="img">
<style>text{font-family:Inter,Arial,sans-serif}.title{font-size:30px;font-weight:760;fill:#17212b}.muted{font-size:16px;fill:#66717f}.badge{font-size:14px;font-weight:760;fill:#b54708}</style>
<rect width="1280" height="720" fill="#eef2f6"/>
<rect x="32" y="28" width="1216" height="86" rx="8" fill="#ffffff" stroke="#d8e0e8"/>
<text x="56" y="68" class="title">neodojo public fixture demo</text>
<text x="56" y="94" class="muted">SMPL-X teacher + Unitree G1 MuJoCo model replay - frame 863</text>
<text x="1080" y="66" class="badge">REAL ARTIFACT</text>
<rect x="48" y="144" width="560" height="500" rx="8" fill="#ffffff" stroke="#d8e0e8"/>
<rect x="672" y="144" width="560" height="500" rx="8" fill="#ffffff" stroke="#d8e0e8"/>
<text x="72" y="184" class="title">SMPL-X teacher</text>
<text x="696" y="184" class="title">Unitree G1 MuJoCo model replay</text>
<g transform="translate(80 210)"><line x1="241.7" y1="159.1" x2="241.0" y2="114.2" stroke="#147c72" stroke-opacity="0.16" stroke-width="18.9" stroke-linecap="round"/>
<line x1="241.0" y1="114.2" x2="237.6" y2="90.4" stroke="#147c72" stroke-opacity="0.16" stroke-width="17.1" stroke-linecap="round"/>
<line x1="237.6" y1="90.4" x2="242.2" y2="65.0" stroke="#147c72" stroke-opacity="0.16" stroke-width="12.6" stroke-linecap="round"/>
<line x1="241.0" y1="114.2" x2="251.3" y2="174.8" stroke="#147c72" stroke-opacity="0.16" stroke-width="15.3" stroke-linecap="round"/>
<line x1="251.3" y1="174.8" x2="266.3" y2="232.3" stroke="#147c72" stroke-opacity="0.16" stroke-width="10.8" stroke-linecap="round"/>
<line x1="266.3" y1="232.3" x2="266.1" y2="295.0" stroke="#147c72" stroke-opacity="0.16" stroke-width="8.1" stroke-linecap="round"/>
<line x1="241.0" y1="114.2" x2="230.3" y2="175.8" stroke="#147c72" stroke-opacity="0.16" stroke-width="15.3" stroke-linecap="round"/>
<line x1="230.3" y1="175.8" x2="216.4" y2="231.4" stroke="#147c72" stroke-opacity="0.16" stroke-width="10.8" stroke-linecap="round"/>
<line x1="216.4" y1="231.4" x2="213.8" y2="294.2" stroke="#147c72" stroke-opacity="0.16" stroke-width="8.1" stroke-linecap="round"/>
<line x1="237.6" y1="90.4" x2="266.1" y2="92.0" stroke="#147c72" stroke-opacity="0.16" stroke-width="9.9" stroke-linecap="round"/>
<line x1="266.1" y1="92.0" x2="284.4" y2="125.2" stroke="#147c72" stroke-opacity="0.16" stroke-width="8.1" stroke-linecap="round"/>
<line x1="284.4" y1="125.2" x2="256.3" y2="110.6" stroke="#147c72" stroke-opacity="0.16" stroke-width="8.0" stroke-linecap="round"/>
<line x1="237.6" y1="90.4" x2="217.1" y2="93.5" stroke="#147c72" stroke-opacity="0.16" stroke-width="9.9" stroke-linecap="round"/>
<line x1="217.1" y1="93.5" x2="195.6" y2="126.9" stroke="#147c72" stroke-opacity="0.16" stroke-width="8.1" stroke-linecap="round"/>
<line x1="195.6" y1="126.9" x2="222.7" y2="117.0" stroke="#147c72" stroke-opacity="0.16" stroke-width="8.0" stroke-linecap="round"/><line x1="241.7" y1="159.1" x2="241.0" y2="114.2" stroke="#147c72" stroke-width="4" stroke-linecap="round"/>
<line x1="241.0" y1="114.2" x2="237.6" y2="90.4" stroke="#147c72" stroke-width="4" stroke-linecap="round"/>
<line x1="237.6" y1="90.4" x2="242.2" y2="65.0" stroke="#147c72" stroke-width="4" stroke-linecap="round"/>
<line x1="241.0" y1="114.2" x2="251.3" y2="174.8" stroke="#147c72" stroke-width="4" stroke-linecap="round"/>
<line x1="251.3" y1="174.8" x2="266.3" y2="232.3" stroke="#147c72" stroke-width="4" stroke-linecap="round"/>
<line x1="266.3" y1="232.3" x2="266.1" y2="295.0" stroke="#147c72" stroke-width="4" stroke-linecap="round"/>
<line x1="241.0" y1="114.2" x2="230.3" y2="175.8" stroke="#147c72" stroke-width="4" stroke-linecap="round"/>
<line x1="230.3" y1="175.8" x2="216.4" y2="231.4" stroke="#147c72" stroke-width="4" stroke-linecap="round"/>
<line x1="216.4" y1="231.4" x2="213.8" y2="294.2" stroke="#147c72" stroke-width="4" stroke-linecap="round"/>
<line x1="237.6" y1="90.4" x2="266.1" y2="92.0" stroke="#147c72" stroke-width="4" stroke-linecap="round"/>
<line x1="266.1" y1="92.0" x2="284.4" y2="125.2" stroke="#147c72" stroke-width="4" stroke-linecap="round"/>
<line x1="284.4" y1="125.2" x2="256.3" y2="110.6" stroke="#147c72" stroke-width="4" stroke-linecap="round"/>
<line x1="237.6" y1="90.4" x2="217.1" y2="93.5" stroke="#147c72" stroke-width="4" stroke-linecap="round"/>
<line x1="217.1" y1="93.5" x2="195.6" y2="126.9" stroke="#147c72" stroke-width="4" stroke-linecap="round"/>
<line x1="195.6" y1="126.9" x2="222.7" y2="117.0" stroke="#147c72" stroke-width="4" stroke-linecap="round"/>
<circle cx="242.2" cy="65.0" r="3.5" fill="#147c72"/>
<circle cx="266.1" cy="295.0" r="3.5" fill="#147c72"/>
<circle cx="284.4" cy="125.2" r="3.5" fill="#147c72"/>
<circle cx="251.3" cy="174.8" r="3.5" fill="#147c72"/>
<circle cx="266.3" cy="232.3" r="3.5" fill="#147c72"/>
<circle cx="266.1" cy="92.0" r="3.5" fill="#147c72"/>
<circle cx="256.3" cy="110.6" r="3.5" fill="#147c72"/>
<circle cx="237.6" cy="90.4" r="3.5" fill="#147c72"/>
<circle cx="241.7" cy="159.1" r="3.5" fill="#147c72"/>
<circle cx="213.8" cy="294.2" r="3.5" fill="#147c72"/>
<circle cx="195.6" cy="126.9" r="3.5" fill="#147c72"/>
<circle cx="230.3" cy="175.8" r="3.5" fill="#147c72"/>
<circle cx="216.4" cy="231.4" r="3.5" fill="#147c72"/>
<circle cx="217.1" cy="93.5" r="3.5" fill="#147c72"/>
<circle cx="222.7" cy="117.0" r="3.5" fill="#147c72"/>
<circle cx="241.0" cy="114.2" r="3.5" fill="#147c72"/></g>
<g transform="translate(704 210)"><line x1="241.7" y1="156.2" x2="241.0" y2="110.3" stroke="#b84e32" stroke-width="4" stroke-linecap="round"/>
<line x1="241.0" y1="110.3" x2="237.7" y2="86.0" stroke="#b84e32" stroke-width="4" stroke-linecap="round"/>
<line x1="237.7" y1="86.0" x2="242.1" y2="65.0" stroke="#b84e32" stroke-width="4" stroke-linecap="round"/>
<line x1="241.0" y1="110.3" x2="250.9" y2="172.2" stroke="#b84e32" stroke-width="4" stroke-linecap="round"/>
<line x1="250.9" y1="172.2" x2="265.3" y2="231.0" stroke="#b84e32" stroke-width="4" stroke-linecap="round"/>
<line x1="265.3" y1="231.0" x2="265.0" y2="295.0" stroke="#b84e32" stroke-width="4" stroke-linecap="round"/>
<line x1="241.0" y1="110.3" x2="230.7" y2="173.3" stroke="#b84e32" stroke-width="4" stroke-linecap="round"/>
<line x1="230.7" y1="173.3" x2="217.3" y2="230.0" stroke="#b84e32" stroke-width="4" stroke-linecap="round"/>
<line x1="217.3" y1="230.0" x2="214.8" y2="294.2" stroke="#b84e32" stroke-width="4" stroke-linecap="round"/>
<line x1="237.7" y1="86.0" x2="265.1" y2="87.7" stroke="#b84e32" stroke-width="4" stroke-linecap="round"/>
<line x1="265.1" y1="87.7" x2="282.7" y2="131.4" stroke="#b84e32" stroke-width="4" stroke-linecap="round"/>
<line x1="282.7" y1="131.4" x2="256.6" y2="126.3" stroke="#b84e32" stroke-width="4" stroke-linecap="round"/>
<line x1="237.7" y1="86.0" x2="218.1" y2="89.2" stroke="#b84e32" stroke-width="4" stroke-linecap="round"/>
<line x1="218.1" y1="89.2" x2="197.3" y2="133.1" stroke="#b84e32" stroke-width="4" stroke-linecap="round"/>
<line x1="197.3" y1="133.1" x2="221.7" y2="132.9" stroke="#b84e32" stroke-width="4" stroke-linecap="round"/>
<circle cx="242.1" cy="65.0" r="3.5" fill="#b84e32"/>
<circle cx="265.0" cy="295.0" r="3.5" fill="#b84e32"/>
<circle cx="282.7" cy="131.4" r="3.5" fill="#b84e32"/>
<circle cx="250.9" cy="172.2" r="3.5" fill="#b84e32"/>
<circle cx="265.3" cy="231.0" r="3.5" fill="#b84e32"/>
<circle cx="265.1" cy="87.7" r="3.5" fill="#b84e32"/>
<circle cx="256.6" cy="126.3" r="3.5" fill="#b84e32"/>
<circle cx="237.7" cy="86.0" r="3.5" fill="#b84e32"/>
<circle cx="241.7" cy="156.2" r="3.5" fill="#b84e32"/>
<circle cx="214.8" cy="294.2" r="3.5" fill="#b84e32"/>
<circle cx="197.3" cy="133.1" r="3.5" fill="#b84e32"/>
<circle cx="230.7" cy="173.3" r="3.5" fill="#b84e32"/>
<circle cx="217.3" cy="230.0" r="3.5" fill="#b84e32"/>
<circle cx="218.1" cy="89.2" r="3.5" fill="#b84e32"/>
<circle cx="221.7" cy="132.9" r="3.5" fill="#b84e32"/>
<circle cx="241.0" cy="110.3" r="3.5" fill="#b84e32"/></g>
<text x="56" y="684" class="muted">Scoring source: SMPL-X. G1 scoring allowed: false. Feedback passed: False</text>
<text x="696" y="672" class="muted">Routine feedback anchors: opening stance, settled support, raise hands apex</text>
<text x="696" y="696" class="muted">SMPL-X surface layer: SMPL-X surface proxy</text>
</svg>