<svg xmlns="http://www.w3.org/2000/svg" width="1280" height="720" viewBox="0 0 1280 720" role="img">
<style>text{font-family:Inter,Arial,sans-serif}.title{font-size:30px;font-weight:760;fill:#17212b}.muted{font-size:16px;fill:#66717f}.badge{font-size:14px;font-weight:760;fill:#b54708}</style>
<rect width="1280" height="720" fill="#eef2f6"/>
<rect x="32" y="28" width="1216" height="86" rx="8" fill="#ffffff" stroke="#d8e0e8"/>
<text x="56" y="68" class="title">neodojo public fixture demo</text>
<text x="56" y="94" class="muted">SMPL-X teacher + Unitree G1 MuJoCo model replay - frame 147</text>
<text x="1080" y="66" class="badge">REAL ARTIFACT</text>
<rect x="48" y="144" width="560" height="500" rx="8" fill="#ffffff" stroke="#d8e0e8"/>
<rect x="672" y="144" width="560" height="500" rx="8" fill="#ffffff" stroke="#d8e0e8"/>
<text x="72" y="184" class="title">SMPL-X teacher</text>
<text x="696" y="184" class="title">Unitree G1 MuJoCo model replay</text>
<g transform="translate(80 210)"><line x1="246.8" y1="185.0" x2="246.6" y2="145.5" stroke="#147c72" stroke-opacity="0.16" stroke-width="18.9" stroke-linecap="round"/>
<line x1="246.6" y1="145.5" x2="244.2" y2="123.2" stroke="#147c72" stroke-opacity="0.16" stroke-width="17.1" stroke-linecap="round"/>
<line x1="244.2" y1="123.2" x2="248.2" y2="102.8" stroke="#147c72" stroke-opacity="0.16" stroke-width="12.6" stroke-linecap="round"/>
<line x1="246.6" y1="145.5" x2="255.0" y2="198.2" stroke="#147c72" stroke-opacity="0.16" stroke-width="15.3" stroke-linecap="round"/>
<line x1="255.0" y1="198.2" x2="276.4" y2="243.1" stroke="#147c72" stroke-opacity="0.16" stroke-width="10.8" stroke-linecap="round"/>
<line x1="276.4" y1="243.1" x2="285.9" y2="295.0" stroke="#147c72" stroke-opacity="0.16" stroke-width="8.1" stroke-linecap="round"/>
<line x1="246.6" y1="145.5" x2="236.9" y2="198.9" stroke="#147c72" stroke-opacity="0.16" stroke-width="15.3" stroke-linecap="round"/>
<line x1="236.9" y1="198.9" x2="212.6" y2="239.6" stroke="#147c72" stroke-opacity="0.16" stroke-width="10.8" stroke-linecap="round"/>
<line x1="212.6" y1="239.6" x2="194.1" y2="289.7" stroke="#147c72" stroke-opacity="0.16" stroke-width="8.1" stroke-linecap="round"/>
<line x1="244.2" y1="123.2" x2="263.3" y2="119.6" stroke="#147c72" stroke-opacity="0.16" stroke-width="9.9" stroke-linecap="round"/>
<line x1="263.3" y1="119.6" x2="280.1" y2="97.0" stroke="#147c72" stroke-opacity="0.16" stroke-width="8.1" stroke-linecap="round"/>
<line x1="280.1" y1="97.0" x2="278.7" y2="65.0" stroke="#147c72" stroke-opacity="0.16" stroke-width="8.0" stroke-linecap="round"/>
<line x1="244.2" y1="123.2" x2="230.2" y2="122.0" stroke="#147c72" stroke-opacity="0.16" stroke-width="9.9" stroke-linecap="round"/>
<line x1="230.2" y1="122.0" x2="210.0" y2="96.3" stroke="#147c72" stroke-opacity="0.16" stroke-width="8.1" stroke-linecap="round"/>
<line x1="210.0" y1="96.3" x2="203.4" y2="66.0" stroke="#147c72" stroke-opacity="0.16" stroke-width="8.0" stroke-linecap="round"/><line x1="246.8" y1="185.0" x2="246.6" y2="145.5" stroke="#147c72" stroke-width="4" stroke-linecap="round"/>
<line x1="246.6" y1="145.5" x2="244.2" y2="123.2" stroke="#147c72" stroke-width="4" stroke-linecap="round"/>
<line x1="244.2" y1="123.2" x2="248.2" y2="102.8" stroke="#147c72" stroke-width="4" stroke-linecap="round"/>
<line x1="246.6" y1="145.5" x2="255.0" y2="198.2" stroke="#147c72" stroke-width="4" stroke-linecap="round"/>
<line x1="255.0" y1="198.2" x2="276.4" y2="243.1" stroke="#147c72" stroke-width="4" stroke-linecap="round"/>
<line x1="276.4" y1="243.1" x2="285.9" y2="295.0" stroke="#147c72" stroke-width="4" stroke-linecap="round"/>
<line x1="246.6" y1="145.5" x2="236.9" y2="198.9" stroke="#147c72" stroke-width="4" stroke-linecap="round"/>
<line x1="236.9" y1="198.9" x2="212.6" y2="239.6" stroke="#147c72" stroke-width="4" stroke-linecap="round"/>
<line x1="212.6" y1="239.6" x2="194.1" y2="289.7" stroke="#147c72" stroke-width="4" stroke-linecap="round"/>
<line x1="244.2" y1="123.2" x2="263.3" y2="119.6" stroke="#147c72" stroke-width="4" stroke-linecap="round"/>
<line x1="263.3" y1="119.6" x2="280.1" y2="97.0" stroke="#147c72" stroke-width="4" stroke-linecap="round"/>
<line x1="280.1" y1="97.0" x2="278.7" y2="65.0" stroke="#147c72" stroke-width="4" stroke-linecap="round"/>
<line x1="244.2" y1="123.2" x2="230.2" y2="122.0" stroke="#147c72" stroke-width="4" stroke-linecap="round"/>
<line x1="230.2" y1="122.0" x2="210.0" y2="96.3" stroke="#147c72" stroke-width="4" stroke-linecap="round"/>
<line x1="210.0" y1="96.3" x2="203.4" y2="66.0" stroke="#147c72" stroke-width="4" stroke-linecap="round"/>
<circle cx="248.2" cy="102.8" r="3.5" fill="#147c72"/>
<circle cx="285.9" cy="295.0" r="3.5" fill="#147c72"/>
<circle cx="280.1" cy="97.0" r="3.5" fill="#147c72"/>
<circle cx="255.0" cy="198.2" r="3.5" fill="#147c72"/>
<circle cx="276.4" cy="243.1" r="3.5" fill="#147c72"/>
<circle cx="263.3" cy="119.6" r="3.5" fill="#147c72"/>
<circle cx="278.7" cy="65.0" r="3.5" fill="#147c72"/>
<circle cx="244.2" cy="123.2" r="3.5" fill="#147c72"/>
<circle cx="246.8" cy="185.0" r="3.5" fill="#147c72"/>
<circle cx="194.1" cy="289.7" r="3.5" fill="#147c72"/>
<circle cx="210.0" cy="96.3" r="3.5" fill="#147c72"/>
<circle cx="236.9" cy="198.9" r="3.5" fill="#147c72"/>
<circle cx="212.6" cy="239.6" r="3.5" fill="#147c72"/>
<circle cx="230.2" cy="122.0" r="3.5" fill="#147c72"/>
<circle cx="203.4" cy="66.0" r="3.5" fill="#147c72"/>
<circle cx="246.6" cy="145.5" r="3.5" fill="#147c72"/></g>
<g transform="translate(704 210)"><line x1="246.9" y1="176.8" x2="246.6" y2="134.3" stroke="#b84e32" stroke-width="4" stroke-linecap="round"/>
<line x1="246.6" y1="134.3" x2="244.2" y2="110.4" stroke="#b84e32" stroke-width="4" stroke-linecap="round"/>
<line x1="244.2" y1="110.4" x2="248.3" y2="92.8" stroke="#b84e32" stroke-width="4" stroke-linecap="round"/>
<line x1="246.6" y1="134.3" x2="255.1" y2="191.0" stroke="#b84e32" stroke-width="4" stroke-linecap="round"/>
<line x1="255.1" y1="191.0" x2="276.8" y2="239.2" stroke="#b84e32" stroke-width="4" stroke-linecap="round"/>
<line x1="276.8" y1="239.2" x2="286.4" y2="295.0" stroke="#b84e32" stroke-width="4" stroke-linecap="round"/>
<line x1="246.6" y1="134.3" x2="236.9" y2="191.8" stroke="#b84e32" stroke-width="4" stroke-linecap="round"/>
<line x1="236.9" y1="191.8" x2="212.3" y2="235.5" stroke="#b84e32" stroke-width="4" stroke-linecap="round"/>
<line x1="212.3" y1="235.5" x2="193.6" y2="289.3" stroke="#b84e32" stroke-width="4" stroke-linecap="round"/>
<line x1="244.2" y1="110.4" x2="263.5" y2="106.5" stroke="#b84e32" stroke-width="4" stroke-linecap="round"/>
<line x1="263.5" y1="106.5" x2="280.5" y2="90.8" stroke="#b84e32" stroke-width="4" stroke-linecap="round"/>
<line x1="280.5" y1="90.8" x2="283.5" y2="65.0" stroke="#b84e32" stroke-width="4" stroke-linecap="round"/>
<line x1="244.2" y1="110.4" x2="230.1" y2="109.2" stroke="#b84e32" stroke-width="4" stroke-linecap="round"/>
<line x1="230.1" y1="109.2" x2="209.7" y2="90.1" stroke="#b84e32" stroke-width="4" stroke-linecap="round"/>
<line x1="209.7" y1="90.1" x2="201.3" y2="66.1" stroke="#b84e32" stroke-width="4" stroke-linecap="round"/>
<circle cx="248.3" cy="92.8" r="3.5" fill="#b84e32"/>
<circle cx="286.4" cy="295.0" r="3.5" fill="#b84e32"/>
<circle cx="280.5" cy="90.8" r="3.5" fill="#b84e32"/>
<circle cx="255.1" cy="191.0" r="3.5" fill="#b84e32"/>
<circle cx="276.8" cy="239.2" r="3.5" fill="#b84e32"/>
<circle cx="263.5" cy="106.5" r="3.5" fill="#b84e32"/>
<circle cx="283.5" cy="65.0" r="3.5" fill="#b84e32"/>
<circle cx="244.2" cy="110.4" r="3.5" fill="#b84e32"/>
<circle cx="246.9" cy="176.8" r="3.5" fill="#b84e32"/>
<circle cx="193.6" cy="289.3" r="3.5" fill="#b84e32"/>
<circle cx="209.7" cy="90.1" r="3.5" fill="#b84e32"/>
<circle cx="236.9" cy="191.8" r="3.5" fill="#b84e32"/>
<circle cx="212.3" cy="235.5" r="3.5" fill="#b84e32"/>
<circle cx="230.1" cy="109.2" r="3.5" fill="#b84e32"/>
<circle cx="201.3" cy="66.1" r="3.5" fill="#b84e32"/>
<circle cx="246.6" cy="134.3" r="3.5" fill="#b84e32"/></g>
<text x="56" y="684" class="muted">Scoring source: SMPL-X. G1 scoring allowed: false. Feedback passed: False</text>
<text x="696" y="672" class="muted">Routine feedback anchors: opening stance, settled support, raise hands apex</text>
<text x="696" y="696" class="muted">SMPL-X surface layer: SMPL-X surface proxy</text>
</svg>