<svg xmlns="http://www.w3.org/2000/svg" width="1280" height="720" viewBox="0 0 1280 720" role="img">
<style>text{font-family:Inter,Arial,sans-serif}.title{font-size:30px;font-weight:760;fill:#17212b}.muted{font-size:16px;fill:#66717f}.badge{font-size:14px;font-weight:760;fill:#b54708}</style>
<rect width="1280" height="720" fill="#eef2f6"/>
<rect x="32" y="28" width="1216" height="86" rx="8" fill="#ffffff" stroke="#d8e0e8"/>
<text x="56" y="68" class="title">neodojo public fixture demo</text>
<text x="56" y="94" class="muted">SMPL-X teacher + Unitree G1 MuJoCo model replay - frame 130</text>
<text x="1080" y="66" class="badge">REAL ARTIFACT</text>
<rect x="48" y="144" width="560" height="500" rx="8" fill="#ffffff" stroke="#d8e0e8"/>
<rect x="672" y="144" width="560" height="500" rx="8" fill="#ffffff" stroke="#d8e0e8"/>
<text x="72" y="184" class="title">SMPL-X teacher</text>
<text x="696" y="184" class="title">Unitree G1 MuJoCo model replay</text>
<g transform="translate(80 210)"><line x1="240.6" y1="178.1" x2="238.7" y2="136.6" stroke="#147c72" stroke-opacity="0.16" stroke-width="18.9" stroke-linecap="round"/>
<line x1="238.7" y1="136.6" x2="235.9" y2="113.1" stroke="#147c72" stroke-opacity="0.16" stroke-width="17.1" stroke-linecap="round"/>
<line x1="235.9" y1="113.1" x2="241.1" y2="91.1" stroke="#147c72" stroke-opacity="0.16" stroke-width="12.6" stroke-linecap="round"/>
<line x1="238.7" y1="136.6" x2="250.1" y2="191.7" stroke="#147c72" stroke-opacity="0.16" stroke-width="15.3" stroke-linecap="round"/>
<line x1="250.1" y1="191.7" x2="264.6" y2="240.7" stroke="#147c72" stroke-opacity="0.16" stroke-width="10.8" stroke-linecap="round"/>
<line x1="264.6" y1="240.7" x2="262.9" y2="293.9" stroke="#147c72" stroke-opacity="0.16" stroke-width="8.1" stroke-linecap="round"/>
<line x1="238.7" y1="136.6" x2="230.7" y2="193.6" stroke="#147c72" stroke-opacity="0.16" stroke-width="15.3" stroke-linecap="round"/>
<line x1="230.7" y1="193.6" x2="219.7" y2="241.0" stroke="#147c72" stroke-opacity="0.16" stroke-width="10.8" stroke-linecap="round"/>
<line x1="219.7" y1="241.0" x2="215.7" y2="295.0" stroke="#147c72" stroke-opacity="0.16" stroke-width="8.1" stroke-linecap="round"/>
<line x1="235.9" y1="113.1" x2="261.2" y2="112.8" stroke="#147c72" stroke-opacity="0.16" stroke-width="9.9" stroke-linecap="round"/>
<line x1="261.2" y1="112.8" x2="295.3" y2="100.7" stroke="#147c72" stroke-opacity="0.16" stroke-width="8.1" stroke-linecap="round"/>
<line x1="295.3" y1="100.7" x2="303.0" y2="67.4" stroke="#147c72" stroke-opacity="0.16" stroke-width="8.0" stroke-linecap="round"/>
<line x1="235.9" y1="113.1" x2="217.5" y2="114.0" stroke="#147c72" stroke-opacity="0.16" stroke-width="9.9" stroke-linecap="round"/>
<line x1="217.5" y1="114.0" x2="183.3" y2="98.4" stroke="#147c72" stroke-opacity="0.16" stroke-width="8.1" stroke-linecap="round"/>
<line x1="183.3" y1="98.4" x2="177.0" y2="65.0" stroke="#147c72" stroke-opacity="0.16" stroke-width="8.0" stroke-linecap="round"/><line x1="240.6" y1="178.1" x2="238.7" y2="136.6" stroke="#147c72" stroke-width="4" stroke-linecap="round"/>
<line x1="238.7" y1="136.6" x2="235.9" y2="113.1" stroke="#147c72" stroke-width="4" stroke-linecap="round"/>
<line x1="235.9" y1="113.1" x2="241.1" y2="91.1" stroke="#147c72" stroke-width="4" stroke-linecap="round"/>
<line x1="238.7" y1="136.6" x2="250.1" y2="191.7" stroke="#147c72" stroke-width="4" stroke-linecap="round"/>
<line x1="250.1" y1="191.7" x2="264.6" y2="240.7" stroke="#147c72" stroke-width="4" stroke-linecap="round"/>
<line x1="264.6" y1="240.7" x2="262.9" y2="293.9" stroke="#147c72" stroke-width="4" stroke-linecap="round"/>
<line x1="238.7" y1="136.6" x2="230.7" y2="193.6" stroke="#147c72" stroke-width="4" stroke-linecap="round"/>
<line x1="230.7" y1="193.6" x2="219.7" y2="241.0" stroke="#147c72" stroke-width="4" stroke-linecap="round"/>
<line x1="219.7" y1="241.0" x2="215.7" y2="295.0" stroke="#147c72" stroke-width="4" stroke-linecap="round"/>
<line x1="235.9" y1="113.1" x2="261.2" y2="112.8" stroke="#147c72" stroke-width="4" stroke-linecap="round"/>
<line x1="261.2" y1="112.8" x2="295.3" y2="100.7" stroke="#147c72" stroke-width="4" stroke-linecap="round"/>
<line x1="295.3" y1="100.7" x2="303.0" y2="67.4" stroke="#147c72" stroke-width="4" stroke-linecap="round"/>
<line x1="235.9" y1="113.1" x2="217.5" y2="114.0" stroke="#147c72" stroke-width="4" stroke-linecap="round"/>
<line x1="217.5" y1="114.0" x2="183.3" y2="98.4" stroke="#147c72" stroke-width="4" stroke-linecap="round"/>
<line x1="183.3" y1="98.4" x2="177.0" y2="65.0" stroke="#147c72" stroke-width="4" stroke-linecap="round"/>
<circle cx="241.1" cy="91.1" r="3.5" fill="#147c72"/>
<circle cx="262.9" cy="293.9" r="3.5" fill="#147c72"/>
<circle cx="295.3" cy="100.7" r="3.5" fill="#147c72"/>
<circle cx="250.1" cy="191.7" r="3.5" fill="#147c72"/>
<circle cx="264.6" cy="240.7" r="3.5" fill="#147c72"/>
<circle cx="261.2" cy="112.8" r="3.5" fill="#147c72"/>
<circle cx="303.0" cy="67.4" r="3.5" fill="#147c72"/>
<circle cx="235.9" cy="113.1" r="3.5" fill="#147c72"/>
<circle cx="240.6" cy="178.1" r="3.5" fill="#147c72"/>
<circle cx="215.7" cy="295.0" r="3.5" fill="#147c72"/>
<circle cx="183.3" cy="98.4" r="3.5" fill="#147c72"/>
<circle cx="230.7" cy="193.6" r="3.5" fill="#147c72"/>
<circle cx="219.7" cy="241.0" r="3.5" fill="#147c72"/>
<circle cx="217.5" cy="114.0" r="3.5" fill="#147c72"/>
<circle cx="177.0" cy="65.0" r="3.5" fill="#147c72"/>
<circle cx="238.7" cy="136.6" r="3.5" fill="#147c72"/></g>
<g transform="translate(704 210)"><line x1="240.8" y1="168.7" x2="238.9" y2="123.8" stroke="#b84e32" stroke-width="4" stroke-linecap="round"/>
<line x1="238.9" y1="123.8" x2="236.1" y2="98.5" stroke="#b84e32" stroke-width="4" stroke-linecap="round"/>
<line x1="236.1" y1="98.5" x2="241.4" y2="79.4" stroke="#b84e32" stroke-width="4" stroke-linecap="round"/>
<line x1="238.9" y1="123.8" x2="250.5" y2="183.4" stroke="#b84e32" stroke-width="4" stroke-linecap="round"/>
<line x1="250.5" y1="183.4" x2="265.2" y2="236.3" stroke="#b84e32" stroke-width="4" stroke-linecap="round"/>
<line x1="265.2" y1="236.3" x2="263.5" y2="293.8" stroke="#b84e32" stroke-width="4" stroke-linecap="round"/>
<line x1="238.9" y1="123.8" x2="230.8" y2="185.5" stroke="#b84e32" stroke-width="4" stroke-linecap="round"/>
<line x1="230.8" y1="185.5" x2="219.7" y2="236.7" stroke="#b84e32" stroke-width="4" stroke-linecap="round"/>
<line x1="219.7" y1="236.7" x2="215.6" y2="295.0" stroke="#b84e32" stroke-width="4" stroke-linecap="round"/>
<line x1="236.1" y1="98.5" x2="261.7" y2="98.1" stroke="#b84e32" stroke-width="4" stroke-linecap="round"/>
<line x1="261.7" y1="98.1" x2="296.4" y2="94.4" stroke="#b84e32" stroke-width="4" stroke-linecap="round"/>
<line x1="296.4" y1="94.4" x2="309.1" y2="67.6" stroke="#b84e32" stroke-width="4" stroke-linecap="round"/>
<line x1="236.1" y1="98.5" x2="217.3" y2="99.4" stroke="#b84e32" stroke-width="4" stroke-linecap="round"/>
<line x1="217.3" y1="99.4" x2="182.7" y2="91.9" stroke="#b84e32" stroke-width="4" stroke-linecap="round"/>
<line x1="182.7" y1="91.9" x2="170.9" y2="65.0" stroke="#b84e32" stroke-width="4" stroke-linecap="round"/>
<circle cx="241.4" cy="79.4" r="3.5" fill="#b84e32"/>
<circle cx="263.5" cy="293.8" r="3.5" fill="#b84e32"/>
<circle cx="296.4" cy="94.4" r="3.5" fill="#b84e32"/>
<circle cx="250.5" cy="183.4" r="3.5" fill="#b84e32"/>
<circle cx="265.2" cy="236.3" r="3.5" fill="#b84e32"/>
<circle cx="261.7" cy="98.1" r="3.5" fill="#b84e32"/>
<circle cx="309.1" cy="67.6" r="3.5" fill="#b84e32"/>
<circle cx="236.1" cy="98.5" r="3.5" fill="#b84e32"/>
<circle cx="240.8" cy="168.7" r="3.5" fill="#b84e32"/>
<circle cx="215.6" cy="295.0" r="3.5" fill="#b84e32"/>
<circle cx="182.7" cy="91.9" r="3.5" fill="#b84e32"/>
<circle cx="230.8" cy="185.5" r="3.5" fill="#b84e32"/>
<circle cx="219.7" cy="236.7" r="3.5" fill="#b84e32"/>
<circle cx="217.3" cy="99.4" r="3.5" fill="#b84e32"/>
<circle cx="170.9" cy="65.0" r="3.5" fill="#b84e32"/>
<circle cx="238.9" cy="123.8" r="3.5" fill="#b84e32"/></g>
<text x="56" y="684" class="muted">Scoring source: SMPL-X. G1 scoring allowed: false. Feedback passed: False</text>
<text x="696" y="672" class="muted">Routine feedback anchors: opening stance, settled support, raise hands apex</text>
<text x="696" y="696" class="muted">SMPL-X surface layer: SMPL-X surface proxy</text>
</svg>