<svg xmlns="http://www.w3.org/2000/svg" width="1280" height="720" viewBox="0 0 1280 720" role="img">
<style>text{font-family:Inter,Arial,sans-serif}.title{font-size:30px;font-weight:760;fill:#17212b}.muted{font-size:16px;fill:#66717f}.badge{font-size:14px;font-weight:760;fill:#b54708}</style>
<rect width="1280" height="720" fill="#eef2f6"/>
<rect x="32" y="28" width="1216" height="86" rx="8" fill="#ffffff" stroke="#d8e0e8"/>
<text x="56" y="68" class="title">neodojo public fixture demo</text>
<text x="56" y="94" class="muted">SMPL-X teacher + Unitree G1 MuJoCo model replay - frame 104</text>
<text x="1080" y="66" class="badge">REAL ARTIFACT</text>
<rect x="48" y="144" width="560" height="500" rx="8" fill="#ffffff" stroke="#d8e0e8"/>
<rect x="672" y="144" width="560" height="500" rx="8" fill="#ffffff" stroke="#d8e0e8"/>
<text x="72" y="184" class="title">SMPL-X teacher</text>
<text x="696" y="184" class="title">Unitree G1 MuJoCo model replay</text>
<g transform="translate(80 210)"><line x1="249.8" y1="179.6" x2="252.5" y2="142.9" stroke="#147c72" stroke-opacity="0.16" stroke-width="18.9" stroke-linecap="round"/>
<line x1="252.5" y1="142.9" x2="249.3" y2="121.7" stroke="#147c72" stroke-opacity="0.16" stroke-width="17.1" stroke-linecap="round"/>
<line x1="249.3" y1="121.7" x2="251.6" y2="99.7" stroke="#147c72" stroke-opacity="0.16" stroke-width="12.6" stroke-linecap="round"/>
<line x1="252.5" y1="142.9" x2="256.0" y2="193.9" stroke="#147c72" stroke-opacity="0.16" stroke-width="15.3" stroke-linecap="round"/>
<line x1="256.0" y1="193.9" x2="262.2" y2="244.1" stroke="#147c72" stroke-opacity="0.16" stroke-width="10.8" stroke-linecap="round"/>
<line x1="262.2" y1="244.1" x2="254.8" y2="295.0" stroke="#147c72" stroke-opacity="0.16" stroke-width="8.1" stroke-linecap="round"/>
<line x1="252.5" y1="142.9" x2="238.4" y2="192.2" stroke="#147c72" stroke-opacity="0.16" stroke-width="15.3" stroke-linecap="round"/>
<line x1="238.4" y1="192.2" x2="214.8" y2="217.7" stroke="#147c72" stroke-opacity="0.16" stroke-width="10.8" stroke-linecap="round"/>
<line x1="214.8" y1="217.7" x2="198.4" y2="247.5" stroke="#147c72" stroke-opacity="0.16" stroke-width="8.1" stroke-linecap="round"/>
<line x1="249.3" y1="121.7" x2="269.9" y2="117.0" stroke="#147c72" stroke-opacity="0.16" stroke-width="9.9" stroke-linecap="round"/>
<line x1="269.9" y1="117.0" x2="281.6" y2="97.9" stroke="#147c72" stroke-opacity="0.16" stroke-width="8.1" stroke-linecap="round"/>
<line x1="281.6" y1="97.9" x2="278.8" y2="65.0" stroke="#147c72" stroke-opacity="0.16" stroke-width="8.0" stroke-linecap="round"/>
<line x1="249.3" y1="121.7" x2="233.6" y2="121.2" stroke="#147c72" stroke-opacity="0.16" stroke-width="9.9" stroke-linecap="round"/>
<line x1="233.6" y1="121.2" x2="214.6" y2="100.0" stroke="#147c72" stroke-opacity="0.16" stroke-width="8.1" stroke-linecap="round"/>
<line x1="214.6" y1="100.0" x2="205.2" y2="72.0" stroke="#147c72" stroke-opacity="0.16" stroke-width="8.0" stroke-linecap="round"/><line x1="249.8" y1="179.6" x2="252.5" y2="142.9" stroke="#147c72" stroke-width="4" stroke-linecap="round"/>
<line x1="252.5" y1="142.9" x2="249.3" y2="121.7" stroke="#147c72" stroke-width="4" stroke-linecap="round"/>
<line x1="249.3" y1="121.7" x2="251.6" y2="99.7" stroke="#147c72" stroke-width="4" stroke-linecap="round"/>
<line x1="252.5" y1="142.9" x2="256.0" y2="193.9" stroke="#147c72" stroke-width="4" stroke-linecap="round"/>
<line x1="256.0" y1="193.9" x2="262.2" y2="244.1" stroke="#147c72" stroke-width="4" stroke-linecap="round"/>
<line x1="262.2" y1="244.1" x2="254.8" y2="295.0" stroke="#147c72" stroke-width="4" stroke-linecap="round"/>
<line x1="252.5" y1="142.9" x2="238.4" y2="192.2" stroke="#147c72" stroke-width="4" stroke-linecap="round"/>
<line x1="238.4" y1="192.2" x2="214.8" y2="217.7" stroke="#147c72" stroke-width="4" stroke-linecap="round"/>
<line x1="214.8" y1="217.7" x2="198.4" y2="247.5" stroke="#147c72" stroke-width="4" stroke-linecap="round"/>
<line x1="249.3" y1="121.7" x2="269.9" y2="117.0" stroke="#147c72" stroke-width="4" stroke-linecap="round"/>
<line x1="269.9" y1="117.0" x2="281.6" y2="97.9" stroke="#147c72" stroke-width="4" stroke-linecap="round"/>
<line x1="281.6" y1="97.9" x2="278.8" y2="65.0" stroke="#147c72" stroke-width="4" stroke-linecap="round"/>
<line x1="249.3" y1="121.7" x2="233.6" y2="121.2" stroke="#147c72" stroke-width="4" stroke-linecap="round"/>
<line x1="233.6" y1="121.2" x2="214.6" y2="100.0" stroke="#147c72" stroke-width="4" stroke-linecap="round"/>
<line x1="214.6" y1="100.0" x2="205.2" y2="72.0" stroke="#147c72" stroke-width="4" stroke-linecap="round"/>
<circle cx="251.6" cy="99.7" r="3.5" fill="#147c72"/>
<circle cx="254.8" cy="295.0" r="3.5" fill="#147c72"/>
<circle cx="281.6" cy="97.9" r="3.5" fill="#147c72"/>
<circle cx="256.0" cy="193.9" r="3.5" fill="#147c72"/>
<circle cx="262.2" cy="244.1" r="3.5" fill="#147c72"/>
<circle cx="269.9" cy="117.0" r="3.5" fill="#147c72"/>
<circle cx="278.8" cy="65.0" r="3.5" fill="#147c72"/>
<circle cx="249.3" cy="121.7" r="3.5" fill="#147c72"/>
<circle cx="249.8" cy="179.6" r="3.5" fill="#147c72"/>
<circle cx="198.4" cy="247.5" r="3.5" fill="#147c72"/>
<circle cx="214.6" cy="100.0" r="3.5" fill="#147c72"/>
<circle cx="238.4" cy="192.2" r="3.5" fill="#147c72"/>
<circle cx="214.8" cy="217.7" r="3.5" fill="#147c72"/>
<circle cx="233.6" cy="121.2" r="3.5" fill="#147c72"/>
<circle cx="205.2" cy="72.0" r="3.5" fill="#147c72"/>
<circle cx="252.5" cy="142.9" r="3.5" fill="#147c72"/></g>
<g transform="translate(704 210)"><line x1="249.1" y1="170.9" x2="251.9" y2="131.3" stroke="#b84e32" stroke-width="4" stroke-linecap="round"/>
<line x1="251.9" y1="131.3" x2="248.5" y2="108.6" stroke="#b84e32" stroke-width="4" stroke-linecap="round"/>
<line x1="248.5" y1="108.6" x2="250.9" y2="89.3" stroke="#b84e32" stroke-width="4" stroke-linecap="round"/>
<line x1="251.9" y1="131.3" x2="255.3" y2="186.2" stroke="#b84e32" stroke-width="4" stroke-linecap="round"/>
<line x1="255.3" y1="186.2" x2="261.6" y2="240.2" stroke="#b84e32" stroke-width="4" stroke-linecap="round"/>
<line x1="261.6" y1="240.2" x2="254.1" y2="295.0" stroke="#b84e32" stroke-width="4" stroke-linecap="round"/>
<line x1="251.9" y1="131.3" x2="237.6" y2="184.4" stroke="#b84e32" stroke-width="4" stroke-linecap="round"/>
<line x1="237.6" y1="184.4" x2="213.7" y2="211.9" stroke="#b84e32" stroke-width="4" stroke-linecap="round"/>
<line x1="213.7" y1="211.9" x2="197.1" y2="243.9" stroke="#b84e32" stroke-width="4" stroke-linecap="round"/>
<line x1="248.5" y1="108.6" x2="269.5" y2="103.5" stroke="#b84e32" stroke-width="4" stroke-linecap="round"/>
<line x1="269.5" y1="103.5" x2="281.3" y2="91.7" stroke="#b84e32" stroke-width="4" stroke-linecap="round"/>
<line x1="281.3" y1="91.7" x2="282.9" y2="65.0" stroke="#b84e32" stroke-width="4" stroke-linecap="round"/>
<line x1="248.5" y1="108.6" x2="232.7" y2="108.0" stroke="#b84e32" stroke-width="4" stroke-linecap="round"/>
<line x1="232.7" y1="108.0" x2="213.5" y2="93.9" stroke="#b84e32" stroke-width="4" stroke-linecap="round"/>
<line x1="213.5" y1="93.9" x2="202.6" y2="72.5" stroke="#b84e32" stroke-width="4" stroke-linecap="round"/>
<circle cx="250.9" cy="89.3" r="3.5" fill="#b84e32"/>
<circle cx="254.1" cy="295.0" r="3.5" fill="#b84e32"/>
<circle cx="281.3" cy="91.7" r="3.5" fill="#b84e32"/>
<circle cx="255.3" cy="186.2" r="3.5" fill="#b84e32"/>
<circle cx="261.6" cy="240.2" r="3.5" fill="#b84e32"/>
<circle cx="269.5" cy="103.5" r="3.5" fill="#b84e32"/>
<circle cx="282.9" cy="65.0" r="3.5" fill="#b84e32"/>
<circle cx="248.5" cy="108.6" r="3.5" fill="#b84e32"/>
<circle cx="249.1" cy="170.9" r="3.5" fill="#b84e32"/>
<circle cx="197.1" cy="243.9" r="3.5" fill="#b84e32"/>
<circle cx="213.5" cy="93.9" r="3.5" fill="#b84e32"/>
<circle cx="237.6" cy="184.4" r="3.5" fill="#b84e32"/>
<circle cx="213.7" cy="211.9" r="3.5" fill="#b84e32"/>
<circle cx="232.7" cy="108.0" r="3.5" fill="#b84e32"/>
<circle cx="202.6" cy="72.5" r="3.5" fill="#b84e32"/>
<circle cx="251.9" cy="131.3" r="3.5" fill="#b84e32"/></g>
<text x="56" y="684" class="muted">Scoring source: SMPL-X. G1 scoring allowed: false. Feedback passed: False</text>
<text x="696" y="672" class="muted">Routine feedback anchors: opening stance, settled support, raise hands apex</text>
<text x="696" y="696" class="muted">SMPL-X surface layer: SMPL-X surface proxy</text>
</svg>