<svg xmlns="http://www.w3.org/2000/svg" width="1280" height="720" viewBox="0 0 1280 720" role="img">
<style>text{font-family:Inter,Arial,sans-serif}.title{font-size:30px;font-weight:760;fill:#17212b}.muted{font-size:16px;fill:#66717f}.badge{font-size:14px;font-weight:760;fill:#b54708}</style>
<rect width="1280" height="720" fill="#eef2f6"/>
<rect x="32" y="28" width="1216" height="86" rx="8" fill="#ffffff" stroke="#d8e0e8"/>
<text x="56" y="68" class="title">neodojo public fixture demo</text>
<text x="56" y="94" class="muted">SMPL-X teacher + Unitree G1 MuJoCo model replay - frame 15</text>
<text x="1080" y="66" class="badge">REAL ARTIFACT</text>
<rect x="48" y="144" width="560" height="500" rx="8" fill="#ffffff" stroke="#d8e0e8"/>
<rect x="672" y="144" width="560" height="500" rx="8" fill="#ffffff" stroke="#d8e0e8"/>
<text x="72" y="184" class="title">SMPL-X teacher</text>
<text x="696" y="184" class="title">Unitree G1 MuJoCo model replay</text>
<g transform="translate(80 210)"><line x1="247.4" y1="174.8" x2="248.1" y2="135.0" stroke="#147c72" stroke-opacity="0.16" stroke-width="18.9" stroke-linecap="round"/>
<line x1="248.1" y1="135.0" x2="253.9" y2="110.9" stroke="#147c72" stroke-opacity="0.16" stroke-width="17.1" stroke-linecap="round"/>
<line x1="253.9" y1="110.9" x2="247.9" y2="89.1" stroke="#147c72" stroke-opacity="0.16" stroke-width="12.6" stroke-linecap="round"/>
<line x1="248.1" y1="135.0" x2="251.6" y2="190.3" stroke="#147c72" stroke-opacity="0.16" stroke-width="15.3" stroke-linecap="round"/>
<line x1="251.6" y1="190.3" x2="260.0" y2="242.5" stroke="#147c72" stroke-opacity="0.16" stroke-width="10.8" stroke-linecap="round"/>
<line x1="260.0" y1="242.5" x2="278.2" y2="295.0" stroke="#147c72" stroke-opacity="0.16" stroke-width="8.1" stroke-linecap="round"/>
<line x1="248.1" y1="135.0" x2="244.7" y2="188.4" stroke="#147c72" stroke-opacity="0.16" stroke-width="15.3" stroke-linecap="round"/>
<line x1="244.7" y1="188.4" x2="201.8" y2="215.8" stroke="#147c72" stroke-opacity="0.16" stroke-width="10.8" stroke-linecap="round"/>
<line x1="201.8" y1="215.8" x2="204.8" y2="272.8" stroke="#147c72" stroke-opacity="0.16" stroke-width="8.1" stroke-linecap="round"/>
<line x1="253.9" y1="110.9" x2="251.8" y2="109.5" stroke="#147c72" stroke-opacity="0.16" stroke-width="9.9" stroke-linecap="round"/>
<line x1="251.8" y1="109.5" x2="222.2" y2="102.2" stroke="#147c72" stroke-opacity="0.16" stroke-width="8.1" stroke-linecap="round"/>
<line x1="222.2" y1="102.2" x2="218.7" y2="69.7" stroke="#147c72" stroke-opacity="0.16" stroke-width="8.0" stroke-linecap="round"/>
<line x1="253.9" y1="110.9" x2="250.6" y2="109.5" stroke="#147c72" stroke-opacity="0.16" stroke-width="9.9" stroke-linecap="round"/>
<line x1="250.6" y1="109.5" x2="229.5" y2="95.7" stroke="#147c72" stroke-opacity="0.16" stroke-width="8.1" stroke-linecap="round"/>
<line x1="229.5" y1="95.7" x2="217.1" y2="65.0" stroke="#147c72" stroke-opacity="0.16" stroke-width="8.0" stroke-linecap="round"/><line x1="247.4" y1="174.8" x2="248.1" y2="135.0" stroke="#147c72" stroke-width="4" stroke-linecap="round"/>
<line x1="248.1" y1="135.0" x2="253.9" y2="110.9" stroke="#147c72" stroke-width="4" stroke-linecap="round"/>
<line x1="253.9" y1="110.9" x2="247.9" y2="89.1" stroke="#147c72" stroke-width="4" stroke-linecap="round"/>
<line x1="248.1" y1="135.0" x2="251.6" y2="190.3" stroke="#147c72" stroke-width="4" stroke-linecap="round"/>
<line x1="251.6" y1="190.3" x2="260.0" y2="242.5" stroke="#147c72" stroke-width="4" stroke-linecap="round"/>
<line x1="260.0" y1="242.5" x2="278.2" y2="295.0" stroke="#147c72" stroke-width="4" stroke-linecap="round"/>
<line x1="248.1" y1="135.0" x2="244.7" y2="188.4" stroke="#147c72" stroke-width="4" stroke-linecap="round"/>
<line x1="244.7" y1="188.4" x2="201.8" y2="215.8" stroke="#147c72" stroke-width="4" stroke-linecap="round"/>
<line x1="201.8" y1="215.8" x2="204.8" y2="272.8" stroke="#147c72" stroke-width="4" stroke-linecap="round"/>
<line x1="253.9" y1="110.9" x2="251.8" y2="109.5" stroke="#147c72" stroke-width="4" stroke-linecap="round"/>
<line x1="251.8" y1="109.5" x2="222.2" y2="102.2" stroke="#147c72" stroke-width="4" stroke-linecap="round"/>
<line x1="222.2" y1="102.2" x2="218.7" y2="69.7" stroke="#147c72" stroke-width="4" stroke-linecap="round"/>
<line x1="253.9" y1="110.9" x2="250.6" y2="109.5" stroke="#147c72" stroke-width="4" stroke-linecap="round"/>
<line x1="250.6" y1="109.5" x2="229.5" y2="95.7" stroke="#147c72" stroke-width="4" stroke-linecap="round"/>
<line x1="229.5" y1="95.7" x2="217.1" y2="65.0" stroke="#147c72" stroke-width="4" stroke-linecap="round"/>
<circle cx="247.9" cy="89.1" r="3.5" fill="#147c72"/>
<circle cx="278.2" cy="295.0" r="3.5" fill="#147c72"/>
<circle cx="222.2" cy="102.2" r="3.5" fill="#147c72"/>
<circle cx="251.6" cy="190.3" r="3.5" fill="#147c72"/>
<circle cx="260.0" cy="242.5" r="3.5" fill="#147c72"/>
<circle cx="251.8" cy="109.5" r="3.5" fill="#147c72"/>
<circle cx="218.7" cy="69.7" r="3.5" fill="#147c72"/>
<circle cx="253.9" cy="110.9" r="3.5" fill="#147c72"/>
<circle cx="247.4" cy="174.8" r="3.5" fill="#147c72"/>
<circle cx="204.8" cy="272.8" r="3.5" fill="#147c72"/>
<circle cx="229.5" cy="95.7" r="3.5" fill="#147c72"/>
<circle cx="244.7" cy="188.4" r="3.5" fill="#147c72"/>
<circle cx="201.8" cy="215.8" r="3.5" fill="#147c72"/>
<circle cx="250.6" cy="109.5" r="3.5" fill="#147c72"/>
<circle cx="217.1" cy="65.0" r="3.5" fill="#147c72"/>
<circle cx="248.1" cy="135.0" r="3.5" fill="#147c72"/></g>
<g transform="translate(704 210)"><line x1="247.6" y1="165.0" x2="248.2" y2="121.9" stroke="#b84e32" stroke-width="4" stroke-linecap="round"/>
<line x1="248.2" y1="121.9" x2="254.1" y2="95.9" stroke="#b84e32" stroke-width="4" stroke-linecap="round"/>
<line x1="254.1" y1="95.9" x2="248.0" y2="77.0" stroke="#b84e32" stroke-width="4" stroke-linecap="round"/>
<line x1="248.2" y1="121.9" x2="251.8" y2="181.7" stroke="#b84e32" stroke-width="4" stroke-linecap="round"/>
<line x1="251.8" y1="181.7" x2="260.3" y2="238.2" stroke="#b84e32" stroke-width="4" stroke-linecap="round"/>
<line x1="260.3" y1="238.2" x2="278.9" y2="295.0" stroke="#b84e32" stroke-width="4" stroke-linecap="round"/>
<line x1="248.2" y1="121.9" x2="244.8" y2="179.7" stroke="#b84e32" stroke-width="4" stroke-linecap="round"/>
<line x1="244.8" y1="179.7" x2="201.1" y2="209.3" stroke="#b84e32" stroke-width="4" stroke-linecap="round"/>
<line x1="201.1" y1="209.3" x2="204.2" y2="271.0" stroke="#b84e32" stroke-width="4" stroke-linecap="round"/>
<line x1="254.1" y1="95.9" x2="252.0" y2="94.4" stroke="#b84e32" stroke-width="4" stroke-linecap="round"/>
<line x1="252.0" y1="94.4" x2="221.9" y2="95.8" stroke="#b84e32" stroke-width="4" stroke-linecap="round"/>
<line x1="221.9" y1="95.8" x2="213.7" y2="70.1" stroke="#b84e32" stroke-width="4" stroke-linecap="round"/>
<line x1="254.1" y1="95.9" x2="250.8" y2="94.4" stroke="#b84e32" stroke-width="4" stroke-linecap="round"/>
<line x1="250.8" y1="94.4" x2="229.3" y2="88.8" stroke="#b84e32" stroke-width="4" stroke-linecap="round"/>
<line x1="229.3" y1="88.8" x2="212.0" y2="65.0" stroke="#b84e32" stroke-width="4" stroke-linecap="round"/>
<circle cx="248.0" cy="77.0" r="3.5" fill="#b84e32"/>
<circle cx="278.9" cy="295.0" r="3.5" fill="#b84e32"/>
<circle cx="221.9" cy="95.8" r="3.5" fill="#b84e32"/>
<circle cx="251.8" cy="181.7" r="3.5" fill="#b84e32"/>
<circle cx="260.3" cy="238.2" r="3.5" fill="#b84e32"/>
<circle cx="252.0" cy="94.4" r="3.5" fill="#b84e32"/>
<circle cx="213.7" cy="70.1" r="3.5" fill="#b84e32"/>
<circle cx="254.1" cy="95.9" r="3.5" fill="#b84e32"/>
<circle cx="247.6" cy="165.0" r="3.5" fill="#b84e32"/>
<circle cx="204.2" cy="271.0" r="3.5" fill="#b84e32"/>
<circle cx="229.3" cy="88.8" r="3.5" fill="#b84e32"/>
<circle cx="244.8" cy="179.7" r="3.5" fill="#b84e32"/>
<circle cx="201.1" cy="209.3" r="3.5" fill="#b84e32"/>
<circle cx="250.8" cy="94.4" r="3.5" fill="#b84e32"/>
<circle cx="212.0" cy="65.0" r="3.5" fill="#b84e32"/>
<circle cx="248.2" cy="121.9" r="3.5" fill="#b84e32"/></g>
<text x="56" y="684" class="muted">Scoring source: SMPL-X. G1 scoring allowed: false. Feedback passed: False</text>
<text x="696" y="672" class="muted">Routine feedback anchors: opening stance, settled support, raise hands apex</text>
<text x="696" y="696" class="muted">SMPL-X surface layer: SMPL-X surface proxy</text>
</svg>