<svg xmlns="http://www.w3.org/2000/svg" width="1280" height="720" viewBox="0 0 1280 720" role="img">
<style>text{font-family:Inter,Arial,sans-serif}.title{font-size:30px;font-weight:760;fill:#17212b}.muted{font-size:16px;fill:#66717f}.badge{font-size:14px;font-weight:760;fill:#b54708}</style>
<rect width="1280" height="720" fill="#eef2f6"/>
<rect x="32" y="28" width="1216" height="86" rx="8" fill="#ffffff" stroke="#d8e0e8"/>
<text x="56" y="68" class="title">neodojo public fixture demo</text>
<text x="56" y="94" class="muted">SMPL-X teacher + Unitree G1 MuJoCo model replay - frame 528</text>
<text x="1080" y="66" class="badge">REAL ARTIFACT</text>
<rect x="48" y="144" width="560" height="500" rx="8" fill="#ffffff" stroke="#d8e0e8"/>
<rect x="672" y="144" width="560" height="500" rx="8" fill="#ffffff" stroke="#d8e0e8"/>
<text x="72" y="184" class="title">SMPL-X teacher</text>
<text x="696" y="184" class="title">Unitree G1 MuJoCo model replay</text>
<g transform="translate(80 210)"><line x1="222.5" y1="164.0" x2="226.7" y2="117.3" stroke="#147c72" stroke-opacity="0.16" stroke-width="18.9" stroke-linecap="round"/>
<line x1="226.7" y1="117.3" x2="230.4" y2="87.9" stroke="#147c72" stroke-opacity="0.16" stroke-width="17.1" stroke-linecap="round"/>
<line x1="230.4" y1="87.9" x2="247.2" y2="65.0" stroke="#147c72" stroke-opacity="0.16" stroke-width="12.6" stroke-linecap="round"/>
<line x1="226.7" y1="117.3" x2="231.6" y2="180.9" stroke="#147c72" stroke-opacity="0.16" stroke-width="15.3" stroke-linecap="round"/>
<line x1="231.6" y1="180.9" x2="273.1" y2="224.8" stroke="#147c72" stroke-opacity="0.16" stroke-width="10.8" stroke-linecap="round"/>
<line x1="273.1" y1="224.8" x2="277.9" y2="295.0" stroke="#147c72" stroke-opacity="0.16" stroke-width="8.1" stroke-linecap="round"/>
<line x1="226.7" y1="117.3" x2="211.4" y2="183.1" stroke="#147c72" stroke-opacity="0.16" stroke-width="15.3" stroke-linecap="round"/>
<line x1="211.4" y1="183.1" x2="187.3" y2="238.3" stroke="#147c72" stroke-opacity="0.16" stroke-width="10.8" stroke-linecap="round"/>
<line x1="187.3" y1="238.3" x2="166.3" y2="292.5" stroke="#147c72" stroke-opacity="0.16" stroke-width="8.1" stroke-linecap="round"/>
<line x1="230.4" y1="87.9" x2="252.5" y2="93.4" stroke="#147c72" stroke-opacity="0.16" stroke-width="9.9" stroke-linecap="round"/>
<line x1="252.5" y1="93.4" x2="277.0" y2="129.3" stroke="#147c72" stroke-opacity="0.16" stroke-width="8.1" stroke-linecap="round"/>
<line x1="277.0" y1="129.3" x2="313.7" y2="112.5" stroke="#147c72" stroke-opacity="0.16" stroke-width="8.0" stroke-linecap="round"/>
<line x1="230.4" y1="87.9" x2="223.1" y2="91.1" stroke="#147c72" stroke-opacity="0.16" stroke-width="9.9" stroke-linecap="round"/>
<line x1="223.1" y1="91.1" x2="262.4" y2="110.8" stroke="#147c72" stroke-opacity="0.16" stroke-width="8.1" stroke-linecap="round"/>
<line x1="262.4" y1="110.8" x2="304.9" y2="104.7" stroke="#147c72" stroke-opacity="0.16" stroke-width="8.0" stroke-linecap="round"/><line x1="222.5" y1="164.0" x2="226.7" y2="117.3" stroke="#147c72" stroke-width="4" stroke-linecap="round"/>
<line x1="226.7" y1="117.3" x2="230.4" y2="87.9" stroke="#147c72" stroke-width="4" stroke-linecap="round"/>
<line x1="230.4" y1="87.9" x2="247.2" y2="65.0" stroke="#147c72" stroke-width="4" stroke-linecap="round"/>
<line x1="226.7" y1="117.3" x2="231.6" y2="180.9" stroke="#147c72" stroke-width="4" stroke-linecap="round"/>
<line x1="231.6" y1="180.9" x2="273.1" y2="224.8" stroke="#147c72" stroke-width="4" stroke-linecap="round"/>
<line x1="273.1" y1="224.8" x2="277.9" y2="295.0" stroke="#147c72" stroke-width="4" stroke-linecap="round"/>
<line x1="226.7" y1="117.3" x2="211.4" y2="183.1" stroke="#147c72" stroke-width="4" stroke-linecap="round"/>
<line x1="211.4" y1="183.1" x2="187.3" y2="238.3" stroke="#147c72" stroke-width="4" stroke-linecap="round"/>
<line x1="187.3" y1="238.3" x2="166.3" y2="292.5" stroke="#147c72" stroke-width="4" stroke-linecap="round"/>
<line x1="230.4" y1="87.9" x2="252.5" y2="93.4" stroke="#147c72" stroke-width="4" stroke-linecap="round"/>
<line x1="252.5" y1="93.4" x2="277.0" y2="129.3" stroke="#147c72" stroke-width="4" stroke-linecap="round"/>
<line x1="277.0" y1="129.3" x2="313.7" y2="112.5" stroke="#147c72" stroke-width="4" stroke-linecap="round"/>
<line x1="230.4" y1="87.9" x2="223.1" y2="91.1" stroke="#147c72" stroke-width="4" stroke-linecap="round"/>
<line x1="223.1" y1="91.1" x2="262.4" y2="110.8" stroke="#147c72" stroke-width="4" stroke-linecap="round"/>
<line x1="262.4" y1="110.8" x2="304.9" y2="104.7" stroke="#147c72" stroke-width="4" stroke-linecap="round"/>
<circle cx="247.2" cy="65.0" r="3.5" fill="#147c72"/>
<circle cx="277.9" cy="295.0" r="3.5" fill="#147c72"/>
<circle cx="277.0" cy="129.3" r="3.5" fill="#147c72"/>
<circle cx="231.6" cy="180.9" r="3.5" fill="#147c72"/>
<circle cx="273.1" cy="224.8" r="3.5" fill="#147c72"/>
<circle cx="252.5" cy="93.4" r="3.5" fill="#147c72"/>
<circle cx="313.7" cy="112.5" r="3.5" fill="#147c72"/>
<circle cx="230.4" cy="87.9" r="3.5" fill="#147c72"/>
<circle cx="222.5" cy="164.0" r="3.5" fill="#147c72"/>
<circle cx="166.3" cy="292.5" r="3.5" fill="#147c72"/>
<circle cx="262.4" cy="110.8" r="3.5" fill="#147c72"/>
<circle cx="211.4" cy="183.1" r="3.5" fill="#147c72"/>
<circle cx="187.3" cy="238.3" r="3.5" fill="#147c72"/>
<circle cx="223.1" cy="91.1" r="3.5" fill="#147c72"/>
<circle cx="304.9" cy="104.7" r="3.5" fill="#147c72"/>
<circle cx="226.7" cy="117.3" r="3.5" fill="#147c72"/></g>
<g transform="translate(704 210)"><line x1="221.0" y1="160.9" x2="225.1" y2="113.2" stroke="#b84e32" stroke-width="4" stroke-linecap="round"/>
<line x1="225.1" y1="113.2" x2="228.6" y2="83.1" stroke="#b84e32" stroke-width="4" stroke-linecap="round"/>
<line x1="228.6" y1="83.1" x2="244.8" y2="65.0" stroke="#b84e32" stroke-width="4" stroke-linecap="round"/>
<line x1="225.1" y1="113.2" x2="229.8" y2="178.2" stroke="#b84e32" stroke-width="4" stroke-linecap="round"/>
<line x1="229.8" y1="178.2" x2="269.7" y2="223.1" stroke="#b84e32" stroke-width="4" stroke-linecap="round"/>
<line x1="269.7" y1="223.1" x2="274.4" y2="295.0" stroke="#b84e32" stroke-width="4" stroke-linecap="round"/>
<line x1="225.1" y1="113.2" x2="210.4" y2="180.5" stroke="#b84e32" stroke-width="4" stroke-linecap="round"/>
<line x1="210.4" y1="180.5" x2="187.1" y2="237.0" stroke="#b84e32" stroke-width="4" stroke-linecap="round"/>
<line x1="187.1" y1="237.0" x2="166.9" y2="292.5" stroke="#b84e32" stroke-width="4" stroke-linecap="round"/>
<line x1="228.6" y1="83.1" x2="249.9" y2="88.7" stroke="#b84e32" stroke-width="4" stroke-linecap="round"/>
<line x1="249.9" y1="88.7" x2="273.5" y2="136.2" stroke="#b84e32" stroke-width="4" stroke-linecap="round"/>
<line x1="273.5" y1="136.2" x2="313.1" y2="129.6" stroke="#b84e32" stroke-width="4" stroke-linecap="round"/>
<line x1="228.6" y1="83.1" x2="221.6" y2="86.4" stroke="#b84e32" stroke-width="4" stroke-linecap="round"/>
<line x1="221.6" y1="86.4" x2="259.4" y2="117.2" stroke="#b84e32" stroke-width="4" stroke-linecap="round"/>
<line x1="259.4" y1="117.2" x2="303.9" y2="121.7" stroke="#b84e32" stroke-width="4" stroke-linecap="round"/>
<circle cx="244.8" cy="65.0" r="3.5" fill="#b84e32"/>
<circle cx="274.4" cy="295.0" r="3.5" fill="#b84e32"/>
<circle cx="273.5" cy="136.2" r="3.5" fill="#b84e32"/>
<circle cx="229.8" cy="178.2" r="3.5" fill="#b84e32"/>
<circle cx="269.7" cy="223.1" r="3.5" fill="#b84e32"/>
<circle cx="249.9" cy="88.7" r="3.5" fill="#b84e32"/>
<circle cx="313.1" cy="129.6" r="3.5" fill="#b84e32"/>
<circle cx="228.6" cy="83.1" r="3.5" fill="#b84e32"/>
<circle cx="221.0" cy="160.9" r="3.5" fill="#b84e32"/>
<circle cx="166.9" cy="292.5" r="3.5" fill="#b84e32"/>
<circle cx="259.4" cy="117.2" r="3.5" fill="#b84e32"/>
<circle cx="210.4" cy="180.5" r="3.5" fill="#b84e32"/>
<circle cx="187.1" cy="237.0" r="3.5" fill="#b84e32"/>
<circle cx="221.6" cy="86.4" r="3.5" fill="#b84e32"/>
<circle cx="303.9" cy="121.7" r="3.5" fill="#b84e32"/>
<circle cx="225.1" cy="113.2" r="3.5" fill="#b84e32"/></g>
<text x="56" y="684" class="muted">Scoring source: SMPL-X. G1 scoring allowed: false. Feedback passed: False</text>
<text x="696" y="672" class="muted">Routine feedback anchors: opening stance, settled support, raise hands apex</text>
<text x="696" y="696" class="muted">SMPL-X surface layer: SMPL-X surface proxy</text>
</svg>