<svg xmlns="http://www.w3.org/2000/svg" width="1280" height="720" viewBox="0 0 1280 720" role="img">
<style>text{font-family:Inter,Arial,sans-serif}.title{font-size:30px;font-weight:760;fill:#17212b}.muted{font-size:16px;fill:#66717f}.badge{font-size:14px;font-weight:760;fill:#b54708}</style>
<rect width="1280" height="720" fill="#eef2f6"/>
<rect x="32" y="28" width="1216" height="86" rx="8" fill="#ffffff" stroke="#d8e0e8"/>
<text x="56" y="68" class="title">neodojo public fixture demo</text>
<text x="56" y="94" class="muted">SMPL-X teacher + Unitree G1 MuJoCo model replay - frame 264</text>
<text x="1080" y="66" class="badge">REAL ARTIFACT</text>
<rect x="48" y="144" width="560" height="500" rx="8" fill="#ffffff" stroke="#d8e0e8"/>
<rect x="672" y="144" width="560" height="500" rx="8" fill="#ffffff" stroke="#d8e0e8"/>
<text x="72" y="184" class="title">SMPL-X teacher</text>
<text x="696" y="184" class="title">Unitree G1 MuJoCo model replay</text>
<g transform="translate(80 210)"><line x1="237.9" y1="183.0" x2="239.0" y2="144.6" stroke="#147c72" stroke-opacity="0.16" stroke-width="18.9" stroke-linecap="round"/>
<line x1="239.0" y1="144.6" x2="237.9" y2="123.2" stroke="#147c72" stroke-opacity="0.16" stroke-width="17.1" stroke-linecap="round"/>
<line x1="237.9" y1="123.2" x2="241.7" y2="104.1" stroke="#147c72" stroke-opacity="0.16" stroke-width="12.6" stroke-linecap="round"/>
<line x1="239.0" y1="144.6" x2="243.3" y2="196.7" stroke="#147c72" stroke-opacity="0.16" stroke-width="15.3" stroke-linecap="round"/>
<line x1="243.3" y1="196.7" x2="248.7" y2="246.2" stroke="#147c72" stroke-opacity="0.16" stroke-width="10.8" stroke-linecap="round"/>
<line x1="248.7" y1="246.2" x2="235.7" y2="295.0" stroke="#147c72" stroke-opacity="0.16" stroke-width="8.1" stroke-linecap="round"/>
<line x1="239.0" y1="144.6" x2="227.7" y2="195.6" stroke="#147c72" stroke-opacity="0.16" stroke-width="15.3" stroke-linecap="round"/>
<line x1="227.7" y1="195.6" x2="215.0" y2="188.4" stroke="#147c72" stroke-opacity="0.16" stroke-width="10.8" stroke-linecap="round"/>
<line x1="215.0" y1="188.4" x2="222.4" y2="241.5" stroke="#147c72" stroke-opacity="0.16" stroke-width="8.1" stroke-linecap="round"/>
<line x1="237.9" y1="123.2" x2="256.0" y2="119.0" stroke="#147c72" stroke-opacity="0.16" stroke-width="9.9" stroke-linecap="round"/>
<line x1="256.0" y1="119.0" x2="268.5" y2="98.8" stroke="#147c72" stroke-opacity="0.16" stroke-width="8.1" stroke-linecap="round"/>
<line x1="268.5" y1="98.8" x2="264.3" y2="67.3" stroke="#147c72" stroke-opacity="0.16" stroke-width="8.0" stroke-linecap="round"/>
<line x1="237.9" y1="123.2" x2="225.0" y2="120.0" stroke="#147c72" stroke-opacity="0.16" stroke-width="9.9" stroke-linecap="round"/>
<line x1="225.0" y1="120.0" x2="211.5" y2="94.4" stroke="#147c72" stroke-opacity="0.16" stroke-width="8.1" stroke-linecap="round"/>
<line x1="211.5" y1="94.4" x2="218.2" y2="65.0" stroke="#147c72" stroke-opacity="0.16" stroke-width="8.0" stroke-linecap="round"/><line x1="237.9" y1="183.0" x2="239.0" y2="144.6" stroke="#147c72" stroke-width="4" stroke-linecap="round"/>
<line x1="239.0" y1="144.6" x2="237.9" y2="123.2" stroke="#147c72" stroke-width="4" stroke-linecap="round"/>
<line x1="237.9" y1="123.2" x2="241.7" y2="104.1" stroke="#147c72" stroke-width="4" stroke-linecap="round"/>
<line x1="239.0" y1="144.6" x2="243.3" y2="196.7" stroke="#147c72" stroke-width="4" stroke-linecap="round"/>
<line x1="243.3" y1="196.7" x2="248.7" y2="246.2" stroke="#147c72" stroke-width="4" stroke-linecap="round"/>
<line x1="248.7" y1="246.2" x2="235.7" y2="295.0" stroke="#147c72" stroke-width="4" stroke-linecap="round"/>
<line x1="239.0" y1="144.6" x2="227.7" y2="195.6" stroke="#147c72" stroke-width="4" stroke-linecap="round"/>
<line x1="227.7" y1="195.6" x2="215.0" y2="188.4" stroke="#147c72" stroke-width="4" stroke-linecap="round"/>
<line x1="215.0" y1="188.4" x2="222.4" y2="241.5" stroke="#147c72" stroke-width="4" stroke-linecap="round"/>
<line x1="237.9" y1="123.2" x2="256.0" y2="119.0" stroke="#147c72" stroke-width="4" stroke-linecap="round"/>
<line x1="256.0" y1="119.0" x2="268.5" y2="98.8" stroke="#147c72" stroke-width="4" stroke-linecap="round"/>
<line x1="268.5" y1="98.8" x2="264.3" y2="67.3" stroke="#147c72" stroke-width="4" stroke-linecap="round"/>
<line x1="237.9" y1="123.2" x2="225.0" y2="120.0" stroke="#147c72" stroke-width="4" stroke-linecap="round"/>
<line x1="225.0" y1="120.0" x2="211.5" y2="94.4" stroke="#147c72" stroke-width="4" stroke-linecap="round"/>
<line x1="211.5" y1="94.4" x2="218.2" y2="65.0" stroke="#147c72" stroke-width="4" stroke-linecap="round"/>
<circle cx="241.7" cy="104.1" r="3.5" fill="#147c72"/>
<circle cx="235.7" cy="295.0" r="3.5" fill="#147c72"/>
<circle cx="268.5" cy="98.8" r="3.5" fill="#147c72"/>
<circle cx="243.3" cy="196.7" r="3.5" fill="#147c72"/>
<circle cx="248.7" cy="246.2" r="3.5" fill="#147c72"/>
<circle cx="256.0" cy="119.0" r="3.5" fill="#147c72"/>
<circle cx="264.3" cy="67.3" r="3.5" fill="#147c72"/>
<circle cx="237.9" cy="123.2" r="3.5" fill="#147c72"/>
<circle cx="237.9" cy="183.0" r="3.5" fill="#147c72"/>
<circle cx="222.4" cy="241.5" r="3.5" fill="#147c72"/>
<circle cx="211.5" cy="94.4" r="3.5" fill="#147c72"/>
<circle cx="227.7" cy="195.6" r="3.5" fill="#147c72"/>
<circle cx="215.0" cy="188.4" r="3.5" fill="#147c72"/>
<circle cx="225.0" cy="120.0" r="3.5" fill="#147c72"/>
<circle cx="218.2" cy="65.0" r="3.5" fill="#147c72"/>
<circle cx="239.0" cy="144.6" r="3.5" fill="#147c72"/></g>
<g transform="translate(704 210)"><line x1="237.9" y1="175.0" x2="239.0" y2="133.7" stroke="#b84e32" stroke-width="4" stroke-linecap="round"/>
<line x1="239.0" y1="133.7" x2="237.8" y2="110.8" stroke="#b84e32" stroke-width="4" stroke-linecap="round"/>
<line x1="237.8" y1="110.8" x2="241.7" y2="94.6" stroke="#b84e32" stroke-width="4" stroke-linecap="round"/>
<line x1="239.0" y1="133.7" x2="243.4" y2="189.7" stroke="#b84e32" stroke-width="4" stroke-linecap="round"/>
<line x1="243.4" y1="189.7" x2="248.7" y2="242.7" stroke="#b84e32" stroke-width="4" stroke-linecap="round"/>
<line x1="248.7" y1="242.7" x2="235.7" y2="295.0" stroke="#b84e32" stroke-width="4" stroke-linecap="round"/>
<line x1="239.0" y1="133.7" x2="227.6" y2="188.5" stroke="#b84e32" stroke-width="4" stroke-linecap="round"/>
<line x1="227.6" y1="188.5" x2="214.8" y2="180.7" stroke="#b84e32" stroke-width="4" stroke-linecap="round"/>
<line x1="214.8" y1="180.7" x2="222.2" y2="237.6" stroke="#b84e32" stroke-width="4" stroke-linecap="round"/>
<line x1="237.8" y1="110.8" x2="256.1" y2="106.4" stroke="#b84e32" stroke-width="4" stroke-linecap="round"/>
<line x1="256.1" y1="106.4" x2="268.7" y2="93.0" stroke="#b84e32" stroke-width="4" stroke-linecap="round"/>
<line x1="268.7" y1="93.0" x2="267.8" y2="67.5" stroke="#b84e32" stroke-width="4" stroke-linecap="round"/>
<line x1="237.8" y1="110.8" x2="224.9" y2="107.4" stroke="#b84e32" stroke-width="4" stroke-linecap="round"/>
<line x1="224.9" y1="107.4" x2="211.3" y2="88.2" stroke="#b84e32" stroke-width="4" stroke-linecap="round"/>
<line x1="211.3" y1="88.2" x2="217.6" y2="65.0" stroke="#b84e32" stroke-width="4" stroke-linecap="round"/>
<circle cx="241.7" cy="94.6" r="3.5" fill="#b84e32"/>
<circle cx="235.7" cy="295.0" r="3.5" fill="#b84e32"/>
<circle cx="268.7" cy="93.0" r="3.5" fill="#b84e32"/>
<circle cx="243.4" cy="189.7" r="3.5" fill="#b84e32"/>
<circle cx="248.7" cy="242.7" r="3.5" fill="#b84e32"/>
<circle cx="256.1" cy="106.4" r="3.5" fill="#b84e32"/>
<circle cx="267.8" cy="67.5" r="3.5" fill="#b84e32"/>
<circle cx="237.8" cy="110.8" r="3.5" fill="#b84e32"/>
<circle cx="237.9" cy="175.0" r="3.5" fill="#b84e32"/>
<circle cx="222.2" cy="237.6" r="3.5" fill="#b84e32"/>
<circle cx="211.3" cy="88.2" r="3.5" fill="#b84e32"/>
<circle cx="227.6" cy="188.5" r="3.5" fill="#b84e32"/>
<circle cx="214.8" cy="180.7" r="3.5" fill="#b84e32"/>
<circle cx="224.9" cy="107.4" r="3.5" fill="#b84e32"/>
<circle cx="217.6" cy="65.0" r="3.5" fill="#b84e32"/>
<circle cx="239.0" cy="133.7" r="3.5" fill="#b84e32"/></g>
<text x="56" y="684" class="muted">Scoring source: SMPL-X. G1 scoring allowed: false. Feedback passed: False</text>
<text x="696" y="672" class="muted">Routine feedback anchors: opening stance, settled support, raise hands apex</text>
<text x="696" y="696" class="muted">SMPL-X surface layer: SMPL-X surface proxy</text>
</svg>