<svg xmlns="http://www.w3.org/2000/svg" width="1280" height="720" viewBox="0 0 1280 720" role="img">
<style>text{font-family:Inter,Arial,sans-serif}.title{font-size:30px;font-weight:760;fill:#17212b}.muted{font-size:16px;fill:#66717f}.badge{font-size:14px;font-weight:760;fill:#b54708}</style>
<rect width="1280" height="720" fill="#eef2f6"/>
<rect x="32" y="28" width="1216" height="86" rx="8" fill="#ffffff" stroke="#d8e0e8"/>
<text x="56" y="68" class="title">neodojo public fixture demo</text>
<text x="56" y="94" class="muted">SMPL-X teacher + Unitree G1 MuJoCo model replay - frame 150</text>
<text x="1080" y="66" class="badge">REAL ARTIFACT</text>
<rect x="48" y="144" width="560" height="500" rx="8" fill="#ffffff" stroke="#d8e0e8"/>
<rect x="672" y="144" width="560" height="500" rx="8" fill="#ffffff" stroke="#d8e0e8"/>
<text x="72" y="184" class="title">SMPL-X teacher</text>
<text x="696" y="184" class="title">Unitree G1 MuJoCo model replay</text>
<g transform="translate(80 210)"><line x1="239.3" y1="161.9" x2="238.1" y2="116.7" stroke="#147c72" stroke-opacity="0.16" stroke-width="18.9" stroke-linecap="round"/>
<line x1="238.1" y1="116.7" x2="235.3" y2="91.1" stroke="#147c72" stroke-opacity="0.16" stroke-width="17.1" stroke-linecap="round"/>
<line x1="235.3" y1="91.1" x2="239.9" y2="65.0" stroke="#147c72" stroke-opacity="0.16" stroke-width="12.6" stroke-linecap="round"/>
<line x1="238.1" y1="116.7" x2="249.6" y2="177.2" stroke="#147c72" stroke-opacity="0.16" stroke-width="15.3" stroke-linecap="round"/>
<line x1="249.6" y1="177.2" x2="267.0" y2="232.7" stroke="#147c72" stroke-opacity="0.16" stroke-width="10.8" stroke-linecap="round"/>
<line x1="267.0" y1="232.7" x2="268.6" y2="294.2" stroke="#147c72" stroke-opacity="0.16" stroke-width="8.1" stroke-linecap="round"/>
<line x1="238.1" y1="116.7" x2="228.1" y2="178.8" stroke="#147c72" stroke-opacity="0.16" stroke-width="15.3" stroke-linecap="round"/>
<line x1="228.1" y1="178.8" x2="215.4" y2="233.1" stroke="#147c72" stroke-opacity="0.16" stroke-width="10.8" stroke-linecap="round"/>
<line x1="215.4" y1="233.1" x2="211.4" y2="295.0" stroke="#147c72" stroke-opacity="0.16" stroke-width="8.1" stroke-linecap="round"/>
<line x1="235.3" y1="91.1" x2="263.0" y2="92.6" stroke="#147c72" stroke-opacity="0.16" stroke-width="9.9" stroke-linecap="round"/>
<line x1="263.0" y1="92.6" x2="297.1" y2="94.3" stroke="#147c72" stroke-opacity="0.16" stroke-width="8.1" stroke-linecap="round"/>
<line x1="297.1" y1="94.3" x2="322.3" y2="80.6" stroke="#147c72" stroke-opacity="0.16" stroke-width="8.0" stroke-linecap="round"/>
<line x1="235.3" y1="91.1" x2="214.5" y2="94.4" stroke="#147c72" stroke-opacity="0.16" stroke-width="9.9" stroke-linecap="round"/>
<line x1="214.5" y1="94.4" x2="182.1" y2="92.0" stroke="#147c72" stroke-opacity="0.16" stroke-width="8.1" stroke-linecap="round"/>
<line x1="182.1" y1="92.0" x2="157.7" y2="84.1" stroke="#147c72" stroke-opacity="0.16" stroke-width="8.0" stroke-linecap="round"/><line x1="239.3" y1="161.9" x2="238.1" y2="116.7" stroke="#147c72" stroke-width="4" stroke-linecap="round"/>
<line x1="238.1" y1="116.7" x2="235.3" y2="91.1" stroke="#147c72" stroke-width="4" stroke-linecap="round"/>
<line x1="235.3" y1="91.1" x2="239.9" y2="65.0" stroke="#147c72" stroke-width="4" stroke-linecap="round"/>
<line x1="238.1" y1="116.7" x2="249.6" y2="177.2" stroke="#147c72" stroke-width="4" stroke-linecap="round"/>
<line x1="249.6" y1="177.2" x2="267.0" y2="232.7" stroke="#147c72" stroke-width="4" stroke-linecap="round"/>
<line x1="267.0" y1="232.7" x2="268.6" y2="294.2" stroke="#147c72" stroke-width="4" stroke-linecap="round"/>
<line x1="238.1" y1="116.7" x2="228.1" y2="178.8" stroke="#147c72" stroke-width="4" stroke-linecap="round"/>
<line x1="228.1" y1="178.8" x2="215.4" y2="233.1" stroke="#147c72" stroke-width="4" stroke-linecap="round"/>
<line x1="215.4" y1="233.1" x2="211.4" y2="295.0" stroke="#147c72" stroke-width="4" stroke-linecap="round"/>
<line x1="235.3" y1="91.1" x2="263.0" y2="92.6" stroke="#147c72" stroke-width="4" stroke-linecap="round"/>
<line x1="263.0" y1="92.6" x2="297.1" y2="94.3" stroke="#147c72" stroke-width="4" stroke-linecap="round"/>
<line x1="297.1" y1="94.3" x2="322.3" y2="80.6" stroke="#147c72" stroke-width="4" stroke-linecap="round"/>
<line x1="235.3" y1="91.1" x2="214.5" y2="94.4" stroke="#147c72" stroke-width="4" stroke-linecap="round"/>
<line x1="214.5" y1="94.4" x2="182.1" y2="92.0" stroke="#147c72" stroke-width="4" stroke-linecap="round"/>
<line x1="182.1" y1="92.0" x2="157.7" y2="84.1" stroke="#147c72" stroke-width="4" stroke-linecap="round"/>
<circle cx="239.9" cy="65.0" r="3.5" fill="#147c72"/>
<circle cx="268.6" cy="294.2" r="3.5" fill="#147c72"/>
<circle cx="297.1" cy="94.3" r="3.5" fill="#147c72"/>
<circle cx="249.6" cy="177.2" r="3.5" fill="#147c72"/>
<circle cx="267.0" cy="232.7" r="3.5" fill="#147c72"/>
<circle cx="263.0" cy="92.6" r="3.5" fill="#147c72"/>
<circle cx="322.3" cy="80.6" r="3.5" fill="#147c72"/>
<circle cx="235.3" cy="91.1" r="3.5" fill="#147c72"/>
<circle cx="239.3" cy="161.9" r="3.5" fill="#147c72"/>
<circle cx="211.4" cy="295.0" r="3.5" fill="#147c72"/>
<circle cx="182.1" cy="92.0" r="3.5" fill="#147c72"/>
<circle cx="228.1" cy="178.8" r="3.5" fill="#147c72"/>
<circle cx="215.4" cy="233.1" r="3.5" fill="#147c72"/>
<circle cx="214.5" cy="94.4" r="3.5" fill="#147c72"/>
<circle cx="157.7" cy="84.1" r="3.5" fill="#147c72"/>
<circle cx="238.1" cy="116.7" r="3.5" fill="#147c72"/></g>
<g transform="translate(704 210)"><line x1="239.5" y1="159.1" x2="238.3" y2="113.0" stroke="#b84e32" stroke-width="4" stroke-linecap="round"/>
<line x1="238.3" y1="113.0" x2="235.7" y2="86.8" stroke="#b84e32" stroke-width="4" stroke-linecap="round"/>
<line x1="235.7" y1="86.8" x2="240.1" y2="65.0" stroke="#b84e32" stroke-width="4" stroke-linecap="round"/>
<line x1="238.3" y1="113.0" x2="249.4" y2="174.7" stroke="#b84e32" stroke-width="4" stroke-linecap="round"/>
<line x1="249.4" y1="174.7" x2="266.1" y2="231.4" stroke="#b84e32" stroke-width="4" stroke-linecap="round"/>
<line x1="266.1" y1="231.4" x2="267.6" y2="294.2" stroke="#b84e32" stroke-width="4" stroke-linecap="round"/>
<line x1="238.3" y1="113.0" x2="228.8" y2="176.4" stroke="#b84e32" stroke-width="4" stroke-linecap="round"/>
<line x1="228.8" y1="176.4" x2="216.5" y2="231.8" stroke="#b84e32" stroke-width="4" stroke-linecap="round"/>
<line x1="216.5" y1="231.8" x2="212.7" y2="295.0" stroke="#b84e32" stroke-width="4" stroke-linecap="round"/>
<line x1="235.7" y1="86.8" x2="262.2" y2="88.3" stroke="#b84e32" stroke-width="4" stroke-linecap="round"/>
<line x1="262.2" y1="88.3" x2="295.0" y2="99.7" stroke="#b84e32" stroke-width="4" stroke-linecap="round"/>
<line x1="295.0" y1="99.7" x2="325.3" y2="95.5" stroke="#b84e32" stroke-width="4" stroke-linecap="round"/>
<line x1="235.7" y1="86.8" x2="215.7" y2="90.2" stroke="#b84e32" stroke-width="4" stroke-linecap="round"/>
<line x1="215.7" y1="90.2" x2="184.6" y2="97.4" stroke="#b84e32" stroke-width="4" stroke-linecap="round"/>
<line x1="184.6" y1="97.4" x2="154.7" y2="99.0" stroke="#b84e32" stroke-width="4" stroke-linecap="round"/>
<circle cx="240.1" cy="65.0" r="3.5" fill="#b84e32"/>
<circle cx="267.6" cy="294.2" r="3.5" fill="#b84e32"/>
<circle cx="295.0" cy="99.7" r="3.5" fill="#b84e32"/>
<circle cx="249.4" cy="174.7" r="3.5" fill="#b84e32"/>
<circle cx="266.1" cy="231.4" r="3.5" fill="#b84e32"/>
<circle cx="262.2" cy="88.3" r="3.5" fill="#b84e32"/>
<circle cx="325.3" cy="95.5" r="3.5" fill="#b84e32"/>
<circle cx="235.7" cy="86.8" r="3.5" fill="#b84e32"/>
<circle cx="239.5" cy="159.1" r="3.5" fill="#b84e32"/>
<circle cx="212.7" cy="295.0" r="3.5" fill="#b84e32"/>
<circle cx="184.6" cy="97.4" r="3.5" fill="#b84e32"/>
<circle cx="228.8" cy="176.4" r="3.5" fill="#b84e32"/>
<circle cx="216.5" cy="231.8" r="3.5" fill="#b84e32"/>
<circle cx="215.7" cy="90.2" r="3.5" fill="#b84e32"/>
<circle cx="154.7" cy="99.0" r="3.5" fill="#b84e32"/>
<circle cx="238.3" cy="113.0" r="3.5" fill="#b84e32"/></g>
<text x="56" y="684" class="muted">Scoring source: SMPL-X. G1 scoring allowed: false. Feedback passed: False</text>
<text x="696" y="672" class="muted">Routine feedback anchors: opening stance, settled support, raise hands apex</text>
<text x="696" y="696" class="muted">SMPL-X surface layer: SMPL-X surface proxy</text>
</svg>