<svg xmlns="http://www.w3.org/2000/svg" width="1280" height="720" viewBox="0 0 1280 720" role="img">
<style>text{font-family:Inter,Arial,sans-serif}.title{font-size:30px;font-weight:760;fill:#17212b}.muted{font-size:16px;fill:#66717f}.badge{font-size:14px;font-weight:760;fill:#b54708}</style>
<rect width="1280" height="720" fill="#eef2f6"/>
<rect x="32" y="28" width="1216" height="86" rx="8" fill="#ffffff" stroke="#d8e0e8"/>
<text x="56" y="68" class="title">neodojo public fixture demo</text>
<text x="56" y="94" class="muted">SMPL-X teacher + Unitree G1 MuJoCo model replay - frame 597</text>
<text x="1080" y="66" class="badge">REAL ARTIFACT</text>
<rect x="48" y="144" width="560" height="500" rx="8" fill="#ffffff" stroke="#d8e0e8"/>
<rect x="672" y="144" width="560" height="500" rx="8" fill="#ffffff" stroke="#d8e0e8"/>
<text x="72" y="184" class="title">SMPL-X teacher</text>
<text x="696" y="184" class="title">Unitree G1 MuJoCo model replay</text>
<g transform="translate(80 210)"><line x1="239.4" y1="181.9" x2="237.3" y2="143.4" stroke="#147c72" stroke-opacity="0.16" stroke-width="18.9" stroke-linecap="round"/>
<line x1="237.3" y1="143.4" x2="234.2" y2="120.8" stroke="#147c72" stroke-opacity="0.16" stroke-width="17.1" stroke-linecap="round"/>
<line x1="234.2" y1="120.8" x2="237.5" y2="99.1" stroke="#147c72" stroke-opacity="0.16" stroke-width="12.6" stroke-linecap="round"/>
<line x1="237.3" y1="143.4" x2="248.0" y2="194.6" stroke="#147c72" stroke-opacity="0.16" stroke-width="15.3" stroke-linecap="round"/>
<line x1="248.0" y1="194.6" x2="276.4" y2="232.0" stroke="#147c72" stroke-opacity="0.16" stroke-width="10.8" stroke-linecap="round"/>
<line x1="276.4" y1="232.0" x2="279.9" y2="286.0" stroke="#147c72" stroke-opacity="0.16" stroke-width="8.1" stroke-linecap="round"/>
<line x1="237.3" y1="143.4" x2="230.9" y2="196.5" stroke="#147c72" stroke-opacity="0.16" stroke-width="15.3" stroke-linecap="round"/>
<line x1="230.9" y1="196.5" x2="215.0" y2="243.0" stroke="#147c72" stroke-opacity="0.16" stroke-width="10.8" stroke-linecap="round"/>
<line x1="215.0" y1="243.0" x2="218.2" y2="295.0" stroke="#147c72" stroke-opacity="0.16" stroke-width="8.1" stroke-linecap="round"/>
<line x1="234.2" y1="120.8" x2="253.6" y2="117.3" stroke="#147c72" stroke-opacity="0.16" stroke-width="9.9" stroke-linecap="round"/>
<line x1="253.6" y1="117.3" x2="273.1" y2="97.5" stroke="#147c72" stroke-opacity="0.16" stroke-width="8.1" stroke-linecap="round"/>
<line x1="273.1" y1="97.5" x2="272.7" y2="65.0" stroke="#147c72" stroke-opacity="0.16" stroke-width="8.0" stroke-linecap="round"/>
<line x1="234.2" y1="120.8" x2="220.3" y2="120.4" stroke="#147c72" stroke-opacity="0.16" stroke-width="9.9" stroke-linecap="round"/>
<line x1="220.3" y1="120.4" x2="200.1" y2="97.3" stroke="#147c72" stroke-opacity="0.16" stroke-width="8.1" stroke-linecap="round"/>
<line x1="200.1" y1="97.3" x2="201.4" y2="65.7" stroke="#147c72" stroke-opacity="0.16" stroke-width="8.0" stroke-linecap="round"/><line x1="239.4" y1="181.9" x2="237.3" y2="143.4" stroke="#147c72" stroke-width="4" stroke-linecap="round"/>
<line x1="237.3" y1="143.4" x2="234.2" y2="120.8" stroke="#147c72" stroke-width="4" stroke-linecap="round"/>
<line x1="234.2" y1="120.8" x2="237.5" y2="99.1" stroke="#147c72" stroke-width="4" stroke-linecap="round"/>
<line x1="237.3" y1="143.4" x2="248.0" y2="194.6" stroke="#147c72" stroke-width="4" stroke-linecap="round"/>
<line x1="248.0" y1="194.6" x2="276.4" y2="232.0" stroke="#147c72" stroke-width="4" stroke-linecap="round"/>
<line x1="276.4" y1="232.0" x2="279.9" y2="286.0" stroke="#147c72" stroke-width="4" stroke-linecap="round"/>
<line x1="237.3" y1="143.4" x2="230.9" y2="196.5" stroke="#147c72" stroke-width="4" stroke-linecap="round"/>
<line x1="230.9" y1="196.5" x2="215.0" y2="243.0" stroke="#147c72" stroke-width="4" stroke-linecap="round"/>
<line x1="215.0" y1="243.0" x2="218.2" y2="295.0" stroke="#147c72" stroke-width="4" stroke-linecap="round"/>
<line x1="234.2" y1="120.8" x2="253.6" y2="117.3" stroke="#147c72" stroke-width="4" stroke-linecap="round"/>
<line x1="253.6" y1="117.3" x2="273.1" y2="97.5" stroke="#147c72" stroke-width="4" stroke-linecap="round"/>
<line x1="273.1" y1="97.5" x2="272.7" y2="65.0" stroke="#147c72" stroke-width="4" stroke-linecap="round"/>
<line x1="234.2" y1="120.8" x2="220.3" y2="120.4" stroke="#147c72" stroke-width="4" stroke-linecap="round"/>
<line x1="220.3" y1="120.4" x2="200.1" y2="97.3" stroke="#147c72" stroke-width="4" stroke-linecap="round"/>
<line x1="200.1" y1="97.3" x2="201.4" y2="65.7" stroke="#147c72" stroke-width="4" stroke-linecap="round"/>
<circle cx="237.5" cy="99.1" r="3.5" fill="#147c72"/>
<circle cx="279.9" cy="286.0" r="3.5" fill="#147c72"/>
<circle cx="273.1" cy="97.5" r="3.5" fill="#147c72"/>
<circle cx="248.0" cy="194.6" r="3.5" fill="#147c72"/>
<circle cx="276.4" cy="232.0" r="3.5" fill="#147c72"/>
<circle cx="253.6" cy="117.3" r="3.5" fill="#147c72"/>
<circle cx="272.7" cy="65.0" r="3.5" fill="#147c72"/>
<circle cx="234.2" cy="120.8" r="3.5" fill="#147c72"/>
<circle cx="239.4" cy="181.9" r="3.5" fill="#147c72"/>
<circle cx="218.2" cy="295.0" r="3.5" fill="#147c72"/>
<circle cx="200.1" cy="97.3" r="3.5" fill="#147c72"/>
<circle cx="230.9" cy="196.5" r="3.5" fill="#147c72"/>
<circle cx="215.0" cy="243.0" r="3.5" fill="#147c72"/>
<circle cx="220.3" cy="120.4" r="3.5" fill="#147c72"/>
<circle cx="201.4" cy="65.7" r="3.5" fill="#147c72"/>
<circle cx="237.3" cy="143.4" r="3.5" fill="#147c72"/></g>
<g transform="translate(704 210)"><line x1="241.6" y1="173.2" x2="239.4" y2="131.8" stroke="#b84e32" stroke-width="4" stroke-linecap="round"/>
<line x1="239.4" y1="131.8" x2="236.3" y2="107.5" stroke="#b84e32" stroke-width="4" stroke-linecap="round"/>
<line x1="236.3" y1="107.5" x2="239.6" y2="88.6" stroke="#b84e32" stroke-width="4" stroke-linecap="round"/>
<line x1="239.4" y1="131.8" x2="250.2" y2="187.0" stroke="#b84e32" stroke-width="4" stroke-linecap="round"/>
<line x1="250.2" y1="187.0" x2="279.0" y2="227.2" stroke="#b84e32" stroke-width="4" stroke-linecap="round"/>
<line x1="279.0" y1="227.2" x2="282.5" y2="285.3" stroke="#b84e32" stroke-width="4" stroke-linecap="round"/>
<line x1="239.4" y1="131.8" x2="233.0" y2="189.0" stroke="#b84e32" stroke-width="4" stroke-linecap="round"/>
<line x1="233.0" y1="189.0" x2="216.8" y2="239.0" stroke="#b84e32" stroke-width="4" stroke-linecap="round"/>
<line x1="216.8" y1="239.0" x2="220.1" y2="295.0" stroke="#b84e32" stroke-width="4" stroke-linecap="round"/>
<line x1="236.3" y1="107.5" x2="256.0" y2="103.8" stroke="#b84e32" stroke-width="4" stroke-linecap="round"/>
<line x1="256.0" y1="103.8" x2="275.7" y2="91.2" stroke="#b84e32" stroke-width="4" stroke-linecap="round"/>
<line x1="275.7" y1="91.2" x2="275.4" y2="65.0" stroke="#b84e32" stroke-width="4" stroke-linecap="round"/>
<line x1="236.3" y1="107.5" x2="222.2" y2="107.0" stroke="#b84e32" stroke-width="4" stroke-linecap="round"/>
<line x1="222.2" y1="107.0" x2="201.8" y2="91.0" stroke="#b84e32" stroke-width="4" stroke-linecap="round"/>
<line x1="201.8" y1="91.0" x2="197.5" y2="65.8" stroke="#b84e32" stroke-width="4" stroke-linecap="round"/>
<circle cx="239.6" cy="88.6" r="3.5" fill="#b84e32"/>
<circle cx="282.5" cy="285.3" r="3.5" fill="#b84e32"/>
<circle cx="275.7" cy="91.2" r="3.5" fill="#b84e32"/>
<circle cx="250.2" cy="187.0" r="3.5" fill="#b84e32"/>
<circle cx="279.0" cy="227.2" r="3.5" fill="#b84e32"/>
<circle cx="256.0" cy="103.8" r="3.5" fill="#b84e32"/>
<circle cx="275.4" cy="65.0" r="3.5" fill="#b84e32"/>
<circle cx="236.3" cy="107.5" r="3.5" fill="#b84e32"/>
<circle cx="241.6" cy="173.2" r="3.5" fill="#b84e32"/>
<circle cx="220.1" cy="295.0" r="3.5" fill="#b84e32"/>
<circle cx="201.8" cy="91.0" r="3.5" fill="#b84e32"/>
<circle cx="233.0" cy="189.0" r="3.5" fill="#b84e32"/>
<circle cx="216.8" cy="239.0" r="3.5" fill="#b84e32"/>
<circle cx="222.2" cy="107.0" r="3.5" fill="#b84e32"/>
<circle cx="197.5" cy="65.8" r="3.5" fill="#b84e32"/>
<circle cx="239.4" cy="131.8" r="3.5" fill="#b84e32"/></g>
<text x="56" y="684" class="muted">Scoring source: SMPL-X. G1 scoring allowed: false. Feedback passed: False</text>
<text x="696" y="672" class="muted">Routine feedback anchors: opening stance, settled support, raise hands apex</text>
<text x="696" y="696" class="muted">SMPL-X surface layer: SMPL-X surface proxy</text>
</svg>