<svg xmlns="http://www.w3.org/2000/svg" width="1280" height="720" viewBox="0 0 1280 720" role="img">
<style>text{font-family:Inter,Arial,sans-serif}.title{font-size:30px;font-weight:760;fill:#17212b}.muted{font-size:16px;fill:#66717f}.badge{font-size:14px;font-weight:760;fill:#b54708}</style>
<rect width="1280" height="720" fill="#eef2f6"/>
<rect x="32" y="28" width="1216" height="86" rx="8" fill="#ffffff" stroke="#d8e0e8"/>
<text x="56" y="68" class="title">neodojo public fixture demo</text>
<text x="56" y="94" class="muted">SMPL-X teacher + Unitree G1 MuJoCo model replay - frame 35</text>
<text x="1080" y="66" class="badge">REAL ARTIFACT</text>
<rect x="48" y="144" width="560" height="500" rx="8" fill="#ffffff" stroke="#d8e0e8"/>
<rect x="672" y="144" width="560" height="500" rx="8" fill="#ffffff" stroke="#d8e0e8"/>
<text x="72" y="184" class="title">SMPL-X teacher</text>
<text x="696" y="184" class="title">Unitree G1 MuJoCo model replay</text>
<g transform="translate(80 210)"><line x1="236.7" y1="160.8" x2="240.3" y2="116.0" stroke="#147c72" stroke-opacity="0.16" stroke-width="18.9" stroke-linecap="round"/>
<line x1="240.3" y1="116.0" x2="240.8" y2="88.9" stroke="#147c72" stroke-opacity="0.16" stroke-width="17.1" stroke-linecap="round"/>
<line x1="240.8" y1="88.9" x2="247.4" y2="65.0" stroke="#147c72" stroke-opacity="0.16" stroke-width="12.6" stroke-linecap="round"/>
<line x1="240.3" y1="116.0" x2="244.9" y2="177.0" stroke="#147c72" stroke-opacity="0.16" stroke-width="15.3" stroke-linecap="round"/>
<line x1="244.9" y1="177.0" x2="251.2" y2="235.2" stroke="#147c72" stroke-opacity="0.16" stroke-width="10.8" stroke-linecap="round"/>
<line x1="251.2" y1="235.2" x2="237.9" y2="295.0" stroke="#147c72" stroke-opacity="0.16" stroke-width="8.1" stroke-linecap="round"/>
<line x1="240.3" y1="116.0" x2="224.8" y2="176.5" stroke="#147c72" stroke-opacity="0.16" stroke-width="15.3" stroke-linecap="round"/>
<line x1="224.8" y1="176.5" x2="200.2" y2="219.7" stroke="#147c72" stroke-opacity="0.16" stroke-width="10.8" stroke-linecap="round"/>
<line x1="200.2" y1="219.7" x2="205.9" y2="279.9" stroke="#147c72" stroke-opacity="0.16" stroke-width="8.1" stroke-linecap="round"/>
<line x1="240.8" y1="88.9" x2="269.0" y2="104.9" stroke="#147c72" stroke-opacity="0.16" stroke-width="9.9" stroke-linecap="round"/>
<line x1="269.0" y1="104.9" x2="291.2" y2="126.6" stroke="#147c72" stroke-opacity="0.16" stroke-width="8.1" stroke-linecap="round"/>
<line x1="291.2" y1="126.6" x2="267.7" y2="148.1" stroke="#147c72" stroke-opacity="0.16" stroke-width="8.0" stroke-linecap="round"/>
<line x1="240.8" y1="88.9" x2="217.1" y2="96.3" stroke="#147c72" stroke-opacity="0.16" stroke-width="9.9" stroke-linecap="round"/>
<line x1="217.1" y1="96.3" x2="188.8" y2="114.0" stroke="#147c72" stroke-opacity="0.16" stroke-width="8.1" stroke-linecap="round"/>
<line x1="188.8" y1="114.0" x2="208.3" y2="139.4" stroke="#147c72" stroke-opacity="0.16" stroke-width="8.0" stroke-linecap="round"/><line x1="236.7" y1="160.8" x2="240.3" y2="116.0" stroke="#147c72" stroke-width="4" stroke-linecap="round"/>
<line x1="240.3" y1="116.0" x2="240.8" y2="88.9" stroke="#147c72" stroke-width="4" stroke-linecap="round"/>
<line x1="240.8" y1="88.9" x2="247.4" y2="65.0" stroke="#147c72" stroke-width="4" stroke-linecap="round"/>
<line x1="240.3" y1="116.0" x2="244.9" y2="177.0" stroke="#147c72" stroke-width="4" stroke-linecap="round"/>
<line x1="244.9" y1="177.0" x2="251.2" y2="235.2" stroke="#147c72" stroke-width="4" stroke-linecap="round"/>
<line x1="251.2" y1="235.2" x2="237.9" y2="295.0" stroke="#147c72" stroke-width="4" stroke-linecap="round"/>
<line x1="240.3" y1="116.0" x2="224.8" y2="176.5" stroke="#147c72" stroke-width="4" stroke-linecap="round"/>
<line x1="224.8" y1="176.5" x2="200.2" y2="219.7" stroke="#147c72" stroke-width="4" stroke-linecap="round"/>
<line x1="200.2" y1="219.7" x2="205.9" y2="279.9" stroke="#147c72" stroke-width="4" stroke-linecap="round"/>
<line x1="240.8" y1="88.9" x2="269.0" y2="104.9" stroke="#147c72" stroke-width="4" stroke-linecap="round"/>
<line x1="269.0" y1="104.9" x2="291.2" y2="126.6" stroke="#147c72" stroke-width="4" stroke-linecap="round"/>
<line x1="291.2" y1="126.6" x2="267.7" y2="148.1" stroke="#147c72" stroke-width="4" stroke-linecap="round"/>
<line x1="240.8" y1="88.9" x2="217.1" y2="96.3" stroke="#147c72" stroke-width="4" stroke-linecap="round"/>
<line x1="217.1" y1="96.3" x2="188.8" y2="114.0" stroke="#147c72" stroke-width="4" stroke-linecap="round"/>
<line x1="188.8" y1="114.0" x2="208.3" y2="139.4" stroke="#147c72" stroke-width="4" stroke-linecap="round"/>
<circle cx="247.4" cy="65.0" r="3.5" fill="#147c72"/>
<circle cx="237.9" cy="295.0" r="3.5" fill="#147c72"/>
<circle cx="291.2" cy="126.6" r="3.5" fill="#147c72"/>
<circle cx="244.9" cy="177.0" r="3.5" fill="#147c72"/>
<circle cx="251.2" cy="235.2" r="3.5" fill="#147c72"/>
<circle cx="269.0" cy="104.9" r="3.5" fill="#147c72"/>
<circle cx="267.7" cy="148.1" r="3.5" fill="#147c72"/>
<circle cx="240.8" cy="88.9" r="3.5" fill="#147c72"/>
<circle cx="236.7" cy="160.8" r="3.5" fill="#147c72"/>
<circle cx="205.9" cy="279.9" r="3.5" fill="#147c72"/>
<circle cx="188.8" cy="114.0" r="3.5" fill="#147c72"/>
<circle cx="224.8" cy="176.5" r="3.5" fill="#147c72"/>
<circle cx="200.2" cy="219.7" r="3.5" fill="#147c72"/>
<circle cx="217.1" cy="96.3" r="3.5" fill="#147c72"/>
<circle cx="208.3" cy="139.4" r="3.5" fill="#147c72"/>
<circle cx="240.3" cy="116.0" r="3.5" fill="#147c72"/></g>
<g transform="translate(704 210)"><line x1="236.8" y1="157.9" x2="240.3" y2="112.1" stroke="#b84e32" stroke-width="4" stroke-linecap="round"/>
<line x1="240.3" y1="112.1" x2="240.8" y2="84.5" stroke="#b84e32" stroke-width="4" stroke-linecap="round"/>
<line x1="240.8" y1="84.5" x2="247.1" y2="65.0" stroke="#b84e32" stroke-width="4" stroke-linecap="round"/>
<line x1="240.3" y1="112.1" x2="244.8" y2="174.5" stroke="#b84e32" stroke-width="4" stroke-linecap="round"/>
<line x1="244.8" y1="174.5" x2="250.7" y2="233.9" stroke="#b84e32" stroke-width="4" stroke-linecap="round"/>
<line x1="250.7" y1="233.9" x2="237.9" y2="295.0" stroke="#b84e32" stroke-width="4" stroke-linecap="round"/>
<line x1="240.3" y1="112.1" x2="225.4" y2="173.9" stroke="#b84e32" stroke-width="4" stroke-linecap="round"/>
<line x1="225.4" y1="173.9" x2="201.8" y2="218.0" stroke="#b84e32" stroke-width="4" stroke-linecap="round"/>
<line x1="201.8" y1="218.0" x2="207.3" y2="279.6" stroke="#b84e32" stroke-width="4" stroke-linecap="round"/>
<line x1="240.8" y1="84.5" x2="267.8" y2="100.8" stroke="#b84e32" stroke-width="4" stroke-linecap="round"/>
<line x1="267.8" y1="100.8" x2="289.2" y2="132.8" stroke="#b84e32" stroke-width="4" stroke-linecap="round"/>
<line x1="289.2" y1="132.8" x2="273.1" y2="164.7" stroke="#b84e32" stroke-width="4" stroke-linecap="round"/>
<line x1="240.8" y1="84.5" x2="218.0" y2="92.0" stroke="#b84e32" stroke-width="4" stroke-linecap="round"/>
<line x1="218.0" y1="92.0" x2="190.8" y2="120.0" stroke="#b84e32" stroke-width="4" stroke-linecap="round"/>
<line x1="190.8" y1="120.0" x2="211.4" y2="155.9" stroke="#b84e32" stroke-width="4" stroke-linecap="round"/>
<circle cx="247.1" cy="65.0" r="3.5" fill="#b84e32"/>
<circle cx="237.9" cy="295.0" r="3.5" fill="#b84e32"/>
<circle cx="289.2" cy="132.8" r="3.5" fill="#b84e32"/>
<circle cx="244.8" cy="174.5" r="3.5" fill="#b84e32"/>
<circle cx="250.7" cy="233.9" r="3.5" fill="#b84e32"/>
<circle cx="267.8" cy="100.8" r="3.5" fill="#b84e32"/>
<circle cx="273.1" cy="164.7" r="3.5" fill="#b84e32"/>
<circle cx="240.8" cy="84.5" r="3.5" fill="#b84e32"/>
<circle cx="236.8" cy="157.9" r="3.5" fill="#b84e32"/>
<circle cx="207.3" cy="279.6" r="3.5" fill="#b84e32"/>
<circle cx="190.8" cy="120.0" r="3.5" fill="#b84e32"/>
<circle cx="225.4" cy="173.9" r="3.5" fill="#b84e32"/>
<circle cx="201.8" cy="218.0" r="3.5" fill="#b84e32"/>
<circle cx="218.0" cy="92.0" r="3.5" fill="#b84e32"/>
<circle cx="211.4" cy="155.9" r="3.5" fill="#b84e32"/>
<circle cx="240.3" cy="112.1" r="3.5" fill="#b84e32"/></g>
<text x="56" y="684" class="muted">Scoring source: SMPL-X. G1 scoring allowed: false. Feedback passed: False</text>
<text x="696" y="672" class="muted">Routine feedback anchors: opening stance, settled support, raise hands apex</text>
<text x="696" y="696" class="muted">SMPL-X surface layer: SMPL-X surface proxy</text>
</svg>