<svg xmlns="http://www.w3.org/2000/svg" width="1280" height="720" viewBox="0 0 1280 720" role="img">
<style>text{font-family:Inter,Arial,sans-serif}.title{font-size:30px;font-weight:760;fill:#17212b}.muted{font-size:16px;fill:#66717f}.badge{font-size:14px;font-weight:760;fill:#b54708}</style>
<rect width="1280" height="720" fill="#eef2f6"/>
<rect x="32" y="28" width="1216" height="86" rx="8" fill="#ffffff" stroke="#d8e0e8"/>
<text x="56" y="68" class="title">neodojo public fixture demo</text>
<text x="56" y="94" class="muted">SMPL-X teacher + Unitree G1 MuJoCo model replay - frame 142</text>
<text x="1080" y="66" class="badge">REAL ARTIFACT</text>
<rect x="48" y="144" width="560" height="500" rx="8" fill="#ffffff" stroke="#d8e0e8"/>
<rect x="672" y="144" width="560" height="500" rx="8" fill="#ffffff" stroke="#d8e0e8"/>
<text x="72" y="184" class="title">SMPL-X teacher</text>
<text x="696" y="184" class="title">Unitree G1 MuJoCo model replay</text>
<g transform="translate(80 210)"><line x1="245.8" y1="160.6" x2="245.0" y2="116.4" stroke="#147c72" stroke-opacity="0.16" stroke-width="18.9" stroke-linecap="round"/>
<line x1="245.0" y1="116.4" x2="242.3" y2="89.0" stroke="#147c72" stroke-opacity="0.16" stroke-width="17.1" stroke-linecap="round"/>
<line x1="242.3" y1="89.0" x2="242.6" y2="65.0" stroke="#147c72" stroke-opacity="0.16" stroke-width="12.6" stroke-linecap="round"/>
<line x1="245.0" y1="116.4" x2="257.0" y2="176.1" stroke="#147c72" stroke-opacity="0.16" stroke-width="15.3" stroke-linecap="round"/>
<line x1="257.0" y1="176.1" x2="272.5" y2="233.1" stroke="#147c72" stroke-opacity="0.16" stroke-width="10.8" stroke-linecap="round"/>
<line x1="272.5" y1="233.1" x2="271.5" y2="295.0" stroke="#147c72" stroke-opacity="0.16" stroke-width="8.1" stroke-linecap="round"/>
<line x1="245.0" y1="116.4" x2="234.9" y2="178.3" stroke="#147c72" stroke-opacity="0.16" stroke-width="15.3" stroke-linecap="round"/>
<line x1="234.9" y1="178.3" x2="219.0" y2="232.2" stroke="#147c72" stroke-opacity="0.16" stroke-width="10.8" stroke-linecap="round"/>
<line x1="219.0" y1="232.2" x2="214.6" y2="293.7" stroke="#147c72" stroke-opacity="0.16" stroke-width="8.1" stroke-linecap="round"/>
<line x1="242.3" y1="89.0" x2="267.1" y2="88.0" stroke="#147c72" stroke-opacity="0.16" stroke-width="9.9" stroke-linecap="round"/>
<line x1="267.1" y1="88.0" x2="274.0" y2="116.1" stroke="#147c72" stroke-opacity="0.16" stroke-width="8.1" stroke-linecap="round"/>
<line x1="274.0" y1="116.1" x2="250.5" y2="86.3" stroke="#147c72" stroke-opacity="0.16" stroke-width="8.0" stroke-linecap="round"/>
<line x1="242.3" y1="89.0" x2="223.7" y2="90.0" stroke="#147c72" stroke-opacity="0.16" stroke-width="9.9" stroke-linecap="round"/>
<line x1="223.7" y1="90.0" x2="206.0" y2="118.3" stroke="#147c72" stroke-opacity="0.16" stroke-width="8.1" stroke-linecap="round"/>
<line x1="206.0" y1="118.3" x2="222.8" y2="87.0" stroke="#147c72" stroke-opacity="0.16" stroke-width="8.0" stroke-linecap="round"/><line x1="245.8" y1="160.6" x2="245.0" y2="116.4" stroke="#147c72" stroke-width="4" stroke-linecap="round"/>
<line x1="245.0" y1="116.4" x2="242.3" y2="89.0" stroke="#147c72" stroke-width="4" stroke-linecap="round"/>
<line x1="242.3" y1="89.0" x2="242.6" y2="65.0" stroke="#147c72" stroke-width="4" stroke-linecap="round"/>
<line x1="245.0" y1="116.4" x2="257.0" y2="176.1" stroke="#147c72" stroke-width="4" stroke-linecap="round"/>
<line x1="257.0" y1="176.1" x2="272.5" y2="233.1" stroke="#147c72" stroke-width="4" stroke-linecap="round"/>
<line x1="272.5" y1="233.1" x2="271.5" y2="295.0" stroke="#147c72" stroke-width="4" stroke-linecap="round"/>
<line x1="245.0" y1="116.4" x2="234.9" y2="178.3" stroke="#147c72" stroke-width="4" stroke-linecap="round"/>
<line x1="234.9" y1="178.3" x2="219.0" y2="232.2" stroke="#147c72" stroke-width="4" stroke-linecap="round"/>
<line x1="219.0" y1="232.2" x2="214.6" y2="293.7" stroke="#147c72" stroke-width="4" stroke-linecap="round"/>
<line x1="242.3" y1="89.0" x2="267.1" y2="88.0" stroke="#147c72" stroke-width="4" stroke-linecap="round"/>
<line x1="267.1" y1="88.0" x2="274.0" y2="116.1" stroke="#147c72" stroke-width="4" stroke-linecap="round"/>
<line x1="274.0" y1="116.1" x2="250.5" y2="86.3" stroke="#147c72" stroke-width="4" stroke-linecap="round"/>
<line x1="242.3" y1="89.0" x2="223.7" y2="90.0" stroke="#147c72" stroke-width="4" stroke-linecap="round"/>
<line x1="223.7" y1="90.0" x2="206.0" y2="118.3" stroke="#147c72" stroke-width="4" stroke-linecap="round"/>
<line x1="206.0" y1="118.3" x2="222.8" y2="87.0" stroke="#147c72" stroke-width="4" stroke-linecap="round"/>
<circle cx="242.6" cy="65.0" r="3.5" fill="#147c72"/>
<circle cx="271.5" cy="295.0" r="3.5" fill="#147c72"/>
<circle cx="274.0" cy="116.1" r="3.5" fill="#147c72"/>
<circle cx="257.0" cy="176.1" r="3.5" fill="#147c72"/>
<circle cx="272.5" cy="233.1" r="3.5" fill="#147c72"/>
<circle cx="267.1" cy="88.0" r="3.5" fill="#147c72"/>
<circle cx="250.5" cy="86.3" r="3.5" fill="#147c72"/>
<circle cx="242.3" cy="89.0" r="3.5" fill="#147c72"/>
<circle cx="245.8" cy="160.6" r="3.5" fill="#147c72"/>
<circle cx="214.6" cy="293.7" r="3.5" fill="#147c72"/>
<circle cx="206.0" cy="118.3" r="3.5" fill="#147c72"/>
<circle cx="234.9" cy="178.3" r="3.5" fill="#147c72"/>
<circle cx="219.0" cy="232.2" r="3.5" fill="#147c72"/>
<circle cx="223.7" cy="90.0" r="3.5" fill="#147c72"/>
<circle cx="222.8" cy="87.0" r="3.5" fill="#147c72"/>
<circle cx="245.0" cy="116.4" r="3.5" fill="#147c72"/></g>
<g transform="translate(704 210)"><line x1="245.5" y1="157.6" x2="244.8" y2="112.5" stroke="#b84e32" stroke-width="4" stroke-linecap="round"/>
<line x1="244.8" y1="112.5" x2="242.2" y2="84.5" stroke="#b84e32" stroke-width="4" stroke-linecap="round"/>
<line x1="242.2" y1="84.5" x2="242.5" y2="65.0" stroke="#b84e32" stroke-width="4" stroke-linecap="round"/>
<line x1="244.8" y1="112.5" x2="256.3" y2="173.6" stroke="#b84e32" stroke-width="4" stroke-linecap="round"/>
<line x1="256.3" y1="173.6" x2="271.2" y2="231.7" stroke="#b84e32" stroke-width="4" stroke-linecap="round"/>
<line x1="271.2" y1="231.7" x2="270.2" y2="295.0" stroke="#b84e32" stroke-width="4" stroke-linecap="round"/>
<line x1="244.8" y1="112.5" x2="235.1" y2="175.8" stroke="#b84e32" stroke-width="4" stroke-linecap="round"/>
<line x1="235.1" y1="175.8" x2="219.8" y2="230.9" stroke="#b84e32" stroke-width="4" stroke-linecap="round"/>
<line x1="219.8" y1="230.9" x2="215.6" y2="293.7" stroke="#b84e32" stroke-width="4" stroke-linecap="round"/>
<line x1="242.2" y1="84.5" x2="266.0" y2="83.5" stroke="#b84e32" stroke-width="4" stroke-linecap="round"/>
<line x1="266.0" y1="83.5" x2="272.6" y2="122.2" stroke="#b84e32" stroke-width="4" stroke-linecap="round"/>
<line x1="272.6" y1="122.2" x2="250.5" y2="101.8" stroke="#b84e32" stroke-width="4" stroke-linecap="round"/>
<line x1="242.2" y1="84.5" x2="224.4" y2="85.5" stroke="#b84e32" stroke-width="4" stroke-linecap="round"/>
<line x1="224.4" y1="85.5" x2="207.4" y2="124.5" stroke="#b84e32" stroke-width="4" stroke-linecap="round"/>
<line x1="207.4" y1="124.5" x2="221.8" y2="102.4" stroke="#b84e32" stroke-width="4" stroke-linecap="round"/>
<circle cx="242.5" cy="65.0" r="3.5" fill="#b84e32"/>
<circle cx="270.2" cy="295.0" r="3.5" fill="#b84e32"/>
<circle cx="272.6" cy="122.2" r="3.5" fill="#b84e32"/>
<circle cx="256.3" cy="173.6" r="3.5" fill="#b84e32"/>
<circle cx="271.2" cy="231.7" r="3.5" fill="#b84e32"/>
<circle cx="266.0" cy="83.5" r="3.5" fill="#b84e32"/>
<circle cx="250.5" cy="101.8" r="3.5" fill="#b84e32"/>
<circle cx="242.2" cy="84.5" r="3.5" fill="#b84e32"/>
<circle cx="245.5" cy="157.6" r="3.5" fill="#b84e32"/>
<circle cx="215.6" cy="293.7" r="3.5" fill="#b84e32"/>
<circle cx="207.4" cy="124.5" r="3.5" fill="#b84e32"/>
<circle cx="235.1" cy="175.8" r="3.5" fill="#b84e32"/>
<circle cx="219.8" cy="230.9" r="3.5" fill="#b84e32"/>
<circle cx="224.4" cy="85.5" r="3.5" fill="#b84e32"/>
<circle cx="221.8" cy="102.4" r="3.5" fill="#b84e32"/>
<circle cx="244.8" cy="112.5" r="3.5" fill="#b84e32"/></g>
<text x="56" y="684" class="muted">Scoring source: SMPL-X. G1 scoring allowed: false. Feedback passed: False</text>
<text x="696" y="672" class="muted">Routine feedback anchors: opening stance, settled support, raise hands apex</text>
<text x="696" y="696" class="muted">SMPL-X surface layer: SMPL-X surface proxy</text>
</svg>