<svg xmlns="http://www.w3.org/2000/svg" width="1280" height="720" viewBox="0 0 1280 720" role="img">
<style>text{font-family:Inter,Arial,sans-serif}.title{font-size:30px;font-weight:760;fill:#17212b}.muted{font-size:16px;fill:#66717f}.badge{font-size:14px;font-weight:760;fill:#b54708}</style>
<rect width="1280" height="720" fill="#eef2f6"/>
<rect x="32" y="28" width="1216" height="86" rx="8" fill="#ffffff" stroke="#d8e0e8"/>
<text x="56" y="68" class="title">neodojo public fixture demo</text>
<text x="56" y="94" class="muted">SMPL-X teacher + Unitree G1 MuJoCo model replay - frame 9</text>
<text x="1080" y="66" class="badge">REAL ARTIFACT</text>
<rect x="48" y="144" width="560" height="500" rx="8" fill="#ffffff" stroke="#d8e0e8"/>
<rect x="672" y="144" width="560" height="500" rx="8" fill="#ffffff" stroke="#d8e0e8"/>
<text x="72" y="184" class="title">SMPL-X teacher</text>
<text x="696" y="184" class="title">Unitree G1 MuJoCo model replay</text>
<g transform="translate(80 210)"><line x1="241.6" y1="183.8" x2="239.8" y2="146.2" stroke="#147c72" stroke-opacity="0.16" stroke-width="18.9" stroke-linecap="round"/>
<line x1="239.8" y1="146.2" x2="238.2" y2="124.6" stroke="#147c72" stroke-opacity="0.16" stroke-width="17.1" stroke-linecap="round"/>
<line x1="238.2" y1="124.6" x2="243.2" y2="104.2" stroke="#147c72" stroke-opacity="0.16" stroke-width="12.6" stroke-linecap="round"/>
<line x1="239.8" y1="146.2" x2="249.3" y2="196.5" stroke="#147c72" stroke-opacity="0.16" stroke-width="15.3" stroke-linecap="round"/>
<line x1="249.3" y1="196.5" x2="262.6" y2="243.6" stroke="#147c72" stroke-opacity="0.16" stroke-width="10.8" stroke-linecap="round"/>
<line x1="262.6" y1="243.6" x2="259.1" y2="294.9" stroke="#147c72" stroke-opacity="0.16" stroke-width="8.1" stroke-linecap="round"/>
<line x1="239.8" y1="146.2" x2="232.1" y2="197.7" stroke="#147c72" stroke-opacity="0.16" stroke-width="15.3" stroke-linecap="round"/>
<line x1="232.1" y1="197.7" x2="223.4" y2="243.6" stroke="#147c72" stroke-opacity="0.16" stroke-width="10.8" stroke-linecap="round"/>
<line x1="223.4" y1="243.6" x2="219.8" y2="295.0" stroke="#147c72" stroke-opacity="0.16" stroke-width="8.1" stroke-linecap="round"/>
<line x1="238.2" y1="124.6" x2="264.0" y2="132.7" stroke="#147c72" stroke-opacity="0.16" stroke-width="9.9" stroke-linecap="round"/>
<line x1="264.0" y1="132.7" x2="269.2" y2="167.1" stroke="#147c72" stroke-opacity="0.16" stroke-width="8.1" stroke-linecap="round"/>
<line x1="269.2" y1="167.1" x2="250.6" y2="166.4" stroke="#147c72" stroke-opacity="0.16" stroke-width="8.0" stroke-linecap="round"/>
<line x1="238.2" y1="124.6" x2="224.2" y2="121.8" stroke="#147c72" stroke-opacity="0.16" stroke-width="9.9" stroke-linecap="round"/>
<line x1="224.2" y1="121.8" x2="210.8" y2="94.0" stroke="#147c72" stroke-opacity="0.16" stroke-width="8.1" stroke-linecap="round"/>
<line x1="210.8" y1="94.0" x2="224.4" y2="65.0" stroke="#147c72" stroke-opacity="0.16" stroke-width="8.0" stroke-linecap="round"/><line x1="241.6" y1="183.8" x2="239.8" y2="146.2" stroke="#147c72" stroke-width="4" stroke-linecap="round"/>
<line x1="239.8" y1="146.2" x2="238.2" y2="124.6" stroke="#147c72" stroke-width="4" stroke-linecap="round"/>
<line x1="238.2" y1="124.6" x2="243.2" y2="104.2" stroke="#147c72" stroke-width="4" stroke-linecap="round"/>
<line x1="239.8" y1="146.2" x2="249.3" y2="196.5" stroke="#147c72" stroke-width="4" stroke-linecap="round"/>
<line x1="249.3" y1="196.5" x2="262.6" y2="243.6" stroke="#147c72" stroke-width="4" stroke-linecap="round"/>
<line x1="262.6" y1="243.6" x2="259.1" y2="294.9" stroke="#147c72" stroke-width="4" stroke-linecap="round"/>
<line x1="239.8" y1="146.2" x2="232.1" y2="197.7" stroke="#147c72" stroke-width="4" stroke-linecap="round"/>
<line x1="232.1" y1="197.7" x2="223.4" y2="243.6" stroke="#147c72" stroke-width="4" stroke-linecap="round"/>
<line x1="223.4" y1="243.6" x2="219.8" y2="295.0" stroke="#147c72" stroke-width="4" stroke-linecap="round"/>
<line x1="238.2" y1="124.6" x2="264.0" y2="132.7" stroke="#147c72" stroke-width="4" stroke-linecap="round"/>
<line x1="264.0" y1="132.7" x2="269.2" y2="167.1" stroke="#147c72" stroke-width="4" stroke-linecap="round"/>
<line x1="269.2" y1="167.1" x2="250.6" y2="166.4" stroke="#147c72" stroke-width="4" stroke-linecap="round"/>
<line x1="238.2" y1="124.6" x2="224.2" y2="121.8" stroke="#147c72" stroke-width="4" stroke-linecap="round"/>
<line x1="224.2" y1="121.8" x2="210.8" y2="94.0" stroke="#147c72" stroke-width="4" stroke-linecap="round"/>
<line x1="210.8" y1="94.0" x2="224.4" y2="65.0" stroke="#147c72" stroke-width="4" stroke-linecap="round"/>
<circle cx="243.2" cy="104.2" r="3.5" fill="#147c72"/>
<circle cx="259.1" cy="294.9" r="3.5" fill="#147c72"/>
<circle cx="269.2" cy="167.1" r="3.5" fill="#147c72"/>
<circle cx="249.3" cy="196.5" r="3.5" fill="#147c72"/>
<circle cx="262.6" cy="243.6" r="3.5" fill="#147c72"/>
<circle cx="264.0" cy="132.7" r="3.5" fill="#147c72"/>
<circle cx="250.6" cy="166.4" r="3.5" fill="#147c72"/>
<circle cx="238.2" cy="124.6" r="3.5" fill="#147c72"/>
<circle cx="241.6" cy="183.8" r="3.5" fill="#147c72"/>
<circle cx="219.8" cy="295.0" r="3.5" fill="#147c72"/>
<circle cx="210.8" cy="94.0" r="3.5" fill="#147c72"/>
<circle cx="232.1" cy="197.7" r="3.5" fill="#147c72"/>
<circle cx="223.4" cy="243.6" r="3.5" fill="#147c72"/>
<circle cx="224.2" cy="121.8" r="3.5" fill="#147c72"/>
<circle cx="224.4" cy="65.0" r="3.5" fill="#147c72"/>
<circle cx="239.8" cy="146.2" r="3.5" fill="#147c72"/></g>
<g transform="translate(704 210)"><line x1="241.6" y1="175.5" x2="239.8" y2="135.2" stroke="#b84e32" stroke-width="4" stroke-linecap="round"/>
<line x1="239.8" y1="135.2" x2="238.2" y2="111.9" stroke="#b84e32" stroke-width="4" stroke-linecap="round"/>
<line x1="238.2" y1="111.9" x2="243.2" y2="94.4" stroke="#b84e32" stroke-width="4" stroke-linecap="round"/>
<line x1="239.8" y1="135.2" x2="249.3" y2="189.2" stroke="#b84e32" stroke-width="4" stroke-linecap="round"/>
<line x1="249.3" y1="189.2" x2="262.8" y2="239.8" stroke="#b84e32" stroke-width="4" stroke-linecap="round"/>
<line x1="262.8" y1="239.8" x2="259.3" y2="294.9" stroke="#b84e32" stroke-width="4" stroke-linecap="round"/>
<line x1="239.8" y1="135.2" x2="232.0" y2="190.5" stroke="#b84e32" stroke-width="4" stroke-linecap="round"/>
<line x1="232.0" y1="190.5" x2="223.3" y2="239.7" stroke="#b84e32" stroke-width="4" stroke-linecap="round"/>
<line x1="223.3" y1="239.7" x2="219.6" y2="295.0" stroke="#b84e32" stroke-width="4" stroke-linecap="round"/>
<line x1="238.2" y1="111.9" x2="264.2" y2="120.7" stroke="#b84e32" stroke-width="4" stroke-linecap="round"/>
<line x1="264.2" y1="120.7" x2="269.5" y2="166.2" stroke="#b84e32" stroke-width="4" stroke-linecap="round"/>
<line x1="269.5" y1="166.2" x2="251.5" y2="173.9" stroke="#b84e32" stroke-width="4" stroke-linecap="round"/>
<line x1="238.2" y1="111.9" x2="224.0" y2="109.0" stroke="#b84e32" stroke-width="4" stroke-linecap="round"/>
<line x1="224.0" y1="109.0" x2="210.5" y2="87.6" stroke="#b84e32" stroke-width="4" stroke-linecap="round"/>
<line x1="210.5" y1="87.6" x2="222.9" y2="65.0" stroke="#b84e32" stroke-width="4" stroke-linecap="round"/>
<circle cx="243.2" cy="94.4" r="3.5" fill="#b84e32"/>
<circle cx="259.3" cy="294.9" r="3.5" fill="#b84e32"/>
<circle cx="269.5" cy="166.2" r="3.5" fill="#b84e32"/>
<circle cx="249.3" cy="189.2" r="3.5" fill="#b84e32"/>
<circle cx="262.8" cy="239.8" r="3.5" fill="#b84e32"/>
<circle cx="264.2" cy="120.7" r="3.5" fill="#b84e32"/>
<circle cx="251.5" cy="173.9" r="3.5" fill="#b84e32"/>
<circle cx="238.2" cy="111.9" r="3.5" fill="#b84e32"/>
<circle cx="241.6" cy="175.5" r="3.5" fill="#b84e32"/>
<circle cx="219.6" cy="295.0" r="3.5" fill="#b84e32"/>
<circle cx="210.5" cy="87.6" r="3.5" fill="#b84e32"/>
<circle cx="232.0" cy="190.5" r="3.5" fill="#b84e32"/>
<circle cx="223.3" cy="239.7" r="3.5" fill="#b84e32"/>
<circle cx="224.0" cy="109.0" r="3.5" fill="#b84e32"/>
<circle cx="222.9" cy="65.0" r="3.5" fill="#b84e32"/>
<circle cx="239.8" cy="135.2" r="3.5" fill="#b84e32"/></g>
<text x="56" y="684" class="muted">Scoring source: SMPL-X. G1 scoring allowed: false. Feedback passed: False</text>
<text x="696" y="672" class="muted">Routine feedback anchors: opening stance, settled support, raise hands apex</text>
<text x="696" y="696" class="muted">SMPL-X surface layer: SMPL-X surface proxy</text>
</svg>