<svg xmlns="http://www.w3.org/2000/svg" width="1280" height="720" viewBox="0 0 1280 720" role="img">
<style>text{font-family:Inter,Arial,sans-serif}.title{font-size:30px;font-weight:760;fill:#17212b}.muted{font-size:16px;fill:#66717f}.badge{font-size:14px;font-weight:760;fill:#b54708}</style>
<rect width="1280" height="720" fill="#eef2f6"/>
<rect x="32" y="28" width="1216" height="86" rx="8" fill="#ffffff" stroke="#d8e0e8"/>
<text x="56" y="68" class="title">neodojo public fixture demo</text>
<text x="56" y="94" class="muted">SMPL-X teacher + Unitree G1 MuJoCo model replay - frame 266</text>
<text x="1080" y="66" class="badge">REAL ARTIFACT</text>
<rect x="48" y="144" width="560" height="500" rx="8" fill="#ffffff" stroke="#d8e0e8"/>
<rect x="672" y="144" width="560" height="500" rx="8" fill="#ffffff" stroke="#d8e0e8"/>
<text x="72" y="184" class="title">SMPL-X teacher</text>
<text x="696" y="184" class="title">Unitree G1 MuJoCo model replay</text>
<g transform="translate(80 210)"><line x1="245.5" y1="184.5" x2="245.7" y2="147.6" stroke="#147c72" stroke-opacity="0.16" stroke-width="18.9" stroke-linecap="round"/>
<line x1="245.7" y1="147.6" x2="243.3" y2="127.7" stroke="#147c72" stroke-opacity="0.16" stroke-width="17.1" stroke-linecap="round"/>
<line x1="243.3" y1="127.7" x2="248.5" y2="107.7" stroke="#147c72" stroke-opacity="0.16" stroke-width="12.6" stroke-linecap="round"/>
<line x1="245.7" y1="147.6" x2="253.0" y2="197.2" stroke="#147c72" stroke-opacity="0.16" stroke-width="15.3" stroke-linecap="round"/>
<line x1="253.0" y1="197.2" x2="265.0" y2="244.0" stroke="#147c72" stroke-opacity="0.16" stroke-width="10.8" stroke-linecap="round"/>
<line x1="265.0" y1="244.0" x2="268.3" y2="295.0" stroke="#147c72" stroke-opacity="0.16" stroke-width="8.1" stroke-linecap="round"/>
<line x1="245.7" y1="147.6" x2="236.2" y2="197.8" stroke="#147c72" stroke-opacity="0.16" stroke-width="15.3" stroke-linecap="round"/>
<line x1="236.2" y1="197.8" x2="222.5" y2="242.2" stroke="#147c72" stroke-opacity="0.16" stroke-width="10.8" stroke-linecap="round"/>
<line x1="222.5" y1="242.2" x2="211.7" y2="292.5" stroke="#147c72" stroke-opacity="0.16" stroke-width="8.1" stroke-linecap="round"/>
<line x1="243.3" y1="127.7" x2="258.4" y2="123.0" stroke="#147c72" stroke-opacity="0.16" stroke-width="9.9" stroke-linecap="round"/>
<line x1="258.4" y1="123.0" x2="265.6" y2="95.7" stroke="#147c72" stroke-opacity="0.16" stroke-width="8.1" stroke-linecap="round"/>
<line x1="265.6" y1="95.7" x2="262.7" y2="65.0" stroke="#147c72" stroke-opacity="0.16" stroke-width="8.0" stroke-linecap="round"/>
<line x1="243.3" y1="127.7" x2="233.4" y2="124.8" stroke="#147c72" stroke-opacity="0.16" stroke-width="9.9" stroke-linecap="round"/>
<line x1="233.4" y1="124.8" x2="224.5" y2="98.5" stroke="#147c72" stroke-opacity="0.16" stroke-width="8.1" stroke-linecap="round"/>
<line x1="224.5" y1="98.5" x2="234.3" y2="69.3" stroke="#147c72" stroke-opacity="0.16" stroke-width="8.0" stroke-linecap="round"/><line x1="245.5" y1="184.5" x2="245.7" y2="147.6" stroke="#147c72" stroke-width="4" stroke-linecap="round"/>
<line x1="245.7" y1="147.6" x2="243.3" y2="127.7" stroke="#147c72" stroke-width="4" stroke-linecap="round"/>
<line x1="243.3" y1="127.7" x2="248.5" y2="107.7" stroke="#147c72" stroke-width="4" stroke-linecap="round"/>
<line x1="245.7" y1="147.6" x2="253.0" y2="197.2" stroke="#147c72" stroke-width="4" stroke-linecap="round"/>
<line x1="253.0" y1="197.2" x2="265.0" y2="244.0" stroke="#147c72" stroke-width="4" stroke-linecap="round"/>
<line x1="265.0" y1="244.0" x2="268.3" y2="295.0" stroke="#147c72" stroke-width="4" stroke-linecap="round"/>
<line x1="245.7" y1="147.6" x2="236.2" y2="197.8" stroke="#147c72" stroke-width="4" stroke-linecap="round"/>
<line x1="236.2" y1="197.8" x2="222.5" y2="242.2" stroke="#147c72" stroke-width="4" stroke-linecap="round"/>
<line x1="222.5" y1="242.2" x2="211.7" y2="292.5" stroke="#147c72" stroke-width="4" stroke-linecap="round"/>
<line x1="243.3" y1="127.7" x2="258.4" y2="123.0" stroke="#147c72" stroke-width="4" stroke-linecap="round"/>
<line x1="258.4" y1="123.0" x2="265.6" y2="95.7" stroke="#147c72" stroke-width="4" stroke-linecap="round"/>
<line x1="265.6" y1="95.7" x2="262.7" y2="65.0" stroke="#147c72" stroke-width="4" stroke-linecap="round"/>
<line x1="243.3" y1="127.7" x2="233.4" y2="124.8" stroke="#147c72" stroke-width="4" stroke-linecap="round"/>
<line x1="233.4" y1="124.8" x2="224.5" y2="98.5" stroke="#147c72" stroke-width="4" stroke-linecap="round"/>
<line x1="224.5" y1="98.5" x2="234.3" y2="69.3" stroke="#147c72" stroke-width="4" stroke-linecap="round"/>
<circle cx="248.5" cy="107.7" r="3.5" fill="#147c72"/>
<circle cx="268.3" cy="295.0" r="3.5" fill="#147c72"/>
<circle cx="265.6" cy="95.7" r="3.5" fill="#147c72"/>
<circle cx="253.0" cy="197.2" r="3.5" fill="#147c72"/>
<circle cx="265.0" cy="244.0" r="3.5" fill="#147c72"/>
<circle cx="258.4" cy="123.0" r="3.5" fill="#147c72"/>
<circle cx="262.7" cy="65.0" r="3.5" fill="#147c72"/>
<circle cx="243.3" cy="127.7" r="3.5" fill="#147c72"/>
<circle cx="245.5" cy="184.5" r="3.5" fill="#147c72"/>
<circle cx="211.7" cy="292.5" r="3.5" fill="#147c72"/>
<circle cx="224.5" cy="98.5" r="3.5" fill="#147c72"/>
<circle cx="236.2" cy="197.8" r="3.5" fill="#147c72"/>
<circle cx="222.5" cy="242.2" r="3.5" fill="#147c72"/>
<circle cx="233.4" cy="124.8" r="3.5" fill="#147c72"/>
<circle cx="234.3" cy="69.3" r="3.5" fill="#147c72"/>
<circle cx="245.7" cy="147.6" r="3.5" fill="#147c72"/></g>
<g transform="translate(704 210)"><line x1="245.5" y1="176.1" x2="245.8" y2="136.5" stroke="#b84e32" stroke-width="4" stroke-linecap="round"/>
<line x1="245.8" y1="136.5" x2="243.4" y2="115.1" stroke="#b84e32" stroke-width="4" stroke-linecap="round"/>
<line x1="243.4" y1="115.1" x2="248.6" y2="98.0" stroke="#b84e32" stroke-width="4" stroke-linecap="round"/>
<line x1="245.8" y1="136.5" x2="253.1" y2="189.8" stroke="#b84e32" stroke-width="4" stroke-linecap="round"/>
<line x1="253.1" y1="189.8" x2="265.3" y2="240.2" stroke="#b84e32" stroke-width="4" stroke-linecap="round"/>
<line x1="265.3" y1="240.2" x2="268.6" y2="295.0" stroke="#b84e32" stroke-width="4" stroke-linecap="round"/>
<line x1="245.8" y1="136.5" x2="236.1" y2="190.5" stroke="#b84e32" stroke-width="4" stroke-linecap="round"/>
<line x1="236.1" y1="190.5" x2="222.3" y2="238.2" stroke="#b84e32" stroke-width="4" stroke-linecap="round"/>
<line x1="222.3" y1="238.2" x2="211.4" y2="292.3" stroke="#b84e32" stroke-width="4" stroke-linecap="round"/>
<line x1="243.4" y1="115.1" x2="258.5" y2="110.0" stroke="#b84e32" stroke-width="4" stroke-linecap="round"/>
<line x1="258.5" y1="110.0" x2="265.9" y2="89.3" stroke="#b84e32" stroke-width="4" stroke-linecap="round"/>
<line x1="265.9" y1="89.3" x2="264.2" y2="65.0" stroke="#b84e32" stroke-width="4" stroke-linecap="round"/>
<line x1="243.4" y1="115.1" x2="233.3" y2="112.0" stroke="#b84e32" stroke-width="4" stroke-linecap="round"/>
<line x1="233.3" y1="112.0" x2="224.3" y2="92.4" stroke="#b84e32" stroke-width="4" stroke-linecap="round"/>
<line x1="224.3" y1="92.4" x2="233.3" y2="69.6" stroke="#b84e32" stroke-width="4" stroke-linecap="round"/>
<circle cx="248.6" cy="98.0" r="3.5" fill="#b84e32"/>
<circle cx="268.6" cy="295.0" r="3.5" fill="#b84e32"/>
<circle cx="265.9" cy="89.3" r="3.5" fill="#b84e32"/>
<circle cx="253.1" cy="189.8" r="3.5" fill="#b84e32"/>
<circle cx="265.3" cy="240.2" r="3.5" fill="#b84e32"/>
<circle cx="258.5" cy="110.0" r="3.5" fill="#b84e32"/>
<circle cx="264.2" cy="65.0" r="3.5" fill="#b84e32"/>
<circle cx="243.4" cy="115.1" r="3.5" fill="#b84e32"/>
<circle cx="245.5" cy="176.1" r="3.5" fill="#b84e32"/>
<circle cx="211.4" cy="292.3" r="3.5" fill="#b84e32"/>
<circle cx="224.3" cy="92.4" r="3.5" fill="#b84e32"/>
<circle cx="236.1" cy="190.5" r="3.5" fill="#b84e32"/>
<circle cx="222.3" cy="238.2" r="3.5" fill="#b84e32"/>
<circle cx="233.3" cy="112.0" r="3.5" fill="#b84e32"/>
<circle cx="233.3" cy="69.6" r="3.5" fill="#b84e32"/>
<circle cx="245.8" cy="136.5" r="3.5" fill="#b84e32"/></g>
<text x="56" y="684" class="muted">Scoring source: SMPL-X. G1 scoring allowed: false. Feedback passed: False</text>
<text x="696" y="672" class="muted">Routine feedback anchors: opening stance, settled support, raise hands apex</text>
<text x="696" y="696" class="muted">SMPL-X surface layer: SMPL-X surface proxy</text>
</svg>