<svg xmlns="http://www.w3.org/2000/svg" width="1280" height="720" viewBox="0 0 1280 720" role="img">
<style>text{font-family:Inter,Arial,sans-serif}.title{font-size:30px;font-weight:760;fill:#17212b}.muted{font-size:16px;fill:#66717f}.badge{font-size:14px;font-weight:760;fill:#b54708}</style>
<rect width="1280" height="720" fill="#eef2f6"/>
<rect x="32" y="28" width="1216" height="86" rx="8" fill="#ffffff" stroke="#d8e0e8"/>
<text x="56" y="68" class="title">neodojo public fixture demo</text>
<text x="56" y="94" class="muted">SMPL-X teacher + Unitree G1 MuJoCo model replay - frame 296</text>
<text x="1080" y="66" class="badge">REAL ARTIFACT</text>
<rect x="48" y="144" width="560" height="500" rx="8" fill="#ffffff" stroke="#d8e0e8"/>
<rect x="672" y="144" width="560" height="500" rx="8" fill="#ffffff" stroke="#d8e0e8"/>
<text x="72" y="184" class="title">SMPL-X teacher</text>
<text x="696" y="184" class="title">Unitree G1 MuJoCo model replay</text>
<g transform="translate(80 210)"><line x1="236.4" y1="164.7" x2="234.8" y2="120.2" stroke="#147c72" stroke-opacity="0.16" stroke-width="18.9" stroke-linecap="round"/>
<line x1="234.8" y1="120.2" x2="233.0" y2="95.3" stroke="#147c72" stroke-opacity="0.16" stroke-width="17.1" stroke-linecap="round"/>
<line x1="233.0" y1="95.3" x2="238.5" y2="70.6" stroke="#147c72" stroke-opacity="0.16" stroke-width="12.6" stroke-linecap="round"/>
<line x1="234.8" y1="120.2" x2="246.5" y2="179.5" stroke="#147c72" stroke-opacity="0.16" stroke-width="15.3" stroke-linecap="round"/>
<line x1="246.5" y1="179.5" x2="262.8" y2="234.4" stroke="#147c72" stroke-opacity="0.16" stroke-width="10.8" stroke-linecap="round"/>
<line x1="262.8" y1="234.4" x2="265.0" y2="294.9" stroke="#147c72" stroke-opacity="0.16" stroke-width="8.1" stroke-linecap="round"/>
<line x1="234.8" y1="120.2" x2="225.9" y2="181.5" stroke="#147c72" stroke-opacity="0.16" stroke-width="15.3" stroke-linecap="round"/>
<line x1="225.9" y1="181.5" x2="212.5" y2="234.8" stroke="#147c72" stroke-opacity="0.16" stroke-width="10.8" stroke-linecap="round"/>
<line x1="212.5" y1="234.8" x2="206.8" y2="295.0" stroke="#147c72" stroke-opacity="0.16" stroke-width="8.1" stroke-linecap="round"/>
<line x1="233.0" y1="95.3" x2="258.9" y2="98.9" stroke="#147c72" stroke-opacity="0.16" stroke-width="9.9" stroke-linecap="round"/>
<line x1="258.9" y1="98.9" x2="298.3" y2="104.0" stroke="#147c72" stroke-opacity="0.16" stroke-width="8.1" stroke-linecap="round"/>
<line x1="298.3" y1="104.0" x2="333.4" y2="94.3" stroke="#147c72" stroke-opacity="0.16" stroke-width="8.0" stroke-linecap="round"/>
<line x1="233.0" y1="95.3" x2="213.7" y2="96.7" stroke="#147c72" stroke-opacity="0.16" stroke-width="9.9" stroke-linecap="round"/>
<line x1="213.7" y1="96.7" x2="176.8" y2="83.0" stroke="#147c72" stroke-opacity="0.16" stroke-width="8.1" stroke-linecap="round"/>
<line x1="176.8" y1="83.0" x2="146.6" y2="65.0" stroke="#147c72" stroke-opacity="0.16" stroke-width="8.0" stroke-linecap="round"/><line x1="236.4" y1="164.7" x2="234.8" y2="120.2" stroke="#147c72" stroke-width="4" stroke-linecap="round"/>
<line x1="234.8" y1="120.2" x2="233.0" y2="95.3" stroke="#147c72" stroke-width="4" stroke-linecap="round"/>
<line x1="233.0" y1="95.3" x2="238.5" y2="70.6" stroke="#147c72" stroke-width="4" stroke-linecap="round"/>
<line x1="234.8" y1="120.2" x2="246.5" y2="179.5" stroke="#147c72" stroke-width="4" stroke-linecap="round"/>
<line x1="246.5" y1="179.5" x2="262.8" y2="234.4" stroke="#147c72" stroke-width="4" stroke-linecap="round"/>
<line x1="262.8" y1="234.4" x2="265.0" y2="294.9" stroke="#147c72" stroke-width="4" stroke-linecap="round"/>
<line x1="234.8" y1="120.2" x2="225.9" y2="181.5" stroke="#147c72" stroke-width="4" stroke-linecap="round"/>
<line x1="225.9" y1="181.5" x2="212.5" y2="234.8" stroke="#147c72" stroke-width="4" stroke-linecap="round"/>
<line x1="212.5" y1="234.8" x2="206.8" y2="295.0" stroke="#147c72" stroke-width="4" stroke-linecap="round"/>
<line x1="233.0" y1="95.3" x2="258.9" y2="98.9" stroke="#147c72" stroke-width="4" stroke-linecap="round"/>
<line x1="258.9" y1="98.9" x2="298.3" y2="104.0" stroke="#147c72" stroke-width="4" stroke-linecap="round"/>
<line x1="298.3" y1="104.0" x2="333.4" y2="94.3" stroke="#147c72" stroke-width="4" stroke-linecap="round"/>
<line x1="233.0" y1="95.3" x2="213.7" y2="96.7" stroke="#147c72" stroke-width="4" stroke-linecap="round"/>
<line x1="213.7" y1="96.7" x2="176.8" y2="83.0" stroke="#147c72" stroke-width="4" stroke-linecap="round"/>
<line x1="176.8" y1="83.0" x2="146.6" y2="65.0" stroke="#147c72" stroke-width="4" stroke-linecap="round"/>
<circle cx="238.5" cy="70.6" r="3.5" fill="#147c72"/>
<circle cx="265.0" cy="294.9" r="3.5" fill="#147c72"/>
<circle cx="298.3" cy="104.0" r="3.5" fill="#147c72"/>
<circle cx="246.5" cy="179.5" r="3.5" fill="#147c72"/>
<circle cx="262.8" cy="234.4" r="3.5" fill="#147c72"/>
<circle cx="258.9" cy="98.9" r="3.5" fill="#147c72"/>
<circle cx="333.4" cy="94.3" r="3.5" fill="#147c72"/>
<circle cx="233.0" cy="95.3" r="3.5" fill="#147c72"/>
<circle cx="236.4" cy="164.7" r="3.5" fill="#147c72"/>
<circle cx="206.8" cy="295.0" r="3.5" fill="#147c72"/>
<circle cx="176.8" cy="83.0" r="3.5" fill="#147c72"/>
<circle cx="225.9" cy="181.5" r="3.5" fill="#147c72"/>
<circle cx="212.5" cy="234.8" r="3.5" fill="#147c72"/>
<circle cx="213.7" cy="96.7" r="3.5" fill="#147c72"/>
<circle cx="146.6" cy="65.0" r="3.5" fill="#147c72"/>
<circle cx="234.8" cy="120.2" r="3.5" fill="#147c72"/></g>
<g transform="translate(704 210)"><line x1="236.9" y1="158.6" x2="235.4" y2="112.0" stroke="#b84e32" stroke-width="4" stroke-linecap="round"/>
<line x1="235.4" y1="112.0" x2="233.6" y2="86.0" stroke="#b84e32" stroke-width="4" stroke-linecap="round"/>
<line x1="233.6" y1="86.0" x2="239.0" y2="65.0" stroke="#b84e32" stroke-width="4" stroke-linecap="round"/>
<line x1="235.4" y1="112.0" x2="246.9" y2="174.0" stroke="#b84e32" stroke-width="4" stroke-linecap="round"/>
<line x1="246.9" y1="174.0" x2="262.9" y2="231.5" stroke="#b84e32" stroke-width="4" stroke-linecap="round"/>
<line x1="262.9" y1="231.5" x2="265.1" y2="294.9" stroke="#b84e32" stroke-width="4" stroke-linecap="round"/>
<line x1="235.4" y1="112.0" x2="226.6" y2="176.2" stroke="#b84e32" stroke-width="4" stroke-linecap="round"/>
<line x1="226.6" y1="176.2" x2="213.4" y2="232.0" stroke="#b84e32" stroke-width="4" stroke-linecap="round"/>
<line x1="213.4" y1="232.0" x2="207.8" y2="295.0" stroke="#b84e32" stroke-width="4" stroke-linecap="round"/>
<line x1="233.6" y1="86.0" x2="259.1" y2="89.8" stroke="#b84e32" stroke-width="4" stroke-linecap="round"/>
<line x1="259.1" y1="89.8" x2="297.8" y2="104.9" stroke="#b84e32" stroke-width="4" stroke-linecap="round"/>
<line x1="297.8" y1="104.9" x2="339.3" y2="104.5" stroke="#b84e32" stroke-width="4" stroke-linecap="round"/>
<line x1="233.6" y1="86.0" x2="214.6" y2="87.4" stroke="#b84e32" stroke-width="4" stroke-linecap="round"/>
<line x1="214.6" y1="87.4" x2="178.3" y2="82.9" stroke="#b84e32" stroke-width="4" stroke-linecap="round"/>
<line x1="178.3" y1="82.9" x2="140.7" y2="73.8" stroke="#b84e32" stroke-width="4" stroke-linecap="round"/>
<circle cx="239.0" cy="65.0" r="3.5" fill="#b84e32"/>
<circle cx="265.1" cy="294.9" r="3.5" fill="#b84e32"/>
<circle cx="297.8" cy="104.9" r="3.5" fill="#b84e32"/>
<circle cx="246.9" cy="174.0" r="3.5" fill="#b84e32"/>
<circle cx="262.9" cy="231.5" r="3.5" fill="#b84e32"/>
<circle cx="259.1" cy="89.8" r="3.5" fill="#b84e32"/>
<circle cx="339.3" cy="104.5" r="3.5" fill="#b84e32"/>
<circle cx="233.6" cy="86.0" r="3.5" fill="#b84e32"/>
<circle cx="236.9" cy="158.6" r="3.5" fill="#b84e32"/>
<circle cx="207.8" cy="295.0" r="3.5" fill="#b84e32"/>
<circle cx="178.3" cy="82.9" r="3.5" fill="#b84e32"/>
<circle cx="226.6" cy="176.2" r="3.5" fill="#b84e32"/>
<circle cx="213.4" cy="232.0" r="3.5" fill="#b84e32"/>
<circle cx="214.6" cy="87.4" r="3.5" fill="#b84e32"/>
<circle cx="140.7" cy="73.8" r="3.5" fill="#b84e32"/>
<circle cx="235.4" cy="112.0" r="3.5" fill="#b84e32"/></g>
<text x="56" y="684" class="muted">Scoring source: SMPL-X. G1 scoring allowed: false. Feedback passed: False</text>
<text x="696" y="672" class="muted">Routine feedback anchors: opening stance, settled support, raise hands apex</text>
<text x="696" y="696" class="muted">SMPL-X surface layer: SMPL-X surface proxy</text>
</svg>