<svg xmlns="http://www.w3.org/2000/svg" width="1280" height="720" viewBox="0 0 1280 720" role="img">
<style>text{font-family:Inter,Arial,sans-serif}.title{font-size:30px;font-weight:760;fill:#17212b}.muted{font-size:16px;fill:#66717f}.badge{font-size:14px;font-weight:760;fill:#b54708}</style>
<rect width="1280" height="720" fill="#eef2f6"/>
<rect x="32" y="28" width="1216" height="86" rx="8" fill="#ffffff" stroke="#d8e0e8"/>
<text x="56" y="68" class="title">neodojo public fixture demo</text>
<text x="56" y="94" class="muted">SMPL-X teacher + Unitree G1 MuJoCo model replay - frame 388</text>
<text x="1080" y="66" class="badge">REAL ARTIFACT</text>
<rect x="48" y="144" width="560" height="500" rx="8" fill="#ffffff" stroke="#d8e0e8"/>
<rect x="672" y="144" width="560" height="500" rx="8" fill="#ffffff" stroke="#d8e0e8"/>
<text x="72" y="184" class="title">SMPL-X teacher</text>
<text x="696" y="184" class="title">Unitree G1 MuJoCo model replay</text>
<g transform="translate(80 210)"><line x1="244.4" y1="182.8" x2="244.5" y2="144.6" stroke="#147c72" stroke-opacity="0.16" stroke-width="18.9" stroke-linecap="round"/>
<line x1="244.5" y1="144.6" x2="242.3" y2="123.0" stroke="#147c72" stroke-opacity="0.16" stroke-width="17.1" stroke-linecap="round"/>
<line x1="242.3" y1="123.0" x2="247.3" y2="102.0" stroke="#147c72" stroke-opacity="0.16" stroke-width="12.6" stroke-linecap="round"/>
<line x1="244.5" y1="144.6" x2="251.6" y2="195.4" stroke="#147c72" stroke-opacity="0.16" stroke-width="15.3" stroke-linecap="round"/>
<line x1="251.6" y1="195.4" x2="266.6" y2="242.7" stroke="#147c72" stroke-opacity="0.16" stroke-width="10.8" stroke-linecap="round"/>
<line x1="266.6" y1="242.7" x2="269.0" y2="295.0" stroke="#147c72" stroke-opacity="0.16" stroke-width="8.1" stroke-linecap="round"/>
<line x1="244.5" y1="144.6" x2="235.1" y2="196.2" stroke="#147c72" stroke-opacity="0.16" stroke-width="15.3" stroke-linecap="round"/>
<line x1="235.1" y1="196.2" x2="220.5" y2="241.2" stroke="#147c72" stroke-opacity="0.16" stroke-width="10.8" stroke-linecap="round"/>
<line x1="220.5" y1="241.2" x2="211.0" y2="293.0" stroke="#147c72" stroke-opacity="0.16" stroke-width="8.1" stroke-linecap="round"/>
<line x1="242.3" y1="123.0" x2="258.4" y2="118.5" stroke="#147c72" stroke-opacity="0.16" stroke-width="9.9" stroke-linecap="round"/>
<line x1="258.4" y1="118.5" x2="265.0" y2="95.4" stroke="#147c72" stroke-opacity="0.16" stroke-width="8.1" stroke-linecap="round"/>
<line x1="265.0" y1="95.4" x2="255.9" y2="65.0" stroke="#147c72" stroke-opacity="0.16" stroke-width="8.0" stroke-linecap="round"/>
<line x1="242.3" y1="123.0" x2="231.5" y2="120.3" stroke="#147c72" stroke-opacity="0.16" stroke-width="9.9" stroke-linecap="round"/>
<line x1="231.5" y1="120.3" x2="220.7" y2="95.9" stroke="#147c72" stroke-opacity="0.16" stroke-width="8.1" stroke-linecap="round"/>
<line x1="220.7" y1="95.9" x2="230.9" y2="67.0" stroke="#147c72" stroke-opacity="0.16" stroke-width="8.0" stroke-linecap="round"/><line x1="244.4" y1="182.8" x2="244.5" y2="144.6" stroke="#147c72" stroke-width="4" stroke-linecap="round"/>
<line x1="244.5" y1="144.6" x2="242.3" y2="123.0" stroke="#147c72" stroke-width="4" stroke-linecap="round"/>
<line x1="242.3" y1="123.0" x2="247.3" y2="102.0" stroke="#147c72" stroke-width="4" stroke-linecap="round"/>
<line x1="244.5" y1="144.6" x2="251.6" y2="195.4" stroke="#147c72" stroke-width="4" stroke-linecap="round"/>
<line x1="251.6" y1="195.4" x2="266.6" y2="242.7" stroke="#147c72" stroke-width="4" stroke-linecap="round"/>
<line x1="266.6" y1="242.7" x2="269.0" y2="295.0" stroke="#147c72" stroke-width="4" stroke-linecap="round"/>
<line x1="244.5" y1="144.6" x2="235.1" y2="196.2" stroke="#147c72" stroke-width="4" stroke-linecap="round"/>
<line x1="235.1" y1="196.2" x2="220.5" y2="241.2" stroke="#147c72" stroke-width="4" stroke-linecap="round"/>
<line x1="220.5" y1="241.2" x2="211.0" y2="293.0" stroke="#147c72" stroke-width="4" stroke-linecap="round"/>
<line x1="242.3" y1="123.0" x2="258.4" y2="118.5" stroke="#147c72" stroke-width="4" stroke-linecap="round"/>
<line x1="258.4" y1="118.5" x2="265.0" y2="95.4" stroke="#147c72" stroke-width="4" stroke-linecap="round"/>
<line x1="265.0" y1="95.4" x2="255.9" y2="65.0" stroke="#147c72" stroke-width="4" stroke-linecap="round"/>
<line x1="242.3" y1="123.0" x2="231.5" y2="120.3" stroke="#147c72" stroke-width="4" stroke-linecap="round"/>
<line x1="231.5" y1="120.3" x2="220.7" y2="95.9" stroke="#147c72" stroke-width="4" stroke-linecap="round"/>
<line x1="220.7" y1="95.9" x2="230.9" y2="67.0" stroke="#147c72" stroke-width="4" stroke-linecap="round"/>
<circle cx="247.3" cy="102.0" r="3.5" fill="#147c72"/>
<circle cx="269.0" cy="295.0" r="3.5" fill="#147c72"/>
<circle cx="265.0" cy="95.4" r="3.5" fill="#147c72"/>
<circle cx="251.6" cy="195.4" r="3.5" fill="#147c72"/>
<circle cx="266.6" cy="242.7" r="3.5" fill="#147c72"/>
<circle cx="258.4" cy="118.5" r="3.5" fill="#147c72"/>
<circle cx="255.9" cy="65.0" r="3.5" fill="#147c72"/>
<circle cx="242.3" cy="123.0" r="3.5" fill="#147c72"/>
<circle cx="244.4" cy="182.8" r="3.5" fill="#147c72"/>
<circle cx="211.0" cy="293.0" r="3.5" fill="#147c72"/>
<circle cx="220.7" cy="95.9" r="3.5" fill="#147c72"/>
<circle cx="235.1" cy="196.2" r="3.5" fill="#147c72"/>
<circle cx="220.5" cy="241.2" r="3.5" fill="#147c72"/>
<circle cx="231.5" cy="120.3" r="3.5" fill="#147c72"/>
<circle cx="230.9" cy="67.0" r="3.5" fill="#147c72"/>
<circle cx="244.5" cy="144.6" r="3.5" fill="#147c72"/></g>
<g transform="translate(704 210)"><line x1="244.4" y1="174.5" x2="244.6" y2="133.5" stroke="#b84e32" stroke-width="4" stroke-linecap="round"/>
<line x1="244.6" y1="133.5" x2="242.3" y2="110.4" stroke="#b84e32" stroke-width="4" stroke-linecap="round"/>
<line x1="242.3" y1="110.4" x2="247.3" y2="92.0" stroke="#b84e32" stroke-width="4" stroke-linecap="round"/>
<line x1="244.6" y1="133.5" x2="251.7" y2="188.1" stroke="#b84e32" stroke-width="4" stroke-linecap="round"/>
<line x1="251.7" y1="188.1" x2="266.9" y2="238.8" stroke="#b84e32" stroke-width="4" stroke-linecap="round"/>
<line x1="266.9" y1="238.8" x2="269.3" y2="295.0" stroke="#b84e32" stroke-width="4" stroke-linecap="round"/>
<line x1="244.6" y1="133.5" x2="235.1" y2="189.0" stroke="#b84e32" stroke-width="4" stroke-linecap="round"/>
<line x1="235.1" y1="189.0" x2="220.4" y2="237.2" stroke="#b84e32" stroke-width="4" stroke-linecap="round"/>
<line x1="220.4" y1="237.2" x2="210.7" y2="292.9" stroke="#b84e32" stroke-width="4" stroke-linecap="round"/>
<line x1="242.3" y1="110.4" x2="258.6" y2="105.5" stroke="#b84e32" stroke-width="4" stroke-linecap="round"/>
<line x1="258.6" y1="105.5" x2="265.3" y2="89.2" stroke="#b84e32" stroke-width="4" stroke-linecap="round"/>
<line x1="265.3" y1="89.2" x2="257.3" y2="65.0" stroke="#b84e32" stroke-width="4" stroke-linecap="round"/>
<line x1="242.3" y1="110.4" x2="231.4" y2="107.4" stroke="#b84e32" stroke-width="4" stroke-linecap="round"/>
<line x1="231.4" y1="107.4" x2="220.6" y2="89.7" stroke="#b84e32" stroke-width="4" stroke-linecap="round"/>
<line x1="220.6" y1="89.7" x2="230.0" y2="67.2" stroke="#b84e32" stroke-width="4" stroke-linecap="round"/>
<circle cx="247.3" cy="92.0" r="3.5" fill="#b84e32"/>
<circle cx="269.3" cy="295.0" r="3.5" fill="#b84e32"/>
<circle cx="265.3" cy="89.2" r="3.5" fill="#b84e32"/>
<circle cx="251.7" cy="188.1" r="3.5" fill="#b84e32"/>
<circle cx="266.9" cy="238.8" r="3.5" fill="#b84e32"/>
<circle cx="258.6" cy="105.5" r="3.5" fill="#b84e32"/>
<circle cx="257.3" cy="65.0" r="3.5" fill="#b84e32"/>
<circle cx="242.3" cy="110.4" r="3.5" fill="#b84e32"/>
<circle cx="244.4" cy="174.5" r="3.5" fill="#b84e32"/>
<circle cx="210.7" cy="292.9" r="3.5" fill="#b84e32"/>
<circle cx="220.6" cy="89.7" r="3.5" fill="#b84e32"/>
<circle cx="235.1" cy="189.0" r="3.5" fill="#b84e32"/>
<circle cx="220.4" cy="237.2" r="3.5" fill="#b84e32"/>
<circle cx="231.4" cy="107.4" r="3.5" fill="#b84e32"/>
<circle cx="230.0" cy="67.2" r="3.5" fill="#b84e32"/>
<circle cx="244.6" cy="133.5" r="3.5" fill="#b84e32"/></g>
<text x="56" y="684" class="muted">Scoring source: SMPL-X. G1 scoring allowed: false. Feedback passed: False</text>
<text x="696" y="672" class="muted">Routine feedback anchors: opening stance, settled support, raise hands apex</text>
<text x="696" y="696" class="muted">SMPL-X surface layer: SMPL-X surface proxy</text>
</svg>