<svg xmlns="http://www.w3.org/2000/svg" width="1280" height="720" viewBox="0 0 1280 720" role="img">
<style>text{font-family:Inter,Arial,sans-serif}.title{font-size:30px;font-weight:760;fill:#17212b}.muted{font-size:16px;fill:#66717f}.badge{font-size:14px;font-weight:760;fill:#b54708}</style>
<rect width="1280" height="720" fill="#eef2f6"/>
<rect x="32" y="28" width="1216" height="86" rx="8" fill="#ffffff" stroke="#d8e0e8"/>
<text x="56" y="68" class="title">neodojo public fixture demo</text>
<text x="56" y="94" class="muted">SMPL-X teacher + Unitree G1 MuJoCo model replay - frame 640</text>
<text x="1080" y="66" class="badge">REAL ARTIFACT</text>
<rect x="48" y="144" width="560" height="500" rx="8" fill="#ffffff" stroke="#d8e0e8"/>
<rect x="672" y="144" width="560" height="500" rx="8" fill="#ffffff" stroke="#d8e0e8"/>
<text x="72" y="184" class="title">SMPL-X teacher</text>
<text x="696" y="184" class="title">Unitree G1 MuJoCo model replay</text>
<g transform="translate(80 210)"><line x1="239.0" y1="169.5" x2="235.9" y2="120.1" stroke="#147c72" stroke-opacity="0.16" stroke-width="18.9" stroke-linecap="round"/>
<line x1="235.9" y1="120.1" x2="233.1" y2="91.4" stroke="#147c72" stroke-opacity="0.16" stroke-width="17.1" stroke-linecap="round"/>
<line x1="233.1" y1="91.4" x2="230.9" y2="65.0" stroke="#147c72" stroke-opacity="0.16" stroke-width="12.6" stroke-linecap="round"/>
<line x1="235.9" y1="120.1" x2="250.5" y2="185.3" stroke="#147c72" stroke-opacity="0.16" stroke-width="15.3" stroke-linecap="round"/>
<line x1="250.5" y1="185.3" x2="289.2" y2="232.0" stroke="#147c72" stroke-opacity="0.16" stroke-width="10.8" stroke-linecap="round"/>
<line x1="289.2" y1="232.0" x2="293.3" y2="295.0" stroke="#147c72" stroke-opacity="0.16" stroke-width="8.1" stroke-linecap="round"/>
<line x1="235.9" y1="120.1" x2="228.8" y2="187.7" stroke="#147c72" stroke-opacity="0.16" stroke-width="15.3" stroke-linecap="round"/>
<line x1="228.8" y1="187.7" x2="191.5" y2="231.6" stroke="#147c72" stroke-opacity="0.16" stroke-width="10.8" stroke-linecap="round"/>
<line x1="191.5" y1="231.6" x2="197.3" y2="294.5" stroke="#147c72" stroke-opacity="0.16" stroke-width="8.1" stroke-linecap="round"/>
<line x1="233.1" y1="91.4" x2="262.4" y2="93.4" stroke="#147c72" stroke-opacity="0.16" stroke-width="9.9" stroke-linecap="round"/>
<line x1="262.4" y1="93.4" x2="305.2" y2="94.9" stroke="#147c72" stroke-opacity="0.16" stroke-width="8.1" stroke-linecap="round"/>
<line x1="305.2" y1="94.9" x2="335.2" y2="76.3" stroke="#147c72" stroke-opacity="0.16" stroke-width="8.0" stroke-linecap="round"/>
<line x1="233.1" y1="91.4" x2="210.6" y2="98.5" stroke="#147c72" stroke-opacity="0.16" stroke-width="9.9" stroke-linecap="round"/>
<line x1="210.6" y1="98.5" x2="166.8" y2="100.2" stroke="#147c72" stroke-opacity="0.16" stroke-width="8.1" stroke-linecap="round"/>
<line x1="166.8" y1="100.2" x2="144.8" y2="72.8" stroke="#147c72" stroke-opacity="0.16" stroke-width="8.0" stroke-linecap="round"/><line x1="239.0" y1="169.5" x2="235.9" y2="120.1" stroke="#147c72" stroke-width="4" stroke-linecap="round"/>
<line x1="235.9" y1="120.1" x2="233.1" y2="91.4" stroke="#147c72" stroke-width="4" stroke-linecap="round"/>
<line x1="233.1" y1="91.4" x2="230.9" y2="65.0" stroke="#147c72" stroke-width="4" stroke-linecap="round"/>
<line x1="235.9" y1="120.1" x2="250.5" y2="185.3" stroke="#147c72" stroke-width="4" stroke-linecap="round"/>
<line x1="250.5" y1="185.3" x2="289.2" y2="232.0" stroke="#147c72" stroke-width="4" stroke-linecap="round"/>
<line x1="289.2" y1="232.0" x2="293.3" y2="295.0" stroke="#147c72" stroke-width="4" stroke-linecap="round"/>
<line x1="235.9" y1="120.1" x2="228.8" y2="187.7" stroke="#147c72" stroke-width="4" stroke-linecap="round"/>
<line x1="228.8" y1="187.7" x2="191.5" y2="231.6" stroke="#147c72" stroke-width="4" stroke-linecap="round"/>
<line x1="191.5" y1="231.6" x2="197.3" y2="294.5" stroke="#147c72" stroke-width="4" stroke-linecap="round"/>
<line x1="233.1" y1="91.4" x2="262.4" y2="93.4" stroke="#147c72" stroke-width="4" stroke-linecap="round"/>
<line x1="262.4" y1="93.4" x2="305.2" y2="94.9" stroke="#147c72" stroke-width="4" stroke-linecap="round"/>
<line x1="305.2" y1="94.9" x2="335.2" y2="76.3" stroke="#147c72" stroke-width="4" stroke-linecap="round"/>
<line x1="233.1" y1="91.4" x2="210.6" y2="98.5" stroke="#147c72" stroke-width="4" stroke-linecap="round"/>
<line x1="210.6" y1="98.5" x2="166.8" y2="100.2" stroke="#147c72" stroke-width="4" stroke-linecap="round"/>
<line x1="166.8" y1="100.2" x2="144.8" y2="72.8" stroke="#147c72" stroke-width="4" stroke-linecap="round"/>
<circle cx="230.9" cy="65.0" r="3.5" fill="#147c72"/>
<circle cx="293.3" cy="295.0" r="3.5" fill="#147c72"/>
<circle cx="305.2" cy="94.9" r="3.5" fill="#147c72"/>
<circle cx="250.5" cy="185.3" r="3.5" fill="#147c72"/>
<circle cx="289.2" cy="232.0" r="3.5" fill="#147c72"/>
<circle cx="262.4" cy="93.4" r="3.5" fill="#147c72"/>
<circle cx="335.2" cy="76.3" r="3.5" fill="#147c72"/>
<circle cx="233.1" cy="91.4" r="3.5" fill="#147c72"/>
<circle cx="239.0" cy="169.5" r="3.5" fill="#147c72"/>
<circle cx="197.3" cy="294.5" r="3.5" fill="#147c72"/>
<circle cx="166.8" cy="100.2" r="3.5" fill="#147c72"/>
<circle cx="228.8" cy="187.7" r="3.5" fill="#147c72"/>
<circle cx="191.5" cy="231.6" r="3.5" fill="#147c72"/>
<circle cx="210.6" cy="98.5" r="3.5" fill="#147c72"/>
<circle cx="144.8" cy="72.8" r="3.5" fill="#147c72"/>
<circle cx="235.9" cy="120.1" r="3.5" fill="#147c72"/></g>
<g transform="translate(704 210)"><line x1="233.9" y1="166.7" x2="230.9" y2="116.1" stroke="#b84e32" stroke-width="4" stroke-linecap="round"/>
<line x1="230.9" y1="116.1" x2="228.2" y2="86.9" stroke="#b84e32" stroke-width="4" stroke-linecap="round"/>
<line x1="228.2" y1="86.9" x2="226.1" y2="65.0" stroke="#b84e32" stroke-width="4" stroke-linecap="round"/>
<line x1="230.9" y1="116.1" x2="244.9" y2="182.9" stroke="#b84e32" stroke-width="4" stroke-linecap="round"/>
<line x1="244.9" y1="182.9" x2="282.1" y2="230.6" stroke="#b84e32" stroke-width="4" stroke-linecap="round"/>
<line x1="282.1" y1="230.6" x2="286.1" y2="295.0" stroke="#b84e32" stroke-width="4" stroke-linecap="round"/>
<line x1="230.9" y1="116.1" x2="224.0" y2="185.3" stroke="#b84e32" stroke-width="4" stroke-linecap="round"/>
<line x1="224.0" y1="185.3" x2="188.2" y2="230.2" stroke="#b84e32" stroke-width="4" stroke-linecap="round"/>
<line x1="188.2" y1="230.2" x2="193.8" y2="294.5" stroke="#b84e32" stroke-width="4" stroke-linecap="round"/>
<line x1="228.2" y1="86.9" x2="256.4" y2="88.9" stroke="#b84e32" stroke-width="4" stroke-linecap="round"/>
<line x1="256.4" y1="88.9" x2="297.5" y2="100.7" stroke="#b84e32" stroke-width="4" stroke-linecap="round"/>
<line x1="297.5" y1="100.7" x2="338.8" y2="92.0" stroke="#b84e32" stroke-width="4" stroke-linecap="round"/>
<line x1="228.2" y1="86.9" x2="206.5" y2="94.1" stroke="#b84e32" stroke-width="4" stroke-linecap="round"/>
<line x1="206.5" y1="94.1" x2="164.4" y2="106.2" stroke="#b84e32" stroke-width="4" stroke-linecap="round"/>
<line x1="164.4" y1="106.2" x2="141.2" y2="88.4" stroke="#b84e32" stroke-width="4" stroke-linecap="round"/>
<circle cx="226.1" cy="65.0" r="3.5" fill="#b84e32"/>
<circle cx="286.1" cy="295.0" r="3.5" fill="#b84e32"/>
<circle cx="297.5" cy="100.7" r="3.5" fill="#b84e32"/>
<circle cx="244.9" cy="182.9" r="3.5" fill="#b84e32"/>
<circle cx="282.1" cy="230.6" r="3.5" fill="#b84e32"/>
<circle cx="256.4" cy="88.9" r="3.5" fill="#b84e32"/>
<circle cx="338.8" cy="92.0" r="3.5" fill="#b84e32"/>
<circle cx="228.2" cy="86.9" r="3.5" fill="#b84e32"/>
<circle cx="233.9" cy="166.7" r="3.5" fill="#b84e32"/>
<circle cx="193.8" cy="294.5" r="3.5" fill="#b84e32"/>
<circle cx="164.4" cy="106.2" r="3.5" fill="#b84e32"/>
<circle cx="224.0" cy="185.3" r="3.5" fill="#b84e32"/>
<circle cx="188.2" cy="230.2" r="3.5" fill="#b84e32"/>
<circle cx="206.5" cy="94.1" r="3.5" fill="#b84e32"/>
<circle cx="141.2" cy="88.4" r="3.5" fill="#b84e32"/>
<circle cx="230.9" cy="116.1" r="3.5" fill="#b84e32"/></g>
<text x="56" y="684" class="muted">Scoring source: SMPL-X. G1 scoring allowed: false. Feedback passed: False</text>
<text x="696" y="672" class="muted">Routine feedback anchors: opening stance, settled support, raise hands apex</text>
<text x="696" y="696" class="muted">SMPL-X surface layer: SMPL-X surface proxy</text>
</svg>