<svg xmlns="http://www.w3.org/2000/svg" width="1280" height="720" viewBox="0 0 1280 720" role="img">
<style>text{font-family:Inter,Arial,sans-serif}.title{font-size:30px;font-weight:760;fill:#17212b}.muted{font-size:16px;fill:#66717f}.badge{font-size:14px;font-weight:760;fill:#b54708}</style>
<rect width="1280" height="720" fill="#eef2f6"/>
<rect x="32" y="28" width="1216" height="86" rx="8" fill="#ffffff" stroke="#d8e0e8"/>
<text x="56" y="68" class="title">neodojo public fixture demo</text>
<text x="56" y="94" class="muted">SMPL-X teacher + Unitree G1 MuJoCo model replay - frame 60</text>
<text x="1080" y="66" class="badge">REAL ARTIFACT</text>
<rect x="48" y="144" width="560" height="500" rx="8" fill="#ffffff" stroke="#d8e0e8"/>
<rect x="672" y="144" width="560" height="500" rx="8" fill="#ffffff" stroke="#d8e0e8"/>
<text x="72" y="184" class="title">SMPL-X teacher</text>
<text x="696" y="184" class="title">Unitree G1 MuJoCo model replay</text>
<g transform="translate(80 210)"><line x1="239.9" y1="177.1" x2="240.4" y2="135.7" stroke="#147c72" stroke-opacity="0.16" stroke-width="18.9" stroke-linecap="round"/>
<line x1="240.4" y1="135.7" x2="238.1" y2="112.3" stroke="#147c72" stroke-opacity="0.16" stroke-width="17.1" stroke-linecap="round"/>
<line x1="238.1" y1="112.3" x2="242.7" y2="90.1" stroke="#147c72" stroke-opacity="0.16" stroke-width="12.6" stroke-linecap="round"/>
<line x1="240.4" y1="135.7" x2="248.6" y2="190.9" stroke="#147c72" stroke-opacity="0.16" stroke-width="15.3" stroke-linecap="round"/>
<line x1="248.6" y1="190.9" x2="259.4" y2="241.4" stroke="#147c72" stroke-opacity="0.16" stroke-width="10.8" stroke-linecap="round"/>
<line x1="259.4" y1="241.4" x2="254.8" y2="295.0" stroke="#147c72" stroke-opacity="0.16" stroke-width="8.1" stroke-linecap="round"/>
<line x1="240.4" y1="135.7" x2="230.3" y2="192.0" stroke="#147c72" stroke-opacity="0.16" stroke-width="15.3" stroke-linecap="round"/>
<line x1="230.3" y1="192.0" x2="214.1" y2="238.6" stroke="#147c72" stroke-opacity="0.16" stroke-width="10.8" stroke-linecap="round"/>
<line x1="214.1" y1="238.6" x2="206.5" y2="292.7" stroke="#147c72" stroke-opacity="0.16" stroke-width="8.1" stroke-linecap="round"/>
<line x1="238.1" y1="112.3" x2="260.4" y2="110.1" stroke="#147c72" stroke-opacity="0.16" stroke-width="9.9" stroke-linecap="round"/>
<line x1="260.4" y1="110.1" x2="284.9" y2="95.0" stroke="#147c72" stroke-opacity="0.16" stroke-width="8.1" stroke-linecap="round"/>
<line x1="284.9" y1="95.0" x2="269.9" y2="65.0" stroke="#147c72" stroke-opacity="0.16" stroke-width="8.0" stroke-linecap="round"/>
<line x1="238.1" y1="112.3" x2="217.4" y2="119.0" stroke="#147c72" stroke-opacity="0.16" stroke-width="9.9" stroke-linecap="round"/>
<line x1="217.4" y1="119.0" x2="195.1" y2="148.9" stroke="#147c72" stroke-opacity="0.16" stroke-width="8.1" stroke-linecap="round"/>
<line x1="195.1" y1="148.9" x2="195.5" y2="164.6" stroke="#147c72" stroke-opacity="0.16" stroke-width="8.0" stroke-linecap="round"/><line x1="239.9" y1="177.1" x2="240.4" y2="135.7" stroke="#147c72" stroke-width="4" stroke-linecap="round"/>
<line x1="240.4" y1="135.7" x2="238.1" y2="112.3" stroke="#147c72" stroke-width="4" stroke-linecap="round"/>
<line x1="238.1" y1="112.3" x2="242.7" y2="90.1" stroke="#147c72" stroke-width="4" stroke-linecap="round"/>
<line x1="240.4" y1="135.7" x2="248.6" y2="190.9" stroke="#147c72" stroke-width="4" stroke-linecap="round"/>
<line x1="248.6" y1="190.9" x2="259.4" y2="241.4" stroke="#147c72" stroke-width="4" stroke-linecap="round"/>
<line x1="259.4" y1="241.4" x2="254.8" y2="295.0" stroke="#147c72" stroke-width="4" stroke-linecap="round"/>
<line x1="240.4" y1="135.7" x2="230.3" y2="192.0" stroke="#147c72" stroke-width="4" stroke-linecap="round"/>
<line x1="230.3" y1="192.0" x2="214.1" y2="238.6" stroke="#147c72" stroke-width="4" stroke-linecap="round"/>
<line x1="214.1" y1="238.6" x2="206.5" y2="292.7" stroke="#147c72" stroke-width="4" stroke-linecap="round"/>
<line x1="238.1" y1="112.3" x2="260.4" y2="110.1" stroke="#147c72" stroke-width="4" stroke-linecap="round"/>
<line x1="260.4" y1="110.1" x2="284.9" y2="95.0" stroke="#147c72" stroke-width="4" stroke-linecap="round"/>
<line x1="284.9" y1="95.0" x2="269.9" y2="65.0" stroke="#147c72" stroke-width="4" stroke-linecap="round"/>
<line x1="238.1" y1="112.3" x2="217.4" y2="119.0" stroke="#147c72" stroke-width="4" stroke-linecap="round"/>
<line x1="217.4" y1="119.0" x2="195.1" y2="148.9" stroke="#147c72" stroke-width="4" stroke-linecap="round"/>
<line x1="195.1" y1="148.9" x2="195.5" y2="164.6" stroke="#147c72" stroke-width="4" stroke-linecap="round"/>
<circle cx="242.7" cy="90.1" r="3.5" fill="#147c72"/>
<circle cx="254.8" cy="295.0" r="3.5" fill="#147c72"/>
<circle cx="284.9" cy="95.0" r="3.5" fill="#147c72"/>
<circle cx="248.6" cy="190.9" r="3.5" fill="#147c72"/>
<circle cx="259.4" cy="241.4" r="3.5" fill="#147c72"/>
<circle cx="260.4" cy="110.1" r="3.5" fill="#147c72"/>
<circle cx="269.9" cy="65.0" r="3.5" fill="#147c72"/>
<circle cx="238.1" cy="112.3" r="3.5" fill="#147c72"/>
<circle cx="239.9" cy="177.1" r="3.5" fill="#147c72"/>
<circle cx="206.5" cy="292.7" r="3.5" fill="#147c72"/>
<circle cx="195.1" cy="148.9" r="3.5" fill="#147c72"/>
<circle cx="230.3" cy="192.0" r="3.5" fill="#147c72"/>
<circle cx="214.1" cy="238.6" r="3.5" fill="#147c72"/>
<circle cx="217.4" cy="119.0" r="3.5" fill="#147c72"/>
<circle cx="195.5" cy="164.6" r="3.5" fill="#147c72"/>
<circle cx="240.4" cy="135.7" r="3.5" fill="#147c72"/></g>
<g transform="translate(704 210)"><line x1="241.4" y1="167.9" x2="242.0" y2="123.3" stroke="#b84e32" stroke-width="4" stroke-linecap="round"/>
<line x1="242.0" y1="123.3" x2="239.6" y2="98.1" stroke="#b84e32" stroke-width="4" stroke-linecap="round"/>
<line x1="239.6" y1="98.1" x2="244.3" y2="78.6" stroke="#b84e32" stroke-width="4" stroke-linecap="round"/>
<line x1="242.0" y1="123.3" x2="250.3" y2="182.8" stroke="#b84e32" stroke-width="4" stroke-linecap="round"/>
<line x1="250.3" y1="182.8" x2="261.2" y2="237.2" stroke="#b84e32" stroke-width="4" stroke-linecap="round"/>
<line x1="261.2" y1="237.2" x2="256.6" y2="295.0" stroke="#b84e32" stroke-width="4" stroke-linecap="round"/>
<line x1="242.0" y1="123.3" x2="231.8" y2="184.0" stroke="#b84e32" stroke-width="4" stroke-linecap="round"/>
<line x1="231.8" y1="184.0" x2="215.3" y2="234.2" stroke="#b84e32" stroke-width="4" stroke-linecap="round"/>
<line x1="215.3" y1="234.2" x2="207.6" y2="292.5" stroke="#b84e32" stroke-width="4" stroke-linecap="round"/>
<line x1="239.6" y1="98.1" x2="262.3" y2="95.7" stroke="#b84e32" stroke-width="4" stroke-linecap="round"/>
<line x1="262.3" y1="95.7" x2="287.1" y2="88.4" stroke="#b84e32" stroke-width="4" stroke-linecap="round"/>
<line x1="287.1" y1="88.4" x2="274.3" y2="65.0" stroke="#b84e32" stroke-width="4" stroke-linecap="round"/>
<line x1="239.6" y1="98.1" x2="218.7" y2="105.3" stroke="#b84e32" stroke-width="4" stroke-linecap="round"/>
<line x1="218.7" y1="105.3" x2="196.1" y2="146.5" stroke="#b84e32" stroke-width="4" stroke-linecap="round"/>
<line x1="196.1" y1="146.5" x2="192.9" y2="172.3" stroke="#b84e32" stroke-width="4" stroke-linecap="round"/>
<circle cx="244.3" cy="78.6" r="3.5" fill="#b84e32"/>
<circle cx="256.6" cy="295.0" r="3.5" fill="#b84e32"/>
<circle cx="287.1" cy="88.4" r="3.5" fill="#b84e32"/>
<circle cx="250.3" cy="182.8" r="3.5" fill="#b84e32"/>
<circle cx="261.2" cy="237.2" r="3.5" fill="#b84e32"/>
<circle cx="262.3" cy="95.7" r="3.5" fill="#b84e32"/>
<circle cx="274.3" cy="65.0" r="3.5" fill="#b84e32"/>
<circle cx="239.6" cy="98.1" r="3.5" fill="#b84e32"/>
<circle cx="241.4" cy="167.9" r="3.5" fill="#b84e32"/>
<circle cx="207.6" cy="292.5" r="3.5" fill="#b84e32"/>
<circle cx="196.1" cy="146.5" r="3.5" fill="#b84e32"/>
<circle cx="231.8" cy="184.0" r="3.5" fill="#b84e32"/>
<circle cx="215.3" cy="234.2" r="3.5" fill="#b84e32"/>
<circle cx="218.7" cy="105.3" r="3.5" fill="#b84e32"/>
<circle cx="192.9" cy="172.3" r="3.5" fill="#b84e32"/>
<circle cx="242.0" cy="123.3" r="3.5" fill="#b84e32"/></g>
<text x="56" y="684" class="muted">Scoring source: SMPL-X. G1 scoring allowed: false. Feedback passed: False</text>
<text x="696" y="672" class="muted">Routine feedback anchors: opening stance, settled support, raise hands apex</text>
<text x="696" y="696" class="muted">SMPL-X surface layer: SMPL-X surface proxy</text>
</svg>