<svg xmlns="http://www.w3.org/2000/svg" width="1280" height="720" viewBox="0 0 1280 720" role="img">
<style>text{font-family:Inter,Arial,sans-serif}.title{font-size:30px;font-weight:760;fill:#17212b}.muted{font-size:16px;fill:#66717f}.badge{font-size:14px;font-weight:760;fill:#b54708}</style>
<rect width="1280" height="720" fill="#eef2f6"/>
<rect x="32" y="28" width="1216" height="86" rx="8" fill="#ffffff" stroke="#d8e0e8"/>
<text x="56" y="68" class="title">neodojo public fixture demo</text>
<text x="56" y="94" class="muted">SMPL-X teacher + Unitree G1 MuJoCo model replay - frame 90</text>
<text x="1080" y="66" class="badge">REAL ARTIFACT</text>
<rect x="48" y="144" width="560" height="500" rx="8" fill="#ffffff" stroke="#d8e0e8"/>
<rect x="672" y="144" width="560" height="500" rx="8" fill="#ffffff" stroke="#d8e0e8"/>
<text x="72" y="184" class="title">SMPL-X teacher</text>
<text x="696" y="184" class="title">Unitree G1 MuJoCo model replay</text>
<g transform="translate(80 210)"><line x1="241.6" y1="183.5" x2="241.1" y2="146.9" stroke="#147c72" stroke-opacity="0.16" stroke-width="18.9" stroke-linecap="round"/>
<line x1="241.1" y1="146.9" x2="238.8" y2="127.2" stroke="#147c72" stroke-opacity="0.16" stroke-width="17.1" stroke-linecap="round"/>
<line x1="238.8" y1="127.2" x2="243.9" y2="106.8" stroke="#147c72" stroke-opacity="0.16" stroke-width="12.6" stroke-linecap="round"/>
<line x1="241.1" y1="146.9" x2="249.2" y2="196.0" stroke="#147c72" stroke-opacity="0.16" stroke-width="15.3" stroke-linecap="round"/>
<line x1="249.2" y1="196.0" x2="259.3" y2="243.7" stroke="#147c72" stroke-opacity="0.16" stroke-width="10.8" stroke-linecap="round"/>
<line x1="259.3" y1="243.7" x2="259.3" y2="295.0" stroke="#147c72" stroke-opacity="0.16" stroke-width="8.1" stroke-linecap="round"/>
<line x1="241.1" y1="146.9" x2="232.8" y2="196.9" stroke="#147c72" stroke-opacity="0.16" stroke-width="15.3" stroke-linecap="round"/>
<line x1="232.8" y1="196.9" x2="220.7" y2="242.0" stroke="#147c72" stroke-opacity="0.16" stroke-width="10.8" stroke-linecap="round"/>
<line x1="220.7" y1="242.0" x2="212.9" y2="293.4" stroke="#147c72" stroke-opacity="0.16" stroke-width="8.1" stroke-linecap="round"/>
<line x1="238.8" y1="127.2" x2="255.3" y2="123.5" stroke="#147c72" stroke-opacity="0.16" stroke-width="9.9" stroke-linecap="round"/>
<line x1="255.3" y1="123.5" x2="263.8" y2="96.4" stroke="#147c72" stroke-opacity="0.16" stroke-width="8.1" stroke-linecap="round"/>
<line x1="263.8" y1="96.4" x2="267.1" y2="65.0" stroke="#147c72" stroke-opacity="0.16" stroke-width="8.0" stroke-linecap="round"/>
<line x1="238.8" y1="127.2" x2="227.9" y2="124.4" stroke="#147c72" stroke-opacity="0.16" stroke-width="9.9" stroke-linecap="round"/>
<line x1="227.9" y1="124.4" x2="216.0" y2="96.7" stroke="#147c72" stroke-opacity="0.16" stroke-width="8.1" stroke-linecap="round"/>
<line x1="216.0" y1="96.7" x2="214.7" y2="65.7" stroke="#147c72" stroke-opacity="0.16" stroke-width="8.0" stroke-linecap="round"/><line x1="241.6" y1="183.5" x2="241.1" y2="146.9" stroke="#147c72" stroke-width="4" stroke-linecap="round"/>
<line x1="241.1" y1="146.9" x2="238.8" y2="127.2" stroke="#147c72" stroke-width="4" stroke-linecap="round"/>
<line x1="238.8" y1="127.2" x2="243.9" y2="106.8" stroke="#147c72" stroke-width="4" stroke-linecap="round"/>
<line x1="241.1" y1="146.9" x2="249.2" y2="196.0" stroke="#147c72" stroke-width="4" stroke-linecap="round"/>
<line x1="249.2" y1="196.0" x2="259.3" y2="243.7" stroke="#147c72" stroke-width="4" stroke-linecap="round"/>
<line x1="259.3" y1="243.7" x2="259.3" y2="295.0" stroke="#147c72" stroke-width="4" stroke-linecap="round"/>
<line x1="241.1" y1="146.9" x2="232.8" y2="196.9" stroke="#147c72" stroke-width="4" stroke-linecap="round"/>
<line x1="232.8" y1="196.9" x2="220.7" y2="242.0" stroke="#147c72" stroke-width="4" stroke-linecap="round"/>
<line x1="220.7" y1="242.0" x2="212.9" y2="293.4" stroke="#147c72" stroke-width="4" stroke-linecap="round"/>
<line x1="238.8" y1="127.2" x2="255.3" y2="123.5" stroke="#147c72" stroke-width="4" stroke-linecap="round"/>
<line x1="255.3" y1="123.5" x2="263.8" y2="96.4" stroke="#147c72" stroke-width="4" stroke-linecap="round"/>
<line x1="263.8" y1="96.4" x2="267.1" y2="65.0" stroke="#147c72" stroke-width="4" stroke-linecap="round"/>
<line x1="238.8" y1="127.2" x2="227.9" y2="124.4" stroke="#147c72" stroke-width="4" stroke-linecap="round"/>
<line x1="227.9" y1="124.4" x2="216.0" y2="96.7" stroke="#147c72" stroke-width="4" stroke-linecap="round"/>
<line x1="216.0" y1="96.7" x2="214.7" y2="65.7" stroke="#147c72" stroke-width="4" stroke-linecap="round"/>
<circle cx="243.9" cy="106.8" r="3.5" fill="#147c72"/>
<circle cx="259.3" cy="295.0" r="3.5" fill="#147c72"/>
<circle cx="263.8" cy="96.4" r="3.5" fill="#147c72"/>
<circle cx="249.2" cy="196.0" r="3.5" fill="#147c72"/>
<circle cx="259.3" cy="243.7" r="3.5" fill="#147c72"/>
<circle cx="255.3" cy="123.5" r="3.5" fill="#147c72"/>
<circle cx="267.1" cy="65.0" r="3.5" fill="#147c72"/>
<circle cx="238.8" cy="127.2" r="3.5" fill="#147c72"/>
<circle cx="241.6" cy="183.5" r="3.5" fill="#147c72"/>
<circle cx="212.9" cy="293.4" r="3.5" fill="#147c72"/>
<circle cx="216.0" cy="96.7" r="3.5" fill="#147c72"/>
<circle cx="232.8" cy="196.9" r="3.5" fill="#147c72"/>
<circle cx="220.7" cy="242.0" r="3.5" fill="#147c72"/>
<circle cx="227.9" cy="124.4" r="3.5" fill="#147c72"/>
<circle cx="214.7" cy="65.7" r="3.5" fill="#147c72"/>
<circle cx="241.1" cy="146.9" r="3.5" fill="#147c72"/></g>
<g transform="translate(704 210)"><line x1="240.7" y1="175.2" x2="240.2" y2="135.9" stroke="#b84e32" stroke-width="4" stroke-linecap="round"/>
<line x1="240.2" y1="135.9" x2="237.8" y2="114.7" stroke="#b84e32" stroke-width="4" stroke-linecap="round"/>
<line x1="237.8" y1="114.7" x2="243.0" y2="97.1" stroke="#b84e32" stroke-width="4" stroke-linecap="round"/>
<line x1="240.2" y1="135.9" x2="248.4" y2="188.6" stroke="#b84e32" stroke-width="4" stroke-linecap="round"/>
<line x1="248.4" y1="188.6" x2="258.6" y2="239.9" stroke="#b84e32" stroke-width="4" stroke-linecap="round"/>
<line x1="258.6" y1="239.9" x2="258.6" y2="295.0" stroke="#b84e32" stroke-width="4" stroke-linecap="round"/>
<line x1="240.2" y1="135.9" x2="231.9" y2="189.7" stroke="#b84e32" stroke-width="4" stroke-linecap="round"/>
<line x1="231.9" y1="189.7" x2="219.6" y2="238.1" stroke="#b84e32" stroke-width="4" stroke-linecap="round"/>
<line x1="219.6" y1="238.1" x2="211.7" y2="293.3" stroke="#b84e32" stroke-width="4" stroke-linecap="round"/>
<line x1="237.8" y1="114.7" x2="254.5" y2="110.8" stroke="#b84e32" stroke-width="4" stroke-linecap="round"/>
<line x1="254.5" y1="110.8" x2="263.1" y2="90.2" stroke="#b84e32" stroke-width="4" stroke-linecap="round"/>
<line x1="263.1" y1="90.2" x2="268.6" y2="65.0" stroke="#b84e32" stroke-width="4" stroke-linecap="round"/>
<line x1="237.8" y1="114.7" x2="226.9" y2="111.8" stroke="#b84e32" stroke-width="4" stroke-linecap="round"/>
<line x1="226.9" y1="111.8" x2="214.9" y2="90.5" stroke="#b84e32" stroke-width="4" stroke-linecap="round"/>
<line x1="214.9" y1="90.5" x2="211.4" y2="65.8" stroke="#b84e32" stroke-width="4" stroke-linecap="round"/>
<circle cx="243.0" cy="97.1" r="3.5" fill="#b84e32"/>
<circle cx="258.6" cy="295.0" r="3.5" fill="#b84e32"/>
<circle cx="263.1" cy="90.2" r="3.5" fill="#b84e32"/>
<circle cx="248.4" cy="188.6" r="3.5" fill="#b84e32"/>
<circle cx="258.6" cy="239.9" r="3.5" fill="#b84e32"/>
<circle cx="254.5" cy="110.8" r="3.5" fill="#b84e32"/>
<circle cx="268.6" cy="65.0" r="3.5" fill="#b84e32"/>
<circle cx="237.8" cy="114.7" r="3.5" fill="#b84e32"/>
<circle cx="240.7" cy="175.2" r="3.5" fill="#b84e32"/>
<circle cx="211.7" cy="293.3" r="3.5" fill="#b84e32"/>
<circle cx="214.9" cy="90.5" r="3.5" fill="#b84e32"/>
<circle cx="231.9" cy="189.7" r="3.5" fill="#b84e32"/>
<circle cx="219.6" cy="238.1" r="3.5" fill="#b84e32"/>
<circle cx="226.9" cy="111.8" r="3.5" fill="#b84e32"/>
<circle cx="211.4" cy="65.8" r="3.5" fill="#b84e32"/>
<circle cx="240.2" cy="135.9" r="3.5" fill="#b84e32"/></g>
<text x="56" y="684" class="muted">Scoring source: SMPL-X. G1 scoring allowed: false. Feedback passed: False</text>
<text x="696" y="672" class="muted">Routine feedback anchors: opening stance, settled support, raise hands apex</text>
<text x="696" y="696" class="muted">SMPL-X surface layer: SMPL-X surface proxy</text>
</svg>