<svg xmlns="http://www.w3.org/2000/svg" width="1280" height="720" viewBox="0 0 1280 720" role="img">
<style>text{font-family:Inter,Arial,sans-serif}.title{font-size:30px;font-weight:760;fill:#17212b}.muted{font-size:16px;fill:#66717f}.badge{font-size:14px;font-weight:760;fill:#b54708}</style>
<rect width="1280" height="720" fill="#eef2f6"/>
<rect x="32" y="28" width="1216" height="86" rx="8" fill="#ffffff" stroke="#d8e0e8"/>
<text x="56" y="68" class="title">neodojo public fixture demo</text>
<text x="56" y="94" class="muted">SMPL-X teacher + Unitree G1 MuJoCo model replay - frame 62</text>
<text x="1080" y="66" class="badge">REAL ARTIFACT</text>
<rect x="48" y="144" width="560" height="500" rx="8" fill="#ffffff" stroke="#d8e0e8"/>
<rect x="672" y="144" width="560" height="500" rx="8" fill="#ffffff" stroke="#d8e0e8"/>
<text x="72" y="184" class="title">SMPL-X teacher</text>
<text x="696" y="184" class="title">Unitree G1 MuJoCo model replay</text>
<g transform="translate(80 210)"><line x1="240.6" y1="162.3" x2="239.4" y2="117.5" stroke="#147c72" stroke-opacity="0.16" stroke-width="18.9" stroke-linecap="round"/>
<line x1="239.4" y1="117.5" x2="236.5" y2="91.0" stroke="#147c72" stroke-opacity="0.16" stroke-width="17.1" stroke-linecap="round"/>
<line x1="236.5" y1="91.0" x2="241.5" y2="65.0" stroke="#147c72" stroke-opacity="0.16" stroke-width="12.6" stroke-linecap="round"/>
<line x1="239.4" y1="117.5" x2="250.9" y2="177.2" stroke="#147c72" stroke-opacity="0.16" stroke-width="15.3" stroke-linecap="round"/>
<line x1="250.9" y1="177.2" x2="267.9" y2="232.9" stroke="#147c72" stroke-opacity="0.16" stroke-width="10.8" stroke-linecap="round"/>
<line x1="267.9" y1="232.9" x2="270.7" y2="294.4" stroke="#147c72" stroke-opacity="0.16" stroke-width="8.1" stroke-linecap="round"/>
<line x1="239.4" y1="117.5" x2="229.9" y2="179.3" stroke="#147c72" stroke-opacity="0.16" stroke-width="15.3" stroke-linecap="round"/>
<line x1="229.9" y1="179.3" x2="215.7" y2="233.4" stroke="#147c72" stroke-opacity="0.16" stroke-width="10.8" stroke-linecap="round"/>
<line x1="215.7" y1="233.4" x2="209.0" y2="295.0" stroke="#147c72" stroke-opacity="0.16" stroke-width="8.1" stroke-linecap="round"/>
<line x1="236.5" y1="91.0" x2="264.2" y2="94.1" stroke="#147c72" stroke-opacity="0.16" stroke-width="9.9" stroke-linecap="round"/>
<line x1="264.2" y1="94.1" x2="272.8" y2="124.1" stroke="#147c72" stroke-opacity="0.16" stroke-width="8.1" stroke-linecap="round"/>
<line x1="272.8" y1="124.1" x2="260.9" y2="94.0" stroke="#147c72" stroke-opacity="0.16" stroke-width="8.0" stroke-linecap="round"/>
<line x1="236.5" y1="91.0" x2="216.7" y2="94.6" stroke="#147c72" stroke-opacity="0.16" stroke-width="9.9" stroke-linecap="round"/>
<line x1="216.7" y1="94.6" x2="207.2" y2="121.6" stroke="#147c72" stroke-opacity="0.16" stroke-width="8.1" stroke-linecap="round"/>
<line x1="207.2" y1="121.6" x2="229.5" y2="95.1" stroke="#147c72" stroke-opacity="0.16" stroke-width="8.0" stroke-linecap="round"/><line x1="240.6" y1="162.3" x2="239.4" y2="117.5" stroke="#147c72" stroke-width="4" stroke-linecap="round"/>
<line x1="239.4" y1="117.5" x2="236.5" y2="91.0" stroke="#147c72" stroke-width="4" stroke-linecap="round"/>
<line x1="236.5" y1="91.0" x2="241.5" y2="65.0" stroke="#147c72" stroke-width="4" stroke-linecap="round"/>
<line x1="239.4" y1="117.5" x2="250.9" y2="177.2" stroke="#147c72" stroke-width="4" stroke-linecap="round"/>
<line x1="250.9" y1="177.2" x2="267.9" y2="232.9" stroke="#147c72" stroke-width="4" stroke-linecap="round"/>
<line x1="267.9" y1="232.9" x2="270.7" y2="294.4" stroke="#147c72" stroke-width="4" stroke-linecap="round"/>
<line x1="239.4" y1="117.5" x2="229.9" y2="179.3" stroke="#147c72" stroke-width="4" stroke-linecap="round"/>
<line x1="229.9" y1="179.3" x2="215.7" y2="233.4" stroke="#147c72" stroke-width="4" stroke-linecap="round"/>
<line x1="215.7" y1="233.4" x2="209.0" y2="295.0" stroke="#147c72" stroke-width="4" stroke-linecap="round"/>
<line x1="236.5" y1="91.0" x2="264.2" y2="94.1" stroke="#147c72" stroke-width="4" stroke-linecap="round"/>
<line x1="264.2" y1="94.1" x2="272.8" y2="124.1" stroke="#147c72" stroke-width="4" stroke-linecap="round"/>
<line x1="272.8" y1="124.1" x2="260.9" y2="94.0" stroke="#147c72" stroke-width="4" stroke-linecap="round"/>
<line x1="236.5" y1="91.0" x2="216.7" y2="94.6" stroke="#147c72" stroke-width="4" stroke-linecap="round"/>
<line x1="216.7" y1="94.6" x2="207.2" y2="121.6" stroke="#147c72" stroke-width="4" stroke-linecap="round"/>
<line x1="207.2" y1="121.6" x2="229.5" y2="95.1" stroke="#147c72" stroke-width="4" stroke-linecap="round"/>
<circle cx="241.5" cy="65.0" r="3.5" fill="#147c72"/>
<circle cx="270.7" cy="294.4" r="3.5" fill="#147c72"/>
<circle cx="272.8" cy="124.1" r="3.5" fill="#147c72"/>
<circle cx="250.9" cy="177.2" r="3.5" fill="#147c72"/>
<circle cx="267.9" cy="232.9" r="3.5" fill="#147c72"/>
<circle cx="264.2" cy="94.1" r="3.5" fill="#147c72"/>
<circle cx="260.9" cy="94.0" r="3.5" fill="#147c72"/>
<circle cx="236.5" cy="91.0" r="3.5" fill="#147c72"/>
<circle cx="240.6" cy="162.3" r="3.5" fill="#147c72"/>
<circle cx="209.0" cy="295.0" r="3.5" fill="#147c72"/>
<circle cx="207.2" cy="121.6" r="3.5" fill="#147c72"/>
<circle cx="229.9" cy="179.3" r="3.5" fill="#147c72"/>
<circle cx="215.7" cy="233.4" r="3.5" fill="#147c72"/>
<circle cx="216.7" cy="94.6" r="3.5" fill="#147c72"/>
<circle cx="229.5" cy="95.1" r="3.5" fill="#147c72"/>
<circle cx="239.4" cy="117.5" r="3.5" fill="#147c72"/></g>
<g transform="translate(704 210)"><line x1="240.6" y1="159.5" x2="239.5" y2="113.7" stroke="#b84e32" stroke-width="4" stroke-linecap="round"/>
<line x1="239.5" y1="113.7" x2="236.7" y2="86.6" stroke="#b84e32" stroke-width="4" stroke-linecap="round"/>
<line x1="236.7" y1="86.6" x2="241.4" y2="65.0" stroke="#b84e32" stroke-width="4" stroke-linecap="round"/>
<line x1="239.5" y1="113.7" x2="250.5" y2="174.6" stroke="#b84e32" stroke-width="4" stroke-linecap="round"/>
<line x1="250.5" y1="174.6" x2="266.8" y2="231.6" stroke="#b84e32" stroke-width="4" stroke-linecap="round"/>
<line x1="266.8" y1="231.6" x2="269.5" y2="294.4" stroke="#b84e32" stroke-width="4" stroke-linecap="round"/>
<line x1="239.5" y1="113.7" x2="230.3" y2="176.8" stroke="#b84e32" stroke-width="4" stroke-linecap="round"/>
<line x1="230.3" y1="176.8" x2="216.7" y2="232.1" stroke="#b84e32" stroke-width="4" stroke-linecap="round"/>
<line x1="216.7" y1="232.1" x2="210.3" y2="295.0" stroke="#b84e32" stroke-width="4" stroke-linecap="round"/>
<line x1="236.7" y1="86.6" x2="263.3" y2="89.8" stroke="#b84e32" stroke-width="4" stroke-linecap="round"/>
<line x1="263.3" y1="89.8" x2="271.5" y2="130.3" stroke="#b84e32" stroke-width="4" stroke-linecap="round"/>
<line x1="271.5" y1="130.3" x2="261.4" y2="109.6" stroke="#b84e32" stroke-width="4" stroke-linecap="round"/>
<line x1="236.7" y1="86.6" x2="217.7" y2="90.3" stroke="#b84e32" stroke-width="4" stroke-linecap="round"/>
<line x1="217.7" y1="90.3" x2="208.5" y2="127.8" stroke="#b84e32" stroke-width="4" stroke-linecap="round"/>
<line x1="208.5" y1="127.8" x2="228.9" y2="110.7" stroke="#b84e32" stroke-width="4" stroke-linecap="round"/>
<circle cx="241.4" cy="65.0" r="3.5" fill="#b84e32"/>
<circle cx="269.5" cy="294.4" r="3.5" fill="#b84e32"/>
<circle cx="271.5" cy="130.3" r="3.5" fill="#b84e32"/>
<circle cx="250.5" cy="174.6" r="3.5" fill="#b84e32"/>
<circle cx="266.8" cy="231.6" r="3.5" fill="#b84e32"/>
<circle cx="263.3" cy="89.8" r="3.5" fill="#b84e32"/>
<circle cx="261.4" cy="109.6" r="3.5" fill="#b84e32"/>
<circle cx="236.7" cy="86.6" r="3.5" fill="#b84e32"/>
<circle cx="240.6" cy="159.5" r="3.5" fill="#b84e32"/>
<circle cx="210.3" cy="295.0" r="3.5" fill="#b84e32"/>
<circle cx="208.5" cy="127.8" r="3.5" fill="#b84e32"/>
<circle cx="230.3" cy="176.8" r="3.5" fill="#b84e32"/>
<circle cx="216.7" cy="232.1" r="3.5" fill="#b84e32"/>
<circle cx="217.7" cy="90.3" r="3.5" fill="#b84e32"/>
<circle cx="228.9" cy="110.7" r="3.5" fill="#b84e32"/>
<circle cx="239.5" cy="113.7" r="3.5" fill="#b84e32"/></g>
<text x="56" y="684" class="muted">Scoring source: SMPL-X. G1 scoring allowed: false. Feedback passed: False</text>
<text x="696" y="672" class="muted">Routine feedback anchors: opening stance, settled support, raise hands apex</text>
<text x="696" y="696" class="muted">SMPL-X surface layer: SMPL-X surface proxy</text>
</svg>